font.ufo
<glyph name="exclam" format="1">
  <advance width="202"/>
  <unicode hex="0021"/>
  <note>
    exclam
  </note>
  <outline>
    <contour>
      <point x="134" y="124" type="line"/>
      <point x="140" y="303" type="line"/>
      <point x="140" y="447" type="line"/>
      <point x="63" y="447" type="line"/>
      <point x="63" y="303" type="line"/>
      <point x="68" y="124" type="line"/>
    </contour>
    <contour>
      <point x="140" y="0" type="line"/>
      <point x="140" y="74" type="line"/>
      <point x="62" y="74" type="line"/>
      <point x="62" y="0" type="line"/>
    </contour>
  </outline>
</glyph>
<glyph name="quotedbl" format="1">
  <advance width="340"/>
  <unicode hex="0022"/>
  <note>
    quotedbl
  </note>
  <outline>
    <contour>
      <point x="249" y="348" type="line"/>
      <point x="256" y="443" type="line" smooth="yes"/>
      <point x="257" y="458"/>
      <point x="256" y="474"/>
      <point x="254" y="491" type="curve"/>
      <point x="194" y="491" type="line"/>
      <point x="191" y="474"/>
      <point x="190" y="458"/>
      <point x="191" y="443" type="curve" smooth="yes"/>
      <point x="198" y="348" type="line"/>
    </contour>
    <contour>
      <point x="142" y="348" type="line"/>
      <point x="149" y="443" type="line" smooth="yes"/>
      <point x="150" y="458"/>
      <point x="150" y="474"/>
      <point x="147" y="491" type="curve"/>
      <point x="87" y="491" type="line"/>
      <point x="84" y="474"/>
      <point x="84" y="458"/>
      <point x="85" y="443" type="curve" smooth="yes"/>
      <point x="91" y="348" type="line"/>
    </contour>
  </outline>
</glyph>
<glyph name="numbersign" format="1">
  <advance width="554"/>
  <unicode hex="0023"/>
  <note>
    numbersign
  </note>
  <outline>
    <contour>
      <point x="214" y="118" type="line"/>
      <point x="302" y="118" type="line"/>
      <point x="286" y="0" type="line"/>
      <point x="359" y="-3" type="line"/>
      <point x="375" y="118" type="line"/>
      <point x="463" y="118" type="line"/>
      <point x="463" y="183" type="line"/>
      <point x="384" y="183" type="line"/>
      <point x="396" y="267" type="line"/>
      <point x="480" y="267" type="line"/>
      <point x="480" y="332" type="line"/>
      <point x="404" y="332" type="line"/>
      <point x="420" y="452" type="line"/>
      <point x="349" y="454" type="line"/>
      <point x="332" y="332" type="line"/>
      <point x="244" y="332" type="line"/>
      <point x="260" y="452" type="line"/>
      <point x="188" y="454" type="line"/>
      <point x="171" y="332" type="line"/>
      <point x="83" y="332" type="line"/>
      <point x="83" y="267" type="line"/>
      <point x="162" y="267" type="line"/>
      <point x="151" y="183" type="line"/>
      <point x="65" y="183" type="line"/>
      <point x="65" y="118" type="line"/>
      <point x="142" y="118" type="line"/>
      <point x="126" y="0" type="line"/>
      <point x="198" y="-3" type="line"/>
    </contour>
    <contour>
      <point x="235" y="267" type="line"/>
      <point x="323" y="267" type="line"/>
      <point x="311" y="183" type="line"/>
      <point x="223" y="183" type="line"/>
    </contour>
  </outline>
</glyph>
<glyph name="percent" format="1">
  <advance width="909"/>
  <unicode hex="0025"/>
  <outline>
    <contour>
      <point x="319" y="-1" type="line"/>
      <point x="688" y="686" type="line"/>
      <point x="584" y="686" type="line"/>
      <point x="216" y="-1" type="line"/>
    </contour>
    <contour>
      <point x="395" y="523" type="curve" smooth="yes"/>
      <point x="395" y="619"/>
      <point x="317" y="697"/>
      <point x="221" y="697" type="curve" smooth="yes"/>
      <point x="125" y="697"/>
      <point x="47" y="619"/>
      <point x="47" y="523" type="curve" smooth="yes"/>
      <point x="47" y="427"/>
      <point x="125" y="349"/>
      <point x="221" y="349" type="curve" smooth="yes"/>
      <point x="317" y="349"/>
      <point x="395" y="427"/>
    </contour>
    <contour>
      <point x="140" y="523" type="curve" smooth="yes"/>
      <point x="140" y="568"/>
      <point x="176" y="605"/>
      <point x="221" y="605" type="curve" smooth="yes"/>
      <point x="266" y="605"/>
      <point x="302" y="568"/>
      <point x="302" y="523" type="curve" smooth="yes"/>
      <point x="302" y="478"/>
      <point x="266" y="442"/>
      <point x="221" y="442" type="curve" smooth="yes"/>
      <point x="176" y="442"/>
      <point x="140" y="478"/>
    </contour>
    <contour>
      <point x="862" y="166" type="curve" smooth="yes"/>
      <point x="862" y="262"/>
      <point x="784" y="340"/>
      <point x="688" y="340" type="curve" smooth="yes"/>
      <point x="592" y="340"/>
      <point x="514" y="262"/>
      <point x="514" y="166" type="curve" smooth="yes"/>
      <point x="514" y="70"/>
      <point x="592" y="-8"/>
      <point x="688" y="-8" type="curve" smooth="yes"/>
      <point x="784" y="-8"/>
      <point x="862" y="70"/>
    </contour>
    <contour>
      <point x="607" y="166" type="curve" smooth="yes"/>
      <point x="607" y="211"/>
      <point x="644" y="248"/>
      <point x="688" y="248" type="curve" smooth="yes"/>
      <point x="733" y="248"/>
      <point x="770" y="211"/>
      <point x="770" y="166" type="curve" smooth="yes"/>
      <point x="770" y="122"/>
      <point x="733" y="85"/>
      <point x="688" y="85" type="curve" smooth="yes"/>
      <point x="644" y="85"/>
      <point x="607" y="122"/>
    </contour>
  </outline>
</glyph>
<glyph name="ampersand" format="1">
  <advance width="722"/>
  <unicode hex="0026"/>
  <outline>
    <contour>
      <point x="719" y="0" type="line"/>
      <point x="356" y="347" type="line"/>
      <point x="290" y="414"/>
      <point x="243" y="461"/>
      <point x="243" y="513" type="curve" smooth="yes"/>
      <point x="243" y="566"/>
      <point x="281" y="594"/>
      <point x="328" y="594" type="curve" smooth="yes"/>
      <point x="389" y="594"/>
      <point x="422" y="556"/>
      <point x="422" y="504" type="curve" smooth="yes"/>
      <point x="422" y="459"/>
      <point x="393" y="418"/>
      <point x="307" y="378" type="curve"/>
      <point x="378" y="318" type="line"/>
      <point x="494" y="371"/>
      <point x="535" y="432"/>
      <point x="535" y="509" type="curve" smooth="yes"/>
      <point x="535" y="617"/>
      <point x="456" y="689"/>
      <point x="329" y="689" type="curve" smooth="yes"/>
      <point x="213" y="689"/>
      <point x="128" y="624"/>
      <point x="128" y="512" type="curve" smooth="yes"/>
      <point x="128" y="419"/>
      <point x="211" y="350"/>
      <point x="282" y="280" type="curve"/>
      <point x="576" y="0" type="line"/>
    </contour>
    <contour>
      <point x="645" y="284" type="curve"/>
      <point x="542" y="284" type="line"/>
      <point x="537" y="151"/>
      <point x="434" y="88"/>
      <point x="325" y="88" type="curve" smooth="yes"/>
      <point x="237" y="88"/>
      <point x="173" y="126"/>
      <point x="173" y="183" type="curve" smooth="yes"/>
      <point x="173" y="234"/>
      <point x="209" y="267"/>
      <point x="307" y="296" type="curve"/>
      <point x="229" y="358" type="line"/>
      <point x="110" y="322"/>
      <point x="58" y="265"/>
      <point x="58" y="180" type="curve" smooth="yes"/>
      <point x="58" y="76"/>
      <point x="159" y="-8"/>
      <point x="326" y="-8" type="curve" smooth="yes"/>
      <point x="519" y="-8"/>
      <point x="638" y="120"/>
    </contour>
  </outline>
</glyph>
<glyph name="parenleft" format="1">
  <advance width="256"/>
  <unicode hex="0028"/>
  <note>
    parenleft
  </note>
  <outline>
    <contour>
      <point x="197" y="-63" type="curve"/>
      <point x="197" y="-5" type="line"/>
      <point x="136" y="-5" type="line"/>
      <point x="136" y="450" type="line"/>
      <point x="197" y="450" type="line"/>
      <point x="197" y="507" type="line"/>
      <point x="182" y="513"/>
      <point x="159" y="516"/>
      <point x="134" y="515" type="curve"/>
      <point x="100" y="505"/>
      <point x="68" y="485"/>
      <point x="61" y="457" type="curve"/>
      <point x="61" y="-12" type="line"/>
      <point x="68" y="-40"/>
      <point x="100" y="-60"/>
      <point x="134" y="-70" type="curve"/>
      <point x="159" y="-71"/>
      <point x="182" y="-68"/>
    </contour>
  </outline>
</glyph>
<glyph name="parenright" format="1">
  <advance width="256"/>
  <unicode hex="0029"/>
  <note>
    parenright
  </note>
  <outline>
    <contour>
      <point x="195" y="-12" type="curve"/>
      <point x="195" y="457" type="line"/>
      <point x="188" y="485"/>
      <point x="156" y="505"/>
      <point x="122" y="515" type="curve"/>
      <point x="97" y="516"/>
      <point x="73" y="513"/>
      <point x="59" y="507" type="curve"/>
      <point x="59" y="450" type="line"/>
      <point x="120" y="450" type="line"/>
      <point x="120" y="-5" type="line"/>
      <point x="59" y="-5" type="line"/>
      <point x="59" y="-63" type="line"/>
      <point x="73" y="-68"/>
      <point x="97" y="-71"/>
      <point x="122" y="-70" type="curve"/>
      <point x="156" y="-60"/>
      <point x="188" y="-40"/>
    </contour>
  </outline>
</glyph>
<glyph name="asterisk" format="1">
  <advance width="348"/>
  <unicode hex="002A"/>
  <note>
    asterisk
  </note>
  <outline>
    <contour>
      <point x="173" y="305" type="line"/>
      <point x="175" y="305" type="line"/>
      <point x="226" y="224" type="line"/>
      <point x="273" y="257" type="line"/>
      <point x="211" y="331" type="line"/>
      <point x="212" y="334" type="line"/>
      <point x="297" y="354" type="line"/>
      <point x="278" y="410" type="line"/>
      <point x="198" y="376" type="line"/>
      <point x="196" y="378" type="line"/>
      <point x="204" y="470" type="line"/>
      <point x="144" y="470" type="line"/>
      <point x="152" y="378" type="line"/>
      <point x="149" y="376" type="line"/>
      <point x="69" y="410" type="line"/>
      <point x="51" y="354" type="line"/>
      <point x="136" y="334" type="line"/>
      <point x="137" y="331" type="line"/>
      <point x="75" y="257" type="line"/>
      <point x="122" y="224" type="line"/>
    </contour>
  </outline>
</glyph>
<glyph name="plus" format="1">
  <advance width="571"/>
  <unicode hex="002B"/>
  <outline>
    <contour>
      <point x="335" y="104" type="line"/>
      <point x="335" y="575" type="line"/>
      <point x="232" y="575" type="line"/>
      <point x="232" y="104" type="line"/>
    </contour>
    <contour>
      <point x="520" y="289" type="line"/>
      <point x="520" y="390" type="line"/>
      <point x="51" y="390" type="line"/>
      <point x="51" y="289" type="line"/>
    </contour>
  </outline>
</glyph>
<glyph name="comma" format="1">
  <advance width="191"/>
  <unicode hex="002C"/>
  <note>
    comma
  </note>
  <outline>
    <contour>
      <point x="147" y="12" type="curve" smooth="yes"/>
      <point x="147" y="48"/>
      <point x="129" y="66"/>
      <point x="91" y="66" type="curve" smooth="yes"/>
      <point x="75" y="66"/>
      <point x="57" y="63"/>
      <point x="45" y="59" type="curve"/>
      <point x="45" y="8" type="line"/>
      <point x="84" y="8" type="line"/>
      <point x="83" y="-24"/>
      <point x="76" y="-44"/>
      <point x="60" y="-70" type="curve"/>
      <point x="109" y="-80" type="line"/>
      <point x="132" y="-54"/>
      <point x="147" y="-22"/>
    </contour>
  </outline>
</glyph>
<glyph name="hyphen" format="1">
  <advance width="314"/>
  <unicode hex="002D"/>
  <note>
    hyphen
  </note>
  <outline>
    <contour>
      <point x="267" y="155" type="line"/>
      <point x="267" y="224" type="line"/>
      <point x="47" y="224" type="line"/>
      <point x="47" y="155" type="line"/>
    </contour>
  </outline>
</glyph>
<glyph name="period" format="1">
  <advance width="192"/>
  <unicode hex="002E"/>
  <note>
    period
  </note>
  <outline>
    <contour>
      <point x="137" y="0" type="line"/>
      <point x="137" y="77" type="line"/>
      <point x="54" y="77" type="line"/>
      <point x="54" y="0" type="line"/>
    </contour>
  </outline>
</glyph>
<glyph name="slash" format="1">
  <advance width="356"/>
  <unicode hex="002F"/>
  <note>
    slash
  </note>
  <outline>
    <contour>
      <point x="306" y="466" type="line"/>
      <point x="239" y="483" type="line"/>
      <point x="49" y="-53" type="line"/>
      <point x="117" y="-71" type="line"/>
    </contour>
  </outline>
</glyph>
<glyph name="zero" format="1">
  <advance width="545"/>
  <unicode hex="0030"/>
  <outline>
    <contour>
      <point x="506" y="330" type="curve" smooth="yes"/>
      <point x="506" y="533"/>
      <point x="422" y="665"/>
      <point x="271" y="665" type="curve" smooth="yes"/>
      <point x="123" y="665"/>
      <point x="39" y="533"/>
      <point x="39" y="330" type="curve" smooth="yes"/>
      <point x="39" y="129"/>
      <point x="121" y="-8"/>
      <point x="271" y="-8" type="curve" smooth="yes"/>
      <point x="428" y="-8"/>
      <point x="506" y="132"/>
    </contour>
    <contour>
      <point x="154" y="330" type="curve" smooth="yes"/>
      <point x="154" y="485"/>
      <point x="204" y="563"/>
      <point x="271" y="563" type="curve" smooth="yes"/>
      <point x="343" y="563"/>
      <point x="392" y="485"/>
      <point x="392" y="330" type="curve" smooth="yes"/>
      <point x="392" y="176"/>
      <point x="347" y="94"/>
      <point x="271" y="94" type="curve" smooth="yes"/>
      <point x="201" y="94"/>
      <point x="154" y="176"/>
    </contour>
  </outline>
</glyph>
<glyph name="one" format="1">
  <advance width="351"/>
  <unicode hex="0031"/>
  <outline>
    <contour>
      <point x="283" y="0" type="line"/>
      <point x="283" y="654" type="line"/>
      <point x="183" y="654" type="line"/>
      <point x="14" y="554" type="line"/>
      <point x="14" y="437" type="line"/>
      <point x="172" y="533" type="line"/>
      <point x="172" y="0" type="line"/>
    </contour>
  </outline>
</glyph>
<glyph name="two" format="1">
  <advance width="497"/>
  <unicode hex="0032"/>
  <outline>
    <contour>
      <point x="442" y="462" type="curve" smooth="yes"/>
      <point x="442" y="594"/>
      <point x="348" y="662"/>
      <point x="227" y="662" type="curve" smooth="yes"/>
      <point x="163" y="662"/>
      <point x="93" y="638"/>
      <point x="50" y="605" type="curve"/>
      <point x="50" y="496" type="line"/>
      <point x="94" y="531"/>
      <point x="156" y="557"/>
      <point x="208" y="557" type="curve" smooth="yes"/>
      <point x="284" y="557"/>
      <point x="326" y="516"/>
      <point x="326" y="447" type="curve" smooth="yes"/>
      <point x="326" y="333"/>
      <point x="171" y="188"/>
      <point x="34" y="90" type="curve"/>
      <point x="79" y="22" type="line"/>
      <point x="300" y="160"/>
      <point x="442" y="313"/>
    </contour>
    <contour>
      <point x="458" y="0" type="line"/>
      <point x="458" y="96" type="line"/>
      <point x="170" y="96" type="line"/>
      <point x="34" y="90" type="line"/>
      <point x="34" y="0" type="line"/>
    </contour>
  </outline>
</glyph>
<glyph name="three" format="1">
  <advance width="474"/>
  <unicode hex="0033"/>
  <outline>
    <contour>
      <point x="431" y="180" type="curve" smooth="yes"/>
      <point x="431" y="282"/>
      <point x="356" y="339"/>
      <point x="246" y="336" type="curve"/>
      <point x="245" y="314" type="line"/>
      <point x="357" y="327"/>
      <point x="415" y="394"/>
      <point x="415" y="485" type="curve" smooth="yes"/>
      <point x="415" y="583"/>
      <point x="338" y="662"/>
      <point x="198" y="662" type="curve" smooth="yes"/>
      <point x="144" y="662"/>
      <point x="89" y="643"/>
      <point x="57" y="625" type="curve"/>
      <point x="57" y="519" type="line"/>
      <point x="91" y="541"/>
      <point x="145" y="561"/>
      <point x="193" y="561" type="curve" smooth="yes"/>
      <point x="256" y="561"/>
      <point x="300" y="534"/>
      <point x="300" y="472" type="curve" smooth="yes"/>
      <point x="300" y="410"/>
      <point x="241" y="378"/>
      <point x="173" y="378" type="curve"/>
      <point x="173" y="284" type="line"/>
      <point x="274" y="284"/>
      <point x="317" y="248"/>
      <point x="317" y="192" type="curve" smooth="yes"/>
      <point x="317" y="138"/>
      <point x="275" y="96"/>
      <point x="197" y="96" type="curve" smooth="yes"/>
      <point x="135" y="96"/>
      <point x="82" y="111"/>
      <point x="34" y="137" type="curve"/>
      <point x="34" y="28" type="line"/>
      <point x="79" y="7"/>
      <point x="147" y="-5"/>
      <point x="204" y="-5" type="curve" smooth="yes"/>
      <point x="352" y="-5"/>
      <point x="431" y="75"/>
    </contour>
    <contour>
      <point x="263" y="284" type="line"/>
      <point x="263" y="378" type="line"/>
      <point x="134" y="378" type="line"/>
      <point x="134" y="284" type="line"/>
    </contour>
  </outline>
</glyph>
<glyph name="four" format="1">
  <advance width="551"/>
  <unicode hex="0034"/>
  <outline>
    <contour>
      <point x="147" y="245" type="line"/>
      <point x="366" y="655" type="line"/>
      <point x="261" y="655" type="line"/>
      <point x="36" y="245" type="line"/>
    </contour>
    <contour>
      <point x="529" y="149" type="line"/>
      <point x="529" y="245" type="line"/>
      <point x="36" y="245" type="line"/>
      <point x="36" y="149" type="line"/>
    </contour>
    <contour>
      <point x="440" y="0" type="line"/>
      <point x="440" y="655" type="line"/>
      <point x="329" y="655" type="line"/>
      <point x="329" y="0" type="line"/>
    </contour>
  </outline>
</glyph>
<glyph name="five" format="1">
  <advance width="505"/>
  <unicode hex="0035"/>
  <outline>
    <contour>
      <point x="467" y="211" type="curve" smooth="yes"/>
      <point x="467" y="333"/>
      <point x="387" y="411"/>
      <point x="248" y="411" type="curve" smooth="yes"/>
      <point x="192" y="411"/>
      <point x="128" y="392"/>
      <point x="77" y="366" type="curve"/>
      <point x="77" y="279" type="line"/>
      <point x="111" y="295"/>
      <point x="170" y="313"/>
      <point x="227" y="313" type="curve" smooth="yes"/>
      <point x="304" y="313"/>
      <point x="352" y="277"/>
      <point x="352" y="214" type="curve" smooth="yes"/>
      <point x="352" y="137"/>
      <point x="302" y="95"/>
      <point x="201" y="95" type="curve" smooth="yes"/>
      <point x="146" y="95"/>
      <point x="85" y="112"/>
      <point x="47" y="135" type="curve"/>
      <point x="47" y="27" type="line"/>
      <point x="97" y="3"/>
      <point x="160" y="-7"/>
      <point x="219" y="-7" type="curve" smooth="yes"/>
      <point x="378" y="-7"/>
      <point x="467" y="81"/>
    </contour>
    <contour>
      <point x="187" y="343" type="line"/>
      <point x="187" y="614" type="line"/>
      <point x="77" y="614" type="line"/>
      <point x="77" y="343" type="line"/>
    </contour>
    <contour>
      <point x="424" y="559" type="line"/>
      <point x="424" y="655" type="line"/>
      <point x="77" y="655" type="line"/>
      <point x="77" y="559" type="line"/>
    </contour>
  </outline>
</glyph>
<glyph name="six" format="1">
  <advance width="531"/>
  <unicode hex="0036"/>
  <outline>
    <contour>
      <point x="501" y="212" type="curve" smooth="yes"/>
      <point x="501" y="339"/>
      <point x="426" y="422"/>
      <point x="309" y="422" type="curve" smooth="yes"/>
      <point x="224" y="422"/>
      <point x="151" y="372"/>
      <point x="121" y="306" type="curve"/>
      <point x="124" y="221" type="line"/>
      <point x="158" y="276"/>
      <point x="212" y="325"/>
      <point x="284" y="325" type="curve" smooth="yes"/>
      <point x="346" y="325"/>
      <point x="386" y="280"/>
      <point x="386" y="211" type="curve" smooth="yes"/>
      <point x="386" y="137"/>
      <point x="347" y="86"/>
      <point x="282" y="86" type="curve" smooth="yes"/>
      <point x="213" y="86"/>
      <point x="157" y="146"/>
      <point x="157" y="297" type="curve" smooth="yes"/>
      <point x="157" y="438"/>
      <point x="223" y="568"/>
      <point x="362" y="568" type="curve" smooth="yes"/>
      <point x="396" y="568"/>
      <point x="425" y="562"/>
      <point x="452" y="548" type="curve"/>
      <point x="452" y="654" type="line"/>
      <point x="426" y="663"/>
      <point x="392" y="670"/>
      <point x="355" y="670" type="curve" smooth="yes"/>
      <point x="167" y="670"/>
      <point x="44" y="516"/>
      <point x="44" y="297" type="curve" smooth="yes"/>
      <point x="44" y="116"/>
      <point x="121" y="-15"/>
      <point x="281" y="-15" type="curve" smooth="yes"/>
      <point x="418" y="-15"/>
      <point x="501" y="83"/>
    </contour>
  </outline>
</glyph>
<glyph name="seven" format="1">
  <advance width="465"/>
  <unicode hex="0037"/>
  <outline>
    <contour>
      <point x="187" y="0" type="line"/>
      <point x="449" y="558" type="line"/>
      <point x="331" y="558" type="line"/>
      <point x="68" y="0" type="line"/>
    </contour>
    <contour>
      <point x="449" y="558" type="line"/>
      <point x="449" y="655" type="line"/>
      <point x="16" y="655" type="line"/>
      <point x="16" y="558" type="line"/>
    </contour>
  </outline>
</glyph>
<glyph name="eight" format="1">
  <advance width="540"/>
  <unicode hex="0038"/>
  <outline>
    <contour>
      <point x="497" y="176" type="curve" smooth="yes"/>
      <point x="497" y="305"/>
      <point x="393" y="350"/>
      <point x="267" y="350" type="curve" smooth="yes"/>
      <point x="144" y="350"/>
      <point x="43" y="292"/>
      <point x="43" y="171" type="curve" smooth="yes"/>
      <point x="43" y="60"/>
      <point x="136" y="-9"/>
      <point x="267" y="-9" type="curve" smooth="yes"/>
      <point x="399" y="-9"/>
      <point x="497" y="63"/>
    </contour>
    <contour>
      <point x="156" y="175" type="curve" smooth="yes"/>
      <point x="156" y="226"/>
      <point x="188" y="277"/>
      <point x="268" y="278" type="curve"/>
      <point x="348" y="278"/>
      <point x="384" y="232"/>
      <point x="384" y="180" type="curve" smooth="yes"/>
      <point x="384" y="131"/>
      <point x="349" y="84"/>
      <point x="268" y="84" type="curve" smooth="yes"/>
      <point x="189" y="84"/>
      <point x="156" y="128"/>
    </contour>
    <contour>
      <point x="167" y="475" type="curve" smooth="yes"/>
      <point x="167" y="525"/>
      <point x="199" y="571"/>
      <point x="267" y="571" type="curve" smooth="yes"/>
      <point x="345" y="571"/>
      <point x="371" y="525"/>
      <point x="371" y="476" type="curve" smooth="yes"/>
      <point x="371" y="411"/>
      <point x="325" y="378"/>
      <point x="271" y="378" type="curve" smooth="yes"/>
      <point x="214" y="378"/>
      <point x="167" y="409"/>
    </contour>
    <contour>
      <point x="484" y="473" type="curve" smooth="yes"/>
      <point x="484" y="605"/>
      <point x="383" y="664"/>
      <point x="267" y="664" type="curve" smooth="yes"/>
      <point x="153" y="664"/>
      <point x="53" y="598"/>
      <point x="53" y="474" type="curve" smooth="yes"/>
      <point x="53" y="368"/>
      <point x="144" y="304"/>
      <point x="267" y="304" type="curve" smooth="yes"/>
      <point x="392" y="304"/>
      <point x="484" y="369"/>
    </contour>
  </outline>
</glyph>
<glyph name="nine" format="1">
  <advance width="518"/>
  <unicode hex="0039"/>
  <outline>
    <contour>
      <point x="480" y="361" type="curve" smooth="yes"/>
      <point x="480" y="535"/>
      <point x="401" y="663"/>
      <point x="244" y="663" type="curve" smooth="yes"/>
      <point x="107" y="663"/>
      <point x="28" y="564"/>
      <point x="28" y="441" type="curve" smooth="yes"/>
      <point x="28" y="311"/>
      <point x="116" y="231"/>
      <point x="225" y="231" type="curve" smooth="yes"/>
      <point x="317" y="231"/>
      <point x="364" y="265"/>
      <point x="397" y="334" type="curve"/>
      <point x="393" y="418" type="line"/>
      <point x="364" y="364"/>
      <point x="324" y="325"/>
      <point x="253" y="325" type="curve" smooth="yes"/>
      <point x="186" y="325"/>
      <point x="143" y="370"/>
      <point x="143" y="443" type="curve" smooth="yes"/>
      <point x="143" y="517"/>
      <point x="185" y="561"/>
      <point x="249" y="561" type="curve" smooth="yes"/>
      <point x="327" y="561"/>
      <point x="369" y="488"/>
      <point x="369" y="361" type="curve" smooth="yes"/>
      <point x="369" y="187"/>
      <point x="311" y="94"/>
      <point x="172" y="94" type="curve" smooth="yes"/>
      <point x="135" y="94"/>
      <point x="95" y="105"/>
      <point x="65" y="119" type="curve"/>
      <point x="65" y="11" type="line"/>
      <point x="96" y="0"/>
      <point x="138" y="-8"/>
      <point x="182" y="-8" type="curve" smooth="yes"/>
      <point x="369" y="-8"/>
      <point x="480" y="121"/>
    </contour>
  </outline>
</glyph>
<glyph name="colon" format="1">
  <advance width="192"/>
  <unicode hex="003A"/>
  <note>
    colon
  </note>
  <outline>
    <contour>
      <point x="137" y="233" type="line"/>
      <point x="137" y="310" type="line"/>
      <point x="54" y="310" type="line"/>
      <point x="54" y="233" type="line"/>
    </contour>
    <contour>
      <point x="137" y="6" type="line"/>
      <point x="137" y="83" type="line"/>
      <point x="54" y="83" type="line"/>
      <point x="54" y="6" type="line"/>
    </contour>
  </outline>
</glyph>
<glyph name="semicolon" format="1">
  <advance width="211"/>
  <unicode hex="003B"/>
  <note>
    semicolon
  </note>
  <outline>
    <contour>
      <point x="157" y="50" type="curve" smooth="yes"/>
      <point x="157" y="86"/>
      <point x="138" y="104"/>
      <point x="101" y="104" type="curve" smooth="yes"/>
      <point x="84" y="104"/>
      <point x="67" y="101"/>
      <point x="54" y="97" type="curve"/>
      <point x="54" y="46" type="line"/>
      <point x="94" y="46" type="line"/>
      <point x="92" y="14"/>
      <point x="85" y="-7"/>
      <point x="70" y="-32" type="curve"/>
      <point x="118" y="-42" type="line"/>
      <point x="142" y="-17"/>
      <point x="157" y="16"/>
    </contour>
    <contour>
      <point x="143" y="233" type="line"/>
      <point x="143" y="310" type="line"/>
      <point x="60" y="310" type="line"/>
      <point x="60" y="233" type="line"/>
    </contour>
  </outline>
</glyph>
<glyph name="less" format="1">
  <advance width="557"/>
  <unicode hex="003C"/>
  <outline>
    <contour>
      <point x="510" y="216" type="line"/>
      <point x="165" y="341" type="line"/>
      <point x="510" y="465" type="line"/>
      <point x="510" y="577" type="line"/>
      <point x="51" y="394" type="line"/>
      <point x="51" y="287" type="line"/>
      <point x="510" y="104" type="line"/>
    </contour>
  </outline>
</glyph>
<glyph name="equal" format="1">
  <advance width="571"/>
  <unicode hex="003D"/>
  <outline>
    <contour>
      <point x="520" y="400" type="line"/>
      <point x="520" y="494" type="line"/>
      <point x="51" y="494" type="line"/>
      <point x="51" y="400" type="line"/>
    </contour>
    <contour>
      <point x="520" y="186" type="line"/>
      <point x="520" y="280" type="line"/>
      <point x="51" y="280" type="line"/>
      <point x="51" y="186" type="line"/>
    </contour>
  </outline>
</glyph>
<glyph name="greater" format="1">
  <advance width="557"/>
  <unicode hex="003E"/>
  <outline>
    <contour>
      <point x="506" y="287" type="line"/>
      <point x="506" y="394" type="line"/>
      <point x="47" y="577" type="line"/>
      <point x="47" y="465" type="line"/>
      <point x="393" y="341" type="line"/>
      <point x="47" y="216" type="line"/>
      <point x="47" y="104" type="line"/>
    </contour>
  </outline>
</glyph>
<glyph name="question" format="1">
  <advance width="483"/>
  <unicode hex="003F"/>
  <note>
    question
  </note>
  <outline>
    <contour>
      <point x="259" y="115" type="line"/>
      <point x="259" y="156" type="line" smooth="yes"/>
      <point x="259" y="173"/>
      <point x="259" y="179"/>
      <point x="271" y="187" type="curve" smooth="yes"/>
      <point x="349" y="241" type="line" smooth="yes"/>
      <point x="384" y="267"/>
      <point x="393" y="294"/>
      <point x="393" y="337" type="curve" smooth="yes"/>
      <point x="393" y="414"/>
      <point x="344" y="454"/>
      <point x="245" y="454" type="curve" smooth="yes"/>
      <point x="181" y="454"/>
      <point x="126" y="438"/>
      <point x="90" y="420" type="curve"/>
      <point x="90" y="405" type="line" smooth="yes"/>
      <point x="90" y="381"/>
      <point x="94" y="352"/>
      <point x="100" y="331" type="curve"/>
      <point x="160" y="331" type="line"/>
      <point x="160" y="373" type="line"/>
      <point x="187" y="382"/>
      <point x="211" y="385"/>
      <point x="243" y="385" type="curve" smooth="yes"/>
      <point x="295" y="385"/>
      <point x="319" y="372"/>
      <point x="319" y="330" type="curve" smooth="yes"/>
      <point x="319" y="297" type="line"/>
      <point x="207" y="218" type="line" smooth="yes"/>
      <point x="190" y="205"/>
      <point x="185" y="195"/>
      <point x="185" y="174" type="curve" smooth="yes"/>
      <point x="185" y="115" type="line"/>
    </contour>
    <contour>
      <point x="260" y="0" type="line"/>
      <point x="260" y="74" type="line"/>
      <point x="183" y="74" type="line"/>
      <point x="183" y="0" type="line"/>
    </contour>
  </outline>
</glyph>
<glyph name="at" format="1">
  <advance width="941"/>
  <unicode hex="0040"/>
  <outline>
    <contour>
      <point x="626" y="-154" type="curve"/>
      <point x="630" y="-54" type="line"/>
      <point x="569" y="-86"/>
      <point x="501" y="-99"/>
      <point x="441" y="-99" type="curve" smooth="yes"/>
      <point x="288" y="-99"/>
      <point x="152" y="3"/>
      <point x="152" y="196" type="curve" smooth="yes"/>
      <point x="152" y="388"/>
      <point x="301" y="549"/>
      <point x="501" y="549" type="curve" smooth="yes"/>
      <point x="668" y="549"/>
      <point x="805" y="456"/>
      <point x="805" y="263" type="curve" smooth="yes"/>
      <point x="805" y="162"/>
      <point x="765" y="99"/>
      <point x="714" y="99" type="curve" smooth="yes"/>
      <point x="675" y="99"/>
      <point x="655" y="130"/>
      <point x="655" y="203" type="curve" smooth="yes"/>
      <point x="655" y="226"/>
      <point x="658" y="266"/>
      <point x="663" y="346" type="curve" smooth="yes"/>
      <point x="671" y="426" type="line"/>
      <point x="580" y="426" type="line"/>
      <point x="574" y="322"/>
      <point x="566" y="245"/>
      <point x="566" y="171" type="curve" smooth="yes"/>
      <point x="566" y="109"/>
      <point x="592" y="10"/>
      <point x="710" y="10" type="curve" smooth="yes"/>
      <point x="806" y="10"/>
      <point x="900" y="108"/>
      <point x="900" y="270" type="curve" smooth="yes"/>
      <point x="900" y="501"/>
      <point x="715" y="641"/>
      <point x="505" y="641" type="curve" smooth="yes"/>
      <point x="256" y="641"/>
      <point x="50" y="451"/>
      <point x="50" y="198" type="curve" smooth="yes"/>
      <point x="50" y="-16"/>
      <point x="191" y="-192"/>
      <point x="441" y="-192" type="curve" smooth="yes"/>
      <point x="496" y="-192"/>
      <point x="568" y="-182"/>
    </contour>
    <contour>
      <point x="593" y="161" type="curve"/>
      <point x="569" y="207" type="line"/>
      <point x="553" y="132"/>
      <point x="501" y="94"/>
      <point x="452" y="94" type="curve" smooth="yes"/>
      <point x="400" y="94"/>
      <point x="359" y="135"/>
      <point x="359" y="202" type="curve" smooth="yes"/>
      <point x="359" y="288"/>
      <point x="408" y="345"/>
      <point x="470" y="345" type="curve" smooth="yes"/>
      <point x="528" y="345"/>
      <point x="563" y="304"/>
      <point x="570" y="230" type="curve"/>
      <point x="605" y="270" type="line"/>
      <point x="590" y="375"/>
      <point x="538" y="429"/>
      <point x="457" y="429" type="curve" smooth="yes"/>
      <point x="349" y="429"/>
      <point x="258" y="339"/>
      <point x="258" y="207" type="curve" smooth="yes"/>
      <point x="258" y="99"/>
      <point x="318" y="10"/>
      <point x="425" y="10" type="curve" smooth="yes"/>
      <point x="507" y="10"/>
      <point x="571" y="64"/>
    </contour>
  </outline>
</glyph>
<glyph name="A" format="1">
  <advance width="669"/>
  <unicode hex="0041"/>
  <outline>
    <contour>
      <point x="152" y="0" type="line"/>
      <point x="243" y="285" type="line" smooth="yes"/>
      <point x="324" y="537"/>
      <point x="334" y="586"/>
      <point x="334" y="586" type="curve"/>
      <point x="334" y="586"/>
      <point x="344" y="537"/>
      <point x="424" y="286" type="curve" smooth="yes"/>
      <point x="514" y="0" type="line"/>
      <point x="640" y="0" type="line"/>
      <point x="412" y="674" type="line"/>
      <point x="259" y="674" type="line"/>
      <point x="29" y="0" type="line"/>
    </contour>
    <contour>
      <point x="507" y="158" type="line"/>
      <point x="507" y="254" type="line"/>
      <point x="173" y="254" type="line"/>
      <point x="173" y="158" type="line"/>
    </contour>
  </outline>
</glyph>
<glyph name="C" format="1">
  <advance width="607"/>
  <unicode hex="0043"/>
  <outline>
    <contour>
      <point x="561" y="32" type="curve"/>
      <point x="561" y="150" type="line"/>
      <point x="519" y="119"/>
      <point x="457" y="100"/>
      <point x="399" y="100" type="curve" smooth="yes"/>
      <point x="263" y="100"/>
      <point x="169" y="190"/>
      <point x="169" y="337" type="curve" smooth="yes"/>
      <point x="169" y="484"/>
      <point x="268" y="575"/>
      <point x="392" y="575" type="curve" smooth="yes"/>
      <point x="463" y="575"/>
      <point x="505" y="564"/>
      <point x="561" y="531" type="curve"/>
      <point x="561" y="646" type="line"/>
      <point x="509" y="676"/>
      <point x="445" y="683"/>
      <point x="388" y="683" type="curve" smooth="yes"/>
      <point x="188" y="683"/>
      <point x="44" y="543"/>
      <point x="44" y="337" type="curve" smooth="yes"/>
      <point x="44" y="125"/>
      <point x="192" y="-8"/>
      <point x="389" y="-8" type="curve" smooth="yes"/>
      <point x="443" y="-8"/>
      <point x="512" y="0"/>
    </contour>
  </outline>
</glyph>
<glyph name="E" format="1">
  <advance width="522"/>
  <unicode hex="0045"/>
  <outline>
    <contour>
      <point x="189" y="0" type="line"/>
      <point x="189" y="674" type="line"/>
      <point x="71" y="674" type="line"/>
      <point x="71" y="0" type="line"/>
    </contour>
    <contour>
      <point x="468" y="0" type="line"/>
      <point x="468" y="97" type="line"/>
      <point x="109" y="97" type="line"/>
      <point x="109" y="0" type="line"/>
    </contour>
    <contour>
      <point x="433" y="289" type="line"/>
      <point x="433" y="385" type="line"/>
      <point x="109" y="385" type="line"/>
      <point x="109" y="289" type="line"/>
    </contour>
    <contour>
      <point x="464" y="577" type="line"/>
      <point x="464" y="674" type="line"/>
      <point x="109" y="674" type="line"/>
      <point x="109" y="577" type="line"/>
    </contour>
  </outline>
</glyph>
<glyph name="F" format="1">
  <advance width="497"/>
  <unicode hex="0046"/>
  <outline>
    <contour>
      <point x="189" y="0" type="line"/>
      <point x="189" y="674" type="line"/>
      <point x="71" y="674" type="line"/>
      <point x="71" y="0" type="line"/>
    </contour>
    <contour>
      <point x="427" y="274" type="line"/>
      <point x="427" y="370" type="line"/>
      <point x="109" y="370" type="line"/>
      <point x="109" y="274" type="line"/>
    </contour>
    <contour>
      <point x="461" y="577" type="line"/>
      <point x="461" y="674" type="line"/>
      <point x="109" y="674" type="line"/>
      <point x="109" y="577" type="line"/>
    </contour>
  </outline>
</glyph>
<glyph name="H" format="1">
  <advance width="664"/>
  <unicode hex="0048"/>
  <outline>
    <contour>
      <point x="593" y="0" type="line"/>
      <point x="593" y="674" type="line"/>
      <point x="476" y="674" type="line"/>
      <point x="476" y="0" type="line"/>
    </contour>
    <contour>
      <point x="188" y="0" type="line"/>
      <point x="188" y="674" type="line"/>
      <point x="71" y="674" type="line"/>
      <point x="71" y="0" type="line"/>
    </contour>
    <contour>
      <point x="520" y="287" type="line"/>
      <point x="520" y="389" type="line"/>
      <point x="132" y="389" type="line"/>
      <point x="132" y="287" type="line"/>
    </contour>
  </outline>
</glyph>
<glyph name="J" format="1">
  <advance width="375"/>
  <unicode hex="004A"/>
  <outline>
    <contour>
      <point x="307" y="188" type="curve"/>
      <point x="307" y="673" type="line"/>
      <point x="190" y="673" type="line"/>
      <point x="190" y="187" type="line" smooth="yes"/>
      <point x="190" y="129"/>
      <point x="162" y="103"/>
      <point x="111" y="103" type="curve" smooth="yes"/>
      <point x="81" y="103"/>
      <point x="52" y="113"/>
      <point x="30" y="127" type="curve"/>
      <point x="30" y="21" type="line"/>
      <point x="55" y="7"/>
      <point x="98" y="-1"/>
      <point x="131" y="-1" type="curve" smooth="yes"/>
      <point x="236" y="-1"/>
      <point x="307" y="58"/>
    </contour>
  </outline>
</glyph>
<glyph name="K" format="1">
  <advance width="617"/>
  <unicode hex="004B"/>
  <outline>
    <contour>
      <point x="595" y="0" type="line"/>
      <point x="339" y="335" type="line"/>
      <point x="200" y="334" type="line"/>
      <point x="446" y="0" type="line"/>
    </contour>
    <contour>
      <point x="188" y="0" type="line"/>
      <point x="188" y="674" type="line"/>
      <point x="71" y="674" type="line"/>
      <point x="71" y="0" type="line"/>
    </contour>
    <contour>
      <point x="339" y="335" type="line"/>
      <point x="578" y="674" type="line"/>
      <point x="437" y="674" type="line"/>
      <point x="200" y="334" type="line"/>
    </contour>
  </outline>
</glyph>
<glyph name="L" format="1">
  <advance width="482"/>
  <unicode hex="004C"/>
  <outline>
    <contour>
      <point x="188" y="0" type="line"/>
      <point x="188" y="674" type="line"/>
      <point x="71" y="674" type="line"/>
      <point x="71" y="0" type="line"/>
    </contour>
    <contour>
      <point x="456" y="0" type="line"/>
      <point x="456" y="104" type="line"/>
      <point x="109" y="104" type="line"/>
      <point x="109" y="0" type="line"/>
    </contour>
  </outline>
</glyph>
<glyph name="M" format="1">
  <advance width="875"/>
  <unicode hex="004D"/>
  <outline>
    <contour>
      <point x="177" y="0" type="line"/>
      <point x="197" y="263" type="line" smooth="yes"/>
      <point x="205" y="373"/>
      <point x="211" y="474"/>
      <point x="211" y="509" type="curve"/>
      <point x="211" y="509"/>
      <point x="241" y="414"/>
      <point x="295" y="263" type="curve" smooth="yes"/>
      <point x="387" y="11" type="line"/>
      <point x="470" y="11" type="line"/>
      <point x="565" y="263" type="line" smooth="yes"/>
      <point x="616" y="400"/>
      <point x="655" y="512"/>
      <point x="655" y="512" type="curve"/>
      <point x="655" y="512"/>
      <point x="662" y="400"/>
      <point x="674" y="263" type="curve" smooth="yes"/>
      <point x="698" y="0" type="line"/>
      <point x="815" y="0" type="line"/>
      <point x="751" y="674" type="line"/>
      <point x="615" y="674" type="line"/>
      <point x="521" y="429" type="line" smooth="yes"/>
      <point x="466" y="285"/>
      <point x="429" y="169"/>
      <point x="429" y="169" type="curve"/>
      <point x="429" y="169"/>
      <point x="393" y="288"/>
      <point x="341" y="429" type="curve" smooth="yes"/>
      <point x="249" y="674" type="line"/>
      <point x="114" y="674" type="line"/>
      <point x="60" y="0" type="line"/>
    </contour>
  </outline>
</glyph>
<glyph name="N" format="1">
  <advance width="685"/>
  <unicode hex="004E"/>
  <outline>
    <contour>
      <point x="188" y="0" type="line"/>
      <point x="188" y="281" type="line" smooth="yes"/>
      <point x="188" y="436"/>
      <point x="178" y="533"/>
      <point x="178" y="533" type="curve"/>
      <point x="178" y="533"/>
      <point x="221" y="437"/>
      <point x="314" y="281" type="curve" smooth="yes"/>
      <point x="479" y="0" type="line"/>
      <point x="614" y="0" type="line"/>
      <point x="614" y="674" type="line"/>
      <point x="497" y="674" type="line"/>
      <point x="497" y="392" type="line" smooth="yes"/>
      <point x="497" y="229"/>
      <point x="504" y="143"/>
      <point x="504" y="143" type="curve"/>
      <point x="504" y="143"/>
      <point x="466" y="228"/>
      <point x="369" y="393" type="curve" smooth="yes"/>
      <point x="206" y="674" type="line"/>
      <point x="71" y="674" type="line"/>
      <point x="71" y="0" type="line"/>
    </contour>
  </outline>
</glyph>
<glyph name="P" format="1">
  <advance width="554"/>
  <unicode hex="0050"/>
  <outline>
    <contour>
      <point x="279" y="233" type="line"/>
      <point x="421" y="233"/>
      <point x="527" y="317"/>
      <point x="527" y="454" type="curve"/>
      <point x="527" y="580"/>
      <point x="431" y="674"/>
      <point x="275" y="674" type="curve" smooth="yes"/>
      <point x="71" y="674" type="line"/>
      <point x="71" y="578" type="line"/>
      <point x="267" y="578" type="line" smooth="yes"/>
      <point x="362" y="578"/>
      <point x="408" y="529"/>
      <point x="408" y="454" type="curve" smooth="yes"/>
      <point x="408" y="381"/>
      <point x="363" y="328"/>
      <point x="266" y="328" type="curve" smooth="yes"/>
      <point x="71" y="328" type="line"/>
      <point x="71" y="233" type="line"/>
    </contour>
    <contour>
      <point x="188" y="0" type="line"/>
      <point x="188" y="674" type="line"/>
      <point x="71" y="674" type="line"/>
      <point x="71" y="0" type="line"/>
    </contour>
  </outline>
</glyph>
<glyph name="Q" format="1">
  <advance width="725"/>
  <unicode hex="0051"/>
  <outline>
    <contour>
      <point x="674" y="339" type="curve" smooth="yes"/>
      <point x="674" y="548"/>
      <point x="555" y="686"/>
      <point x="359" y="686" type="curve" smooth="yes"/>
      <point x="166" y="686"/>
      <point x="44" y="548"/>
      <point x="44" y="339" type="curve" smooth="yes"/>
      <point x="44" y="130"/>
      <point x="168" y="-7"/>
      <point x="360" y="-7" type="curve" smooth="yes"/>
      <point x="552" y="-7"/>
      <point x="674" y="131"/>
    </contour>
    <contour>
      <point x="710" y="-95" type="line"/>
      <point x="444" y="62" type="line"/>
      <point x="327" y="32" type="line"/>
      <point x="579" y="-146" type="line"/>
    </contour>
    <contour>
      <point x="169" y="339" type="curve" smooth="yes"/>
      <point x="169" y="487"/>
      <point x="241" y="578"/>
      <point x="359" y="578" type="curve" smooth="yes"/>
      <point x="479" y="578"/>
      <point x="549" y="487"/>
      <point x="549" y="339" type="curve" smooth="yes"/>
      <point x="549" y="192"/>
      <point x="479" y="101"/>
      <point x="360" y="101" type="curve" smooth="yes"/>
      <point x="244" y="101"/>
      <point x="169" y="192"/>
    </contour>
  </outline>
</glyph>
<glyph name="R" format="1">
  <advance width="581"/>
  <unicode hex="0052"/>
  <outline>
    <contour>
      <point x="276" y="250" type="line" smooth="yes"/>
      <point x="414" y="250"/>
      <point x="514" y="323"/>
      <point x="516" y="462" type="curve"/>
      <point x="516" y="589"/>
      <point x="427" y="674"/>
      <point x="272" y="674" type="curve" smooth="yes"/>
      <point x="71" y="674" type="line"/>
      <point x="71" y="577" type="line"/>
      <point x="273" y="577" type="line" smooth="yes"/>
      <point x="354" y="577"/>
      <point x="397" y="536"/>
      <point x="397" y="463" type="curve" smooth="yes"/>
      <point x="397" y="394"/>
      <point x="359" y="347"/>
      <point x="276" y="347" type="curve" smooth="yes"/>
      <point x="71" y="347" type="line"/>
      <point x="71" y="250" type="line"/>
    </contour>
    <contour>
      <point x="188" y="0" type="line"/>
      <point x="188" y="674" type="line"/>
      <point x="71" y="674" type="line"/>
      <point x="71" y="0" type="line"/>
    </contour>
    <contour>
      <point x="560" y="0" type="line"/>
      <point x="354" y="318" type="line"/>
      <point x="222" y="318" type="line"/>
      <point x="420" y="0" type="line"/>
    </contour>
  </outline>
</glyph>
<glyph name="S" format="1">
  <advance width="519"/>
  <unicode hex="0053"/>
  <outline>
    <contour>
      <point x="475" y="187" type="curve" smooth="yes"/>
      <point x="475" y="307"/>
      <point x="382" y="351"/>
      <point x="297" y="388" type="curve" smooth="yes"/>
      <point x="232" y="417"/>
      <point x="178" y="443"/>
      <point x="178" y="496" type="curve" smooth="yes"/>
      <point x="178" y="542"/>
      <point x="217" y="576"/>
      <point x="285" y="576" type="curve" smooth="yes"/>
      <point x="339" y="576"/>
      <point x="399" y="558"/>
      <point x="442" y="532" type="curve"/>
      <point x="442" y="646" type="line"/>
      <point x="394" y="670"/>
      <point x="334" y="679"/>
      <point x="281" y="679" type="curve" smooth="yes"/>
      <point x="145" y="679"/>
      <point x="53" y="606"/>
      <point x="53" y="490" type="curve" smooth="yes"/>
      <point x="53" y="375"/>
      <point x="142" y="331"/>
      <point x="223" y="295" type="curve" smooth="yes"/>
      <point x="294" y="262"/>
      <point x="352" y="239"/>
      <point x="352" y="183" type="curve" smooth="yes"/>
      <point x="352" y="128"/>
      <point x="308" y="95"/>
      <point x="243" y="95" type="curve" smooth="yes"/>
      <point x="178" y="95"/>
      <point x="112" y="115"/>
      <point x="57" y="156" type="curve"/>
      <point x="57" y="35" type="line"/>
      <point x="106" y="7"/>
      <point x="177" y="-8"/>
      <point x="244" y="-8" type="curve" smooth="yes"/>
      <point x="379" y="-8"/>
      <point x="475" y="66"/>
    </contour>
  </outline>
</glyph>
<glyph name="T" format="1">
  <advance width="512"/>
  <unicode hex="0054"/>
  <outline>
    <contour>
      <point x="315" y="0" type="line"/>
      <point x="315" y="661" type="line"/>
      <point x="197" y="661" type="line"/>
      <point x="197" y="0" type="line"/>
    </contour>
    <contour>
      <point x="488" y="577" type="line"/>
      <point x="488" y="674" type="line"/>
      <point x="24" y="674" type="line"/>
      <point x="24" y="577" type="line"/>
    </contour>
  </outline>
</glyph>
<glyph name="U" format="1">
  <advance width="656"/>
  <unicode hex="0055"/>
  <outline>
    <contour>
      <point x="588" y="259" type="curve" smooth="yes"/>
      <point x="588" y="674" type="line"/>
      <point x="471" y="674" type="line"/>
      <point x="471" y="257" type="line"/>
      <point x="471" y="137"/>
      <point x="410" y="99"/>
      <point x="328" y="99" type="curve" smooth="yes"/>
      <point x="249" y="99"/>
      <point x="185" y="138"/>
      <point x="185" y="252" type="curve" smooth="yes"/>
      <point x="185" y="674" type="line"/>
      <point x="68" y="674" type="line"/>
      <point x="68" y="251" type="line" smooth="yes"/>
      <point x="68" y="80"/>
      <point x="172" y="-9"/>
      <point x="328" y="-9" type="curve" smooth="yes"/>
      <point x="485" y="-9"/>
      <point x="588" y="80"/>
    </contour>
  </outline>
</glyph>
<glyph name="V" format="1">
  <advance width="648"/>
  <unicode hex="0056"/>
  <outline>
    <contour>
      <point x="389" y="0" type="line"/>
      <point x="620" y="674" type="line"/>
      <point x="495" y="674" type="line"/>
      <point x="410" y="406" type="line" smooth="yes"/>
      <point x="350" y="221"/>
      <point x="323" y="105"/>
      <point x="323" y="105" type="curve"/>
      <point x="323" y="105"/>
      <point x="297" y="221"/>
      <point x="238" y="406" type="curve" smooth="yes"/>
      <point x="154" y="674" type="line"/>
      <point x="27" y="674" type="line"/>
      <point x="253" y="0" type="line"/>
    </contour>
  </outline>
</glyph>
<glyph name="W" format="1">
  <advance width="954"/>
  <unicode hex="0057"/>
  <outline>
    <contour>
      <point x="343" y="0" type="line"/>
      <point x="406" y="213" type="line" smooth="yes"/>
      <point x="464" y="409"/>
      <point x="481" y="489"/>
      <point x="481" y="489" type="curve"/>
      <point x="481" y="489"/>
      <point x="500" y="410"/>
      <point x="558" y="213" type="curve" smooth="yes"/>
      <point x="620" y="0" type="line"/>
      <point x="758" y="0" type="line"/>
      <point x="927" y="674" type="line"/>
      <point x="808" y="674" type="line"/>
      <point x="748" y="425" type="line" smooth="yes"/>
      <point x="713" y="280"/>
      <point x="683" y="124"/>
      <point x="683" y="124" type="curve"/>
      <point x="683" y="124"/>
      <point x="639" y="285"/>
      <point x="599" y="425" type="curve" smooth="yes"/>
      <point x="529" y="664" type="line"/>
      <point x="431" y="664" type="line"/>
      <point x="363" y="425" type="line" smooth="yes"/>
      <point x="318" y="268"/>
      <point x="281" y="126"/>
      <point x="281" y="126" type="curve"/>
      <point x="281" y="126"/>
      <point x="248" y="283"/>
      <point x="213" y="425" type="curve" smooth="yes"/>
      <point x="151" y="674" type="line"/>
      <point x="27" y="674" type="line"/>
      <point x="206" y="0" type="line"/>
    </contour>
  </outline>
</glyph>
<glyph name="X" format="1">
  <advance width="638"/>
  <unicode hex="0058"/>
  <outline>
    <contour>
      <point x="173" y="0" type="line"/>
      <point x="317" y="241" type="line"/>
      <point x="466" y="0" type="line"/>
      <point x="605" y="0" type="line"/>
      <point x="383" y="341" type="line"/>
      <point x="587" y="674" type="line"/>
      <point x="445" y="674" type="line"/>
      <point x="314" y="445" type="line"/>
      <point x="180" y="674" type="line"/>
      <point x="44" y="674" type="line"/>
      <point x="248" y="341" type="line"/>
      <point x="33" y="0" type="line"/>
    </contour>
  </outline>
</glyph>
<glyph name="Z" format="1">
  <advance width="595"/>
  <unicode hex="005A"/>
  <outline>
    <contour>
      <point x="539" y="0" type="line"/>
      <point x="539" y="96" type="line"/>
      <point x="195" y="96" type="line"/>
      <point x="525" y="587" type="line"/>
      <point x="525" y="674" type="line"/>
      <point x="61" y="674" type="line"/>
      <point x="61" y="578" type="line"/>
      <point x="385" y="578" type="line"/>
      <point x="56" y="90" type="line"/>
      <point x="56" y="0" type="line"/>
    </contour>
  </outline>
</glyph>
<glyph name="bracketleft" format="1">
  <advance width="226"/>
  <unicode hex="005B"/>
  <note>
    bracketleft
  </note>
  <outline>
    <contour>
      <point x="174" y="-62" type="line"/>
      <point x="174" y="8" type="line"/>
      <point x="128" y="8" type="line"/>
      <point x="128" y="443" type="line"/>
      <point x="174" y="443" type="line"/>
      <point x="174" y="513" type="line"/>
      <point x="54" y="513" type="line"/>
      <point x="54" y="-62" type="line"/>
    </contour>
  </outline>
</glyph>
<glyph name="backslash" format="1">
  <advance width="325"/>
  <unicode hex="005C"/>
  <note>
    backslash
  </note>
  <outline>
    <contour>
      <point x="283" y="1" type="line"/>
      <point x="107" y="462" type="line"/>
      <point x="42" y="447" type="line"/>
      <point x="219" y="-16" type="line"/>
    </contour>
  </outline>
</glyph>
<glyph name="bracketright" format="1">
  <advance width="226"/>
  <unicode hex="005D"/>
  <note>
    bracketright
  </note>
  <outline>
    <contour>
      <point x="172" y="-62" type="line"/>
      <point x="172" y="513" type="line"/>
      <point x="52" y="513" type="line"/>
      <point x="52" y="443" type="line"/>
      <point x="98" y="443" type="line"/>
      <point x="98" y="8" type="line"/>
      <point x="52" y="8" type="line"/>
      <point x="52" y="-62" type="line"/>
    </contour>
  </outline>
</glyph>
<glyph name="asciicircum" format="1">
  <advance width="476"/>
  <unicode hex="005E"/>
  <outline>
    <contour>
      <point x="146" y="332" type="line"/>
      <point x="283" y="594" type="line"/>
      <point x="186" y="594" type="line"/>
      <point x="39" y="332" type="line"/>
    </contour>
    <contour>
      <point x="437" y="332" type="line"/>
      <point x="292" y="594" type="line"/>
      <point x="194" y="594" type="line"/>
      <point x="330" y="332" type="line"/>
    </contour>
  </outline>
</glyph>
<glyph name="grave" format="1">
  <advance width="460"/>
  <unicode hex="0060"/>
  <outline>
    <contour>
      <point x="337" y="632" type="line"/>
      <point x="244" y="798" type="line"/>
      <point x="124" y="798" type="line"/>
      <point x="242" y="632" type="line"/>
    </contour>
  </outline>
</glyph>
<glyph name="a" format="1">
  <advance width="504"/>
  <unicode hex="0061"/>
  <outline>
    <contour>
      <point x="333" y="61" type="curve"/>
      <point x="333" y="0" type="line"/>
      <point x="443" y="0" type="line"/>
      <point x="443" y="323" type="line" smooth="yes"/>
      <point x="443" y="450"/>
      <point x="380" y="516"/>
      <point x="240" y="516" type="curve" smooth="yes"/>
      <point x="173" y="516"/>
      <point x="111" y="500"/>
      <point x="79" y="481" type="curve"/>
      <point x="79" y="376" type="line"/>
      <point x="117" y="402"/>
      <point x="173" y="421"/>
      <point x="227" y="421" type="curve" smooth="yes"/>
      <point x="304" y="421"/>
      <point x="329" y="385"/>
      <point x="329" y="328" type="curve" smooth="yes"/>
      <point x="329" y="170" type="line"/>
      <point x="329" y="118"/>
      <point x="295" y="80"/>
      <point x="237" y="80" type="curve" smooth="yes"/>
      <point x="184" y="80"/>
      <point x="158" y="108"/>
      <point x="158" y="149" type="curve" smooth="yes"/>
      <point x="158" y="188"/>
      <point x="190" y="221"/>
      <point x="261" y="221" type="curve" smooth="yes"/>
      <point x="344" y="221" type="line"/>
      <point x="344" y="298" type="line"/>
      <point x="251" y="298" type="line" smooth="yes"/>
      <point x="115" y="298"/>
      <point x="41" y="240"/>
      <point x="41" y="144" type="curve" smooth="yes"/>
      <point x="41" y="61"/>
      <point x="100" y="-4"/>
      <point x="199" y="-4" type="curve" smooth="yes"/>
      <point x="278" y="-4"/>
      <point x="316" y="31"/>
    </contour>
  </outline>
</glyph>
<glyph name="b" format="1">
  <advance width="590"/>
  <unicode hex="0062"/>
  <outline>
    <contour>
      <point x="180" y="0" type="line"/>
      <point x="180" y="707" type="line"/>
      <point x="68" y="707" type="line"/>
      <point x="68" y="0" type="line"/>
    </contour>
    <contour>
      <point x="551" y="252" type="curve" smooth="yes"/>
      <point x="551" y="414"/>
      <point x="458" y="514"/>
      <point x="333" y="514" type="curve" smooth="yes"/>
      <point x="218" y="514"/>
      <point x="137" y="419"/>
      <point x="137" y="257" type="curve" smooth="yes"/>
      <point x="137" y="96"/>
      <point x="210" y="-7"/>
      <point x="334" y="-7" type="curve" smooth="yes"/>
      <point x="474" y="-7"/>
      <point x="551" y="117"/>
    </contour>
    <contour>
      <point x="180" y="258" type="curve" smooth="yes"/>
      <point x="180" y="375"/>
      <point x="252" y="418"/>
      <point x="309" y="418" type="curve" smooth="yes"/>
      <point x="378" y="418"/>
      <point x="437" y="362"/>
      <point x="437" y="250" type="curve" smooth="yes"/>
      <point x="437" y="153"/>
      <point x="381" y="90"/>
      <point x="311" y="90" type="curve" smooth="yes"/>
      <point x="242" y="90"/>
      <point x="180" y="140"/>
    </contour>
  </outline>
</glyph>
<glyph name="c" format="1">
  <advance width="470"/>
  <unicode hex="0063"/>
  <outline>
    <contour>
      <point x="430" y="21" type="curve"/>
      <point x="430" y="119" type="line"/>
      <point x="398" y="99"/>
      <point x="356" y="85"/>
      <point x="316" y="85" type="curve" smooth="yes"/>
      <point x="213" y="85"/>
      <point x="156" y="156"/>
      <point x="153" y="252" type="curve" smooth="yes"/>
      <point x="154" y="351"/>
      <point x="219" y="419"/>
      <point x="317" y="419" type="curve" smooth="yes"/>
      <point x="353" y="419"/>
      <point x="397" y="409"/>
      <point x="430" y="387" type="curve"/>
      <point x="430" y="487" type="line"/>
      <point x="388" y="510"/>
      <point x="342" y="515"/>
      <point x="306" y="515" type="curve" smooth="yes"/>
      <point x="135" y="515"/>
      <point x="40" y="392"/>
      <point x="39" y="252" type="curve" smooth="yes"/>
      <point x="39" y="105"/>
      <point x="141" y="-10"/>
      <point x="301" y="-10" type="curve" smooth="yes"/>
      <point x="347" y="-10"/>
      <point x="397" y="2"/>
    </contour>
  </outline>
</glyph>
<glyph name="e" format="1">
  <advance width="527"/>
  <unicode hex="0065"/>
  <outline>
    <contour>
      <point x="450" y="27" type="curve"/>
      <point x="450" y="125" type="line"/>
      <point x="417" y="101"/>
      <point x="368" y="86"/>
      <point x="315" y="86" type="curve" smooth="yes"/>
      <point x="215" y="86"/>
      <point x="147" y="144"/>
      <point x="147" y="253" type="curve" smooth="yes"/>
      <point x="147" y="368"/>
      <point x="205" y="423"/>
      <point x="271" y="423" type="curve" smooth="yes"/>
      <point x="339" y="423"/>
      <point x="373" y="376"/>
      <point x="375" y="309" type="curve" smooth="yes"/>
      <point x="375" y="293" type="line"/>
      <point x="110" y="293" type="line"/>
      <point x="110" y="208" type="line"/>
      <point x="475" y="208" type="line"/>
      <point x="478" y="227"/>
      <point x="482" y="260"/>
      <point x="482" y="277" type="curve" smooth="yes"/>
      <point x="482" y="435"/>
      <point x="396" y="512"/>
      <point x="269" y="512" type="curve" smooth="yes"/>
      <point x="141" y="512"/>
      <point x="39" y="420"/>
      <point x="39" y="253" type="curve" smooth="yes"/>
      <point x="39" y="103"/>
      <point x="136" y="-5"/>
      <point x="299" y="-5" type="curve" smooth="yes"/>
      <point x="347" y="-5"/>
      <point x="413" y="5"/>
    </contour>
  </outline>
</glyph>
<glyph name="g" format="1">
  <advance width="567"/>
  <unicode hex="0067"/>
  <outline>
    <contour>
      <point x="506" y="45" type="curve" smooth="yes"/>
      <point x="506" y="507" type="line"/>
      <point x="394" y="507" type="line"/>
      <point x="394" y="46" type="line" smooth="yes"/>
      <point x="394" y="-51"/>
      <point x="344" y="-92"/>
      <point x="252" y="-92" type="curve" smooth="yes"/>
      <point x="195" y="-92"/>
      <point x="136" y="-76"/>
      <point x="92" y="-46" type="curve"/>
      <point x="92" y="-160" type="line"/>
      <point x="144" y="-184"/>
      <point x="206" y="-194"/>
      <point x="263" y="-194" type="curve" smooth="yes"/>
      <point x="394" y="-194"/>
      <point x="506" y="-123"/>
    </contour>
    <contour>
      <point x="431" y="252" type="curve"/>
      <point x="431" y="258" type="line"/>
      <point x="431" y="393"/>
      <point x="386" y="513"/>
      <point x="251" y="513" type="curve" smooth="yes"/>
      <point x="124" y="513"/>
      <point x="42" y="404"/>
      <point x="42" y="259" type="curve" smooth="yes"/>
      <point x="42" y="93"/>
      <point x="144" y="15"/>
      <point x="249" y="15" type="curve" smooth="yes"/>
      <point x="368" y="15"/>
      <point x="431" y="105"/>
    </contour>
    <contour>
      <point x="159" y="260" type="curve" smooth="yes"/>
      <point x="159" y="354"/>
      <point x="203" y="417"/>
      <point x="276" y="417" type="curve" smooth="yes"/>
      <point x="337" y="417"/>
      <point x="394" y="373"/>
      <point x="394" y="253" type="curve" smooth="yes"/>
      <point x="394" y="161"/>
      <point x="338" y="108"/>
      <point x="274" y="108" type="curve" smooth="yes"/>
      <point x="213" y="108"/>
      <point x="159" y="155"/>
    </contour>
  </outline>
</glyph>
<glyph name="h" format="1">
  <advance width="560"/>
  <unicode hex="0068"/>
  <outline>
    <contour>
      <point x="499" y="0" type="line"/>
      <point x="499" y="335" type="line" smooth="yes"/>
      <point x="499" y="453"/>
      <point x="429" y="513"/>
      <point x="334" y="513" type="curve" smooth="yes"/>
      <point x="216" y="513"/>
      <point x="157" y="434"/>
      <point x="156" y="305" type="curve"/>
      <point x="178" y="273" type="line"/>
      <point x="178" y="386"/>
      <point x="246" y="419"/>
      <point x="296" y="419" type="curve" smooth="yes"/>
      <point x="348" y="419"/>
      <point x="387" y="382"/>
      <point x="387" y="314" type="curve" smooth="yes"/>
      <point x="387" y="0" type="line"/>
    </contour>
    <contour>
      <point x="178" y="0" type="line"/>
      <point x="178" y="707" type="line"/>
      <point x="66" y="707" type="line"/>
      <point x="66" y="0" type="line"/>
    </contour>
  </outline>
</glyph>
<glyph name="i" format="1">
  <advance width="254"/>
  <unicode hex="0069"/>
  <outline>
    <contour>
      <point x="183" y="0" type="line"/>
      <point x="183" y="507" type="line"/>
      <point x="71" y="507" type="line"/>
      <point x="71" y="0" type="line"/>
    </contour>
    <contour>
      <point x="195" y="660" type="curve" smooth="yes"/>
      <point x="195" y="698"/>
      <point x="165" y="728"/>
      <point x="127" y="728" type="curve" smooth="yes"/>
      <point x="89" y="728"/>
      <point x="59" y="698"/>
      <point x="59" y="660" type="curve" smooth="yes"/>
      <point x="59" y="622"/>
      <point x="89" y="592"/>
      <point x="127" y="592" type="curve" smooth="yes"/>
      <point x="165" y="592"/>
      <point x="195" y="622"/>
    </contour>
  </outline>
</glyph>
<glyph name="j" format="1">
  <advance width="251"/>
  <unicode hex="006A"/>
  <outline>
    <contour>
      <point x="185" y="-38" type="curve" smooth="yes"/>
      <point x="185" y="507" type="line"/>
      <point x="73" y="507" type="line"/>
      <point x="73" y="-36" type="line" smooth="yes"/>
      <point x="73" y="-87"/>
      <point x="51" y="-106"/>
      <point x="19" y="-106" type="curve" smooth="yes"/>
      <point x="0" y="-106"/>
      <point x="-21" y="-100"/>
      <point x="-43" y="-91" type="curve"/>
      <point x="-43" y="-181" type="line"/>
      <point x="-14" y="-192"/>
      <point x="8" y="-196"/>
      <point x="32" y="-196" type="curve" smooth="yes"/>
      <point x="131" y="-196"/>
      <point x="185" y="-134"/>
    </contour>
    <contour>
      <point x="196" y="660" type="curve" smooth="yes"/>
      <point x="196" y="698"/>
      <point x="166" y="728"/>
      <point x="128" y="728" type="curve" smooth="yes"/>
      <point x="90" y="728"/>
      <point x="60" y="698"/>
      <point x="60" y="660" type="curve" smooth="yes"/>
      <point x="60" y="622"/>
      <point x="90" y="592"/>
      <point x="128" y="592" type="curve" smooth="yes"/>
      <point x="166" y="592"/>
      <point x="196" y="622"/>
    </contour>
  </outline>
</glyph>
<glyph name="k" format="1">
  <advance width="514"/>
  <unicode hex="006B"/>
  <outline>
    <contour>
      <point x="178" y="0" type="line"/>
      <point x="178" y="697" type="line"/>
      <point x="66" y="697" type="line"/>
      <point x="66" y="0" type="line"/>
    </contour>
    <contour>
      <point x="305" y="265" type="line"/>
      <point x="494" y="507" type="line"/>
      <point x="363" y="507" type="line"/>
      <point x="178" y="265" type="line"/>
    </contour>
    <contour>
      <point x="498" y="0" type="line"/>
      <point x="305" y="265" type="line"/>
      <point x="178" y="265" type="line"/>
      <point x="366" y="0" type="line"/>
    </contour>
  </outline>
</glyph>
<glyph name="m" format="1">
  <advance width="838"/>
  <unicode hex="006D"/>
  <outline>
    <contour>
      <point x="777" y="0" type="line"/>
      <point x="777" y="337" type="line" smooth="yes"/>
      <point x="777" y="448"/>
      <point x="721" y="513"/>
      <point x="617" y="513" type="curve" smooth="yes"/>
      <point x="519" y="513"/>
      <point x="444" y="440"/>
      <point x="449" y="312" type="curve"/>
      <point x="478" y="273" type="line"/>
      <point x="478" y="382"/>
      <point x="538" y="419"/>
      <point x="583" y="419" type="curve" smooth="yes"/>
      <point x="638" y="419"/>
      <point x="665" y="380"/>
      <point x="665" y="315" type="curve" smooth="yes"/>
      <point x="665" y="0" type="line"/>
    </contour>
    <contour>
      <point x="178" y="0" type="line"/>
      <point x="178" y="507" type="line"/>
      <point x="66" y="507" type="line"/>
      <point x="66" y="0" type="line"/>
    </contour>
    <contour>
      <point x="478" y="0" type="line"/>
      <point x="478" y="337" type="line" smooth="yes"/>
      <point x="478" y="448"/>
      <point x="424" y="513"/>
      <point x="321" y="513" type="curve" smooth="yes"/>
      <point x="218" y="513"/>
      <point x="151" y="435"/>
      <point x="156" y="305" type="curve"/>
      <point x="178" y="273" type="line"/>
      <point x="178" y="382"/>
      <point x="238" y="419"/>
      <point x="284" y="419" type="curve" smooth="yes"/>
      <point x="339" y="419"/>
      <point x="366" y="380"/>
      <point x="366" y="315" type="curve" smooth="yes"/>
      <point x="366" y="0" type="line"/>
    </contour>
  </outline>
</glyph>
<glyph name="n" format="1">
  <advance width="560"/>
  <unicode hex="006E"/>
  <outline>
    <contour>
      <point x="499" y="0" type="line"/>
      <point x="499" y="339" type="line" smooth="yes"/>
      <point x="499" y="450"/>
      <point x="435" y="513"/>
      <point x="335" y="513" type="curve" smooth="yes"/>
      <point x="227" y="513"/>
      <point x="160" y="441"/>
      <point x="157" y="323" type="curve"/>
      <point x="157" y="273" type="line"/>
      <point x="178" y="273" type="line"/>
      <point x="178" y="371"/>
      <point x="234" y="419"/>
      <point x="295" y="419" type="curve" smooth="yes"/>
      <point x="349" y="419"/>
      <point x="387" y="385"/>
      <point x="387" y="315" type="curve" smooth="yes"/>
      <point x="387" y="0" type="line"/>
    </contour>
    <contour>
      <point x="178" y="0" type="line"/>
      <point x="178" y="507" type="line"/>
      <point x="66" y="507" type="line"/>
      <point x="66" y="0" type="line"/>
    </contour>
  </outline>
</glyph>
<glyph name="o" format="1">
  <advance width="565"/>
  <unicode hex="006F"/>
  <outline>
    <contour>
      <point x="526" y="254" type="curve" smooth="yes"/>
      <point x="526" y="398"/>
      <point x="443" y="515"/>
      <point x="282" y="515" type="curve" smooth="yes"/>
      <point x="133" y="515"/>
      <point x="39" y="398"/>
      <point x="39" y="249" type="curve" smooth="yes"/>
      <point x="39" y="105"/>
      <point x="124" y="-8"/>
      <point x="282" y="-8" type="curve" smooth="yes"/>
      <point x="439" y="-8"/>
      <point x="526" y="107"/>
    </contour>
    <contour>
      <point x="156" y="252" type="curve" smooth="yes"/>
      <point x="156" y="344"/>
      <point x="197" y="422"/>
      <point x="281" y="422" type="curve" smooth="yes"/>
      <point x="375" y="422"/>
      <point x="409" y="342"/>
      <point x="409" y="251" type="curve" smooth="yes"/>
      <point x="409" y="160"/>
      <point x="369" y="83"/>
      <point x="282" y="83" type="curve" smooth="yes"/>
      <point x="200" y="83"/>
      <point x="156" y="161"/>
    </contour>
  </outline>
</glyph>
<glyph name="p" format="1">
  <advance width="589"/>
  <unicode hex="0070"/>
  <outline>
    <contour>
      <point x="178" y="-192" type="line"/>
      <point x="178" y="507" type="line"/>
      <point x="66" y="507" type="line"/>
      <point x="66" y="-192" type="line"/>
    </contour>
    <contour>
      <point x="550" y="257" type="curve" smooth="yes"/>
      <point x="550" y="407"/>
      <point x="468" y="514"/>
      <point x="333" y="514" type="curve" smooth="yes"/>
      <point x="205" y="514"/>
      <point x="135" y="406"/>
      <point x="135" y="255" type="curve" smooth="yes"/>
      <point x="135" y="84"/>
      <point x="214" y="-7"/>
      <point x="332" y="-7" type="curve" smooth="yes"/>
      <point x="468" y="-7"/>
      <point x="550" y="107"/>
    </contour>
    <contour>
      <point x="178" y="256" type="curve" smooth="yes"/>
      <point x="178" y="375"/>
      <point x="248" y="418"/>
      <point x="310" y="418" type="curve" smooth="yes"/>
      <point x="380" y="418"/>
      <point x="435" y="360"/>
      <point x="435" y="255" type="curve" smooth="yes"/>
      <point x="435" y="147"/>
      <point x="380" y="90"/>
      <point x="308" y="90" type="curve" smooth="yes"/>
      <point x="245" y="90"/>
      <point x="178" y="140"/>
    </contour>
  </outline>
</glyph>
<glyph name="q" format="1">
  <advance width="589"/>
  <unicode hex="0071"/>
  <outline>
    <contour>
      <point x="453" y="255" type="curve" smooth="yes"/>
      <point x="453" y="407"/>
      <point x="383" y="514"/>
      <point x="257" y="514" type="curve" smooth="yes"/>
      <point x="122" y="514"/>
      <point x="39" y="407"/>
      <point x="39" y="257" type="curve" smooth="yes"/>
      <point x="39" y="107"/>
      <point x="121" y="-7"/>
      <point x="257" y="-7" type="curve" smooth="yes"/>
      <point x="370" y="-7"/>
      <point x="453" y="84"/>
    </contour>
    <contour>
      <point x="153" y="255" type="curve" smooth="yes"/>
      <point x="153" y="357"/>
      <point x="210" y="418"/>
      <point x="279" y="418" type="curve" smooth="yes"/>
      <point x="342" y="418"/>
      <point x="410" y="375"/>
      <point x="410" y="256" type="curve" smooth="yes"/>
      <point x="410" y="140"/>
      <point x="345" y="90"/>
      <point x="282" y="90" type="curve" smooth="yes"/>
      <point x="211" y="90"/>
      <point x="153" y="148"/>
    </contour>
    <contour>
      <point x="522" y="-192" type="line"/>
      <point x="522" y="507" type="line"/>
      <point x="410" y="507" type="line"/>
      <point x="410" y="-192" type="line"/>
    </contour>
  </outline>
</glyph>
<glyph name="r" format="1">
  <advance width="348"/>
  <unicode hex="0072"/>
  <outline>
    <contour>
      <point x="178" y="0" type="line"/>
      <point x="178" y="507" type="line"/>
      <point x="66" y="507" type="line"/>
      <point x="66" y="0" type="line"/>
    </contour>
    <contour>
      <point x="341" y="400" type="curve"/>
      <point x="341" y="508" type="line"/>
      <point x="329" y="511"/>
      <point x="319" y="511"/>
      <point x="308" y="511" type="curve" smooth="yes"/>
      <point x="209" y="511"/>
      <point x="161" y="424"/>
      <point x="162" y="320" type="curve"/>
      <point x="178" y="265" type="line"/>
      <point x="178" y="344"/>
      <point x="223" y="409"/>
      <point x="292" y="409" type="curve" smooth="yes"/>
      <point x="308" y="409"/>
      <point x="323" y="407"/>
    </contour>
  </outline>
</glyph>
<glyph name="v" format="1">
  <advance width="520"/>
  <unicode hex="0076"/>
  <outline>
    <contour>
      <point x="320" y="0" type="line"/>
      <point x="505" y="507" type="line"/>
      <point x="390" y="507" type="line"/>
      <point x="319" y="292" type="line" smooth="yes"/>
      <point x="269" y="141"/>
      <point x="259" y="87"/>
      <point x="259" y="87" type="curve"/>
      <point x="259" y="87"/>
      <point x="248" y="141"/>
      <point x="200" y="292" type="curve" smooth="yes"/>
      <point x="132" y="507" type="line"/>
      <point x="15" y="507" type="line"/>
      <point x="197" y="0" type="line"/>
    </contour>
  </outline>
</glyph>
<glyph name="w" format="1">
  <advance width="799"/>
  <unicode hex="0077"/>
  <outline>
    <contour>
      <point x="298" y="0" type="line"/>
      <point x="343" y="166" type="line" smooth="yes"/>
      <point x="385" y="321"/>
      <point x="398" y="387"/>
      <point x="398" y="387" type="curve"/>
      <point x="398" y="387"/>
      <point x="410" y="322"/>
      <point x="454" y="166" type="curve" smooth="yes"/>
      <point x="500" y="0" type="line"/>
      <point x="623" y="0" type="line"/>
      <point x="784" y="507" type="line"/>
      <point x="672" y="507" type="line"/>
      <point x="623" y="340" type="line" smooth="yes"/>
      <point x="571" y="165"/>
      <point x="561" y="106"/>
      <point x="561" y="106" type="curve"/>
      <point x="561" y="106"/>
      <point x="550" y="165"/>
      <point x="499" y="340" type="curve" smooth="yes"/>
      <point x="450" y="507" type="line"/>
      <point x="346" y="507" type="line"/>
      <point x="297" y="340" type="line" smooth="yes"/>
      <point x="247" y="169"/>
      <point x="236" y="107"/>
      <point x="236" y="107" type="curve"/>
      <point x="236" y="107"/>
      <point x="227" y="170"/>
      <point x="179" y="340" type="curve" smooth="yes"/>
      <point x="132" y="507" type="line"/>
      <point x="15" y="507" type="line"/>
      <point x="175" y="0" type="line"/>
    </contour>
  </outline>
</glyph>
<glyph name="x" format="1">
  <advance width="502"/>
  <unicode hex="0078"/>
  <outline>
    <contour>
      <point x="143" y="0" type="line"/>
      <point x="252" y="176" type="line"/>
      <point x="356" y="0" type="line"/>
      <point x="481" y="0" type="line"/>
      <point x="311" y="256" type="line"/>
      <point x="484" y="507" type="line"/>
      <point x="360" y="507" type="line"/>
      <point x="256" y="337" type="line"/>
      <point x="157" y="507" type="line"/>
      <point x="31" y="507" type="line"/>
      <point x="196" y="257" type="line"/>
      <point x="20" y="0" type="line"/>
    </contour>
  </outline>
</glyph>
<glyph name="y" format="1">
  <advance width="512"/>
  <unicode hex="0079"/>
  <outline>
    <contour>
      <point x="318" y="14" type="curve" smooth="yes"/>
      <point x="501" y="507" type="line"/>
      <point x="384" y="507" type="line"/>
      <point x="329" y="344" type="line" smooth="yes"/>
      <point x="272" y="174"/>
      <point x="262" y="140"/>
      <point x="262" y="140" type="curve"/>
      <point x="262" y="140"/>
      <point x="255" y="174"/>
      <point x="191" y="344" type="curve" smooth="yes"/>
      <point x="130" y="507" type="line"/>
      <point x="7" y="507" type="line"/>
      <point x="207" y="10" type="line"/>
      <point x="181" y="-58"/>
      <point x="139" y="-92"/>
      <point x="75" y="-92" type="curve" smooth="yes"/>
      <point x="65" y="-92"/>
      <point x="53" y="-90"/>
      <point x="41" y="-87" type="curve"/>
      <point x="41" y="-181" type="line"/>
      <point x="58" y="-185"/>
      <point x="71" y="-186"/>
      <point x="90" y="-186" type="curve" smooth="yes"/>
      <point x="185" y="-186"/>
      <point x="264" y="-132"/>
    </contour>
  </outline>
</glyph>
<glyph name="z" format="1">
  <advance width="466"/>
  <unicode hex="007A"/>
  <outline>
    <contour>
      <point x="424" y="0" type="line"/>
      <point x="424" y="92" type="line"/>
      <point x="170" y="92" type="line"/>
      <point x="411" y="428" type="line"/>
      <point x="411" y="507" type="line"/>
      <point x="51" y="507" type="line"/>
      <point x="51" y="416" type="line"/>
      <point x="282" y="416" type="line"/>
      <point x="42" y="83" type="line"/>
      <point x="42" y="0" type="line"/>
    </contour>
  </outline>
</glyph>
<glyph name="braceleft" format="1">
  <advance width="316"/>
  <unicode hex="007B"/>
  <note>
    braceleft
  </note>
  <outline>
    <contour>
      <point x="279" y="-21" type="line"/>
      <point x="249" y="-20"/>
      <point x="223" y="-17"/>
      <point x="202" y="-10" type="curve"/>
      <point x="197" y="16"/>
      <point x="196" y="29"/>
      <point x="198" y="59" type="curve" smooth="yes"/>
      <point x="200" y="129" type="line" smooth="yes"/>
      <point x="203" y="183"/>
      <point x="183" y="213"/>
      <point x="136" y="228" type="curve"/>
      <point x="136" y="231" type="line"/>
      <point x="183" y="245"/>
      <point x="203" y="275"/>
      <point x="200" y="330" type="curve" smooth="yes"/>
      <point x="198" y="391" type="line" smooth="yes"/>
      <point x="196" y="421"/>
      <point x="197" y="434"/>
      <point x="202" y="459" type="curve"/>
      <point x="223" y="466"/>
      <point x="249" y="470"/>
      <point x="279" y="471" type="curve"/>
      <point x="279" y="537" type="line"/>
      <point x="177" y="535"/>
      <point x="120" y="496"/>
      <point x="126" y="393" type="curve" smooth="yes"/>
      <point x="130" y="340" type="line" smooth="yes"/>
      <point x="132" y="291"/>
      <point x="116" y="258"/>
      <point x="43" y="258" type="curve"/>
      <point x="43" y="201" type="line"/>
      <point x="116" y="201"/>
      <point x="132" y="168"/>
      <point x="130" y="119" type="curve" smooth="yes"/>
      <point x="126" y="56" type="line" smooth="yes"/>
      <point x="120" y="-46"/>
      <point x="177" y="-85"/>
      <point x="279" y="-88" type="curve"/>
    </contour>
  </outline>
</glyph>
<glyph name="bar" format="1">
  <advance width="254"/>
  <unicode hex="007C"/>
  <outline>
    <contour>
      <point x="180" y="-194" type="line"/>
      <point x="180" y="695" type="line"/>
      <point x="74" y="695" type="line"/>
      <point x="74" y="-194" type="line"/>
    </contour>
  </outline>
</glyph>
<glyph name="braceright" format="1">
  <advance width="316"/>
  <unicode hex="007D"/>
  <note>
    braceright
  </note>
  <outline>
    <contour>
      <point x="189" y="56" type="curve" smooth="yes"/>
      <point x="186" y="119" type="line" smooth="yes"/>
      <point x="184" y="168"/>
      <point x="199" y="201"/>
      <point x="272" y="201" type="curve"/>
      <point x="272" y="258" type="line"/>
      <point x="199" y="258"/>
      <point x="184" y="291"/>
      <point x="186" y="340" type="curve" smooth="yes"/>
      <point x="189" y="393" type="line" smooth="yes"/>
      <point x="195" y="496"/>
      <point x="138" y="535"/>
      <point x="36" y="537" type="curve"/>
      <point x="36" y="471" type="line"/>
      <point x="67" y="470"/>
      <point x="93" y="466"/>
      <point x="113" y="459" type="curve"/>
      <point x="118" y="434"/>
      <point x="119" y="421"/>
      <point x="118" y="391" type="curve" smooth="yes"/>
      <point x="115" y="330" type="line" smooth="yes"/>
      <point x="113" y="275"/>
      <point x="133" y="245"/>
      <point x="180" y="231" type="curve"/>
      <point x="180" y="228" type="line"/>
      <point x="133" y="213"/>
      <point x="113" y="183"/>
      <point x="115" y="129" type="curve" smooth="yes"/>
      <point x="118" y="59" type="line" smooth="yes"/>
      <point x="119" y="29"/>
      <point x="118" y="16"/>
      <point x="113" y="-10" type="curve"/>
      <point x="93" y="-17"/>
      <point x="67" y="-20"/>
      <point x="36" y="-21" type="curve"/>
      <point x="36" y="-88" type="line"/>
      <point x="138" y="-85"/>
      <point x="195" y="-46"/>
    </contour>
  </outline>
</glyph>
<glyph name="asciitilde" format="1">
  <advance width="626"/>
  <unicode hex="007E"/>
  <outline>
    <contour>
      <point x="218" y="253" type="curve" smooth="yes"/>
      <point x="287" y="253"/>
      <point x="338" y="191"/>
      <point x="436" y="191" type="curve" smooth="yes"/>
      <point x="510" y="191"/>
      <point x="560" y="240"/>
      <point x="593" y="291" type="curve"/>
      <point x="514" y="352" type="line"/>
      <point x="488" y="317"/>
      <point x="461" y="293"/>
      <point x="417" y="293" type="curve" smooth="yes"/>
      <point x="351" y="293"/>
      <point x="305" y="354"/>
      <point x="196" y="354" type="curve" smooth="yes"/>
      <point x="129" y="354"/>
      <point x="70" y="306"/>
      <point x="32" y="252" type="curve"/>
      <point x="109" y="190" type="line"/>
      <point x="141" y="232"/>
      <point x="172" y="253"/>
    </contour>
  </outline>
</glyph>
<glyph name="exclamdown" format="1">
  <advance width="187"/>
  <unicode hex="00A1"/>
  <note>
    exclamdown
  </note>
  <outline>
    <contour>
      <point x="132" y="-2" type="line"/>
      <point x="132" y="143" type="line"/>
      <point x="127" y="322" type="line"/>
      <point x="61" y="322" type="line"/>
      <point x="56" y="142" type="line"/>
      <point x="56" y="-2" type="line"/>
    </contour>
    <contour>
      <point x="133" y="371" type="line"/>
      <point x="133" y="445" type="line"/>
      <point x="55" y="445" type="line"/>
      <point x="55" y="371" type="line"/>
    </contour>
  </outline>
</glyph>
<glyph name="cent" format="1">
  <advance width="465"/>
  <unicode hex="00A2"/>
  <outline>
    <contour>
      <point x="425" y="19" type="curve"/>
      <point x="425" y="117" type="line"/>
      <point x="392" y="97"/>
      <point x="353" y="87"/>
      <point x="317" y="87" type="curve" smooth="yes"/>
      <point x="215" y="87"/>
      <point x="155" y="156"/>
      <point x="152" y="252" type="curve" smooth="yes"/>
      <point x="153" y="351"/>
      <point x="220" y="418"/>
      <point x="319" y="418" type="curve" smooth="yes"/>
      <point x="354" y="418"/>
      <point x="393" y="408"/>
      <point x="425" y="389" type="curve"/>
      <point x="425" y="487" type="line"/>
      <point x="384" y="507"/>
      <point x="343" y="514"/>
      <point x="307" y="514" type="curve" smooth="yes"/>
      <point x="137" y="514"/>
      <point x="39" y="392"/>
      <point x="38" y="252" type="curve" smooth="yes"/>
      <point x="38" y="105"/>
      <point x="143" y="-8"/>
      <point x="302" y="-8" type="curve" smooth="yes"/>
      <point x="345" y="-8"/>
      <point x="388" y="1"/>
    </contour>
    <contour>
      <point x="346" y="-111" type="line"/>
      <point x="346" y="72" type="line"/>
      <point x="252" y="72" type="line"/>
      <point x="252" y="-111" type="line"/>
    </contour>
    <contour>
      <point x="346" y="441" type="line"/>
      <point x="346" y="618" type="line"/>
      <point x="251" y="618" type="line"/>
      <point x="251" y="441" type="line"/>
    </contour>
  </outline>
</glyph>
<glyph name="sterling" format="1">
  <advance width="531"/>
  <unicode hex="00A3"/>
  <outline>
    <contour>
      <point x="495" y="0" type="line"/>
      <point x="495" y="96" type="line"/>
      <point x="188" y="96" type="line"/>
      <point x="234" y="124"/>
      <point x="258" y="168"/>
      <point x="258" y="250" type="curve"/>
      <point x="258" y="307"/>
      <point x="243" y="375"/>
      <point x="243" y="434" type="curve"/>
      <point x="243" y="517"/>
      <point x="284" y="554"/>
      <point x="361" y="554" type="curve" smooth="yes"/>
      <point x="399" y="554"/>
      <point x="432" y="543"/>
      <point x="464" y="523" type="curve"/>
      <point x="464" y="631" type="line"/>
      <point x="433" y="648"/>
      <point x="390" y="660"/>
      <point x="341" y="660" type="curve" smooth="yes"/>
      <point x="197" y="660"/>
      <point x="122" y="576"/>
      <point x="122" y="435" type="curve"/>
      <point x="122" y="380"/>
      <point x="139" y="309"/>
      <point x="139" y="250" type="curve"/>
      <point x="139" y="174"/>
      <point x="121" y="127"/>
      <point x="53" y="93" type="curve"/>
      <point x="53" y="0" type="line"/>
    </contour>
    <contour>
      <point x="421" y="280" type="line"/>
      <point x="421" y="364" type="line"/>
      <point x="55" y="364" type="line"/>
      <point x="55" y="280" type="line"/>
    </contour>
  </outline>
</glyph>
<glyph name="currency" format="1">
  <advance width="557"/>
  <unicode hex="00A4"/>
  <outline>
    <contour>
      <point x="157" y="126" type="line"/>
      <point x="191" y="105"/>
      <point x="232" y="94"/>
      <point x="277" y="94" type="curve" smooth="yes"/>
      <point x="322" y="94"/>
      <point x="364" y="105"/>
      <point x="398" y="126" type="curve"/>
      <point x="458" y="68" type="line"/>
      <point x="526" y="134" type="line"/>
      <point x="465" y="193" type="line"/>
      <point x="487" y="226"/>
      <point x="501" y="269"/>
      <point x="501" y="313" type="curve" smooth="yes"/>
      <point x="501" y="357"/>
      <point x="488" y="398"/>
      <point x="468" y="431" type="curve"/>
      <point x="526" y="488" type="line"/>
      <point x="458" y="554" type="line"/>
      <point x="400" y="497" type="line"/>
      <point x="367" y="517"/>
      <point x="326" y="529"/>
      <point x="280" y="529" type="curve" smooth="yes"/>
      <point x="234" y="529"/>
      <point x="192" y="517"/>
      <point x="158" y="495" type="curve"/>
      <point x="99" y="554" type="line"/>
      <point x="31" y="488" type="line"/>
      <point x="90" y="429" type="line"/>
      <point x="69" y="396"/>
      <point x="56" y="354"/>
      <point x="56" y="310" type="curve" smooth="yes"/>
      <point x="56" y="266"/>
      <point x="69" y="224"/>
      <point x="90" y="191" type="curve"/>
      <point x="31" y="134" type="line"/>
      <point x="99" y="68" type="line"/>
    </contour>
    <contour>
      <point x="151" y="312" type="curve" smooth="yes"/>
      <point x="151" y="383"/>
      <point x="204" y="440"/>
      <point x="279" y="440" type="curve" smooth="yes"/>
      <point x="354" y="440"/>
      <point x="406" y="383"/>
      <point x="406" y="311" type="curve" smooth="yes"/>
      <point x="406" y="240"/>
      <point x="354" y="183"/>
      <point x="279" y="183" type="curve" smooth="yes"/>
      <point x="204" y="183"/>
      <point x="151" y="240"/>
    </contour>
  </outline>
</glyph>
<glyph name="yen" format="1">
  <advance width="610"/>
  <unicode hex="00A5"/>
  <outline>
    <contour>
      <point x="352" y="236" type="line"/>
      <point x="587" y="655" type="line"/>
      <point x="452" y="655" type="line"/>
      <point x="302" y="370" type="line"/>
      <point x="157" y="655" type="line"/>
      <point x="21" y="655" type="line"/>
      <point x="253" y="236" type="line"/>
    </contour>
    <contour>
      <point x="361" y="0" type="line"/>
      <point x="361" y="261" type="line"/>
      <point x="244" y="261" type="line"/>
      <point x="244" y="0" type="line"/>
    </contour>
    <contour>
      <point x="538" y="137" type="line"/>
      <point x="538" y="211" type="line"/>
      <point x="69" y="211" type="line"/>
      <point x="69" y="137" type="line"/>
    </contour>
    <contour>
      <point x="271" y="287" type="line"/>
      <point x="271" y="361" type="line"/>
      <point x="69" y="361" type="line"/>
      <point x="69" y="287" type="line"/>
    </contour>
    <contour>
      <point x="538" y="287" type="line"/>
      <point x="538" y="361" type="line"/>
      <point x="334" y="361" type="line"/>
      <point x="334" y="287" type="line"/>
    </contour>
  </outline>
</glyph>
<glyph name="brokenbar" format="1">
  <advance width="254"/>
  <unicode hex="00A6"/>
  <outline>
    <contour>
      <point x="180" y="368" type="line"/>
      <point x="180" y="702" type="line"/>
      <point x="74" y="702" type="line"/>
      <point x="74" y="368" type="line"/>
    </contour>
    <contour>
      <point x="180" y="-148" type="line"/>
      <point x="180" y="187" type="line"/>
      <point x="74" y="187" type="line"/>
      <point x="74" y="-148" type="line"/>
    </contour>
  </outline>
</glyph>
<glyph name="section" format="1">
  <advance width="555"/>
  <unicode hex="00A7"/>
  <outline>
    <contour>
      <point x="494" y="200" type="curve" smooth="yes"/>
      <point x="494" y="307"/>
      <point x="424" y="350"/>
      <point x="341" y="391" type="curve" smooth="yes"/>
      <point x="243" y="440"/>
      <point x="186" y="452"/>
      <point x="186" y="506" type="curve" smooth="yes"/>
      <point x="186" y="549"/>
      <point x="222" y="577"/>
      <point x="291" y="577" type="curve" smooth="yes"/>
      <point x="345" y="577"/>
      <point x="405" y="559"/>
      <point x="447" y="533" type="curve"/>
      <point x="447" y="647" type="line"/>
      <point x="399" y="670"/>
      <point x="339" y="680"/>
      <point x="287" y="680" type="curve" smooth="yes"/>
      <point x="154" y="680"/>
      <point x="64" y="615"/>
      <point x="64" y="503" type="curve" smooth="yes"/>
      <point x="64" y="401"/>
      <point x="155" y="367"/>
      <point x="240" y="325" type="curve" smooth="yes"/>
      <point x="323" y="284"/>
      <point x="381" y="262"/>
      <point x="381" y="202" type="curve" smooth="yes"/>
      <point x="381" y="173"/>
      <point x="370" y="148"/>
      <point x="343" y="126" type="curve"/>
      <point x="429" y="62" type="line"/>
      <point x="467" y="89"/>
      <point x="494" y="143"/>
    </contour>
    <contour>
      <point x="488" y="-15" type="curve" smooth="yes"/>
      <point x="488" y="96"/>
      <point x="383" y="144"/>
      <point x="298" y="180" type="curve" smooth="yes"/>
      <point x="216" y="216"/>
      <point x="168" y="242"/>
      <point x="168" y="295" type="curve" smooth="yes"/>
      <point x="168" y="317"/>
      <point x="178" y="345"/>
      <point x="200" y="365" type="curve"/>
      <point x="106" y="420" type="line"/>
      <point x="75" y="388"/>
      <point x="54" y="347"/>
      <point x="54" y="296" type="curve" smooth="yes"/>
      <point x="54" y="194"/>
      <point x="125" y="143"/>
      <point x="210" y="105" type="curve" smooth="yes"/>
      <point x="336" y="50"/>
      <point x="368" y="31"/>
      <point x="368" y="-16" type="curve" smooth="yes"/>
      <point x="368" y="-66"/>
      <point x="327" y="-92"/>
      <point x="258" y="-92" type="curve" smooth="yes"/>
      <point x="194" y="-92"/>
      <point x="128" y="-72"/>
      <point x="72" y="-32" type="curve"/>
      <point x="72" y="-152" type="line"/>
      <point x="122" y="-181"/>
      <point x="192" y="-195"/>
      <point x="260" y="-195" type="curve" smooth="yes"/>
      <point x="395" y="-195"/>
      <point x="488" y="-131"/>
    </contour>
  </outline>
</glyph>
<glyph name="dieresis" format="1">
  <advance width="460"/>
  <unicode hex="00A8"/>
  <outline>
    <contour>
      <point x="414" y="716" type="curve" smooth="yes"/>
      <point x="414" y="753"/>
      <point x="385" y="782"/>
      <point x="347" y="782" type="curve" smooth="yes"/>
      <point x="309" y="782"/>
      <point x="280" y="753"/>
      <point x="280" y="716" type="curve" smooth="yes"/>
      <point x="280" y="679"/>
      <point x="309" y="650"/>
      <point x="347" y="650" type="curve" smooth="yes"/>
      <point x="385" y="650"/>
      <point x="414" y="679"/>
    </contour>
    <contour>
      <point x="179" y="716" type="curve" smooth="yes"/>
      <point x="179" y="753"/>
      <point x="151" y="782"/>
      <point x="113" y="782" type="curve" smooth="yes"/>
      <point x="74" y="782"/>
      <point x="46" y="753"/>
      <point x="46" y="716" type="curve" smooth="yes"/>
      <point x="46" y="679"/>
      <point x="74" y="650"/>
      <point x="113" y="650" type="curve" smooth="yes"/>
      <point x="151" y="650"/>
      <point x="179" y="679"/>
    </contour>
  </outline>
</glyph>
<glyph name="copyright" format="1">
  <advance width="769"/>
  <unicode hex="00A9"/>
  <outline>
    <contour>
      <point x="491" y="180" type="curve"/>
      <point x="491" y="260" type="line"/>
      <point x="469" y="245"/>
      <point x="439" y="235"/>
      <point x="411" y="235" type="curve" smooth="yes"/>
      <point x="355" y="235"/>
      <point x="315" y="276"/>
      <point x="313" y="335" type="curve" smooth="yes"/>
      <point x="314" y="400"/>
      <point x="359" y="437"/>
      <point x="412" y="437" type="curve" smooth="yes"/>
      <point x="437" y="437"/>
      <point x="468" y="430"/>
      <point x="491" y="415" type="curve"/>
      <point x="491" y="494" type="line"/>
      <point x="461" y="510"/>
      <point x="429" y="515"/>
      <point x="405" y="515" type="curve" smooth="yes"/>
      <point x="290" y="515"/>
      <point x="223" y="434"/>
      <point x="222" y="336" type="curve" smooth="yes"/>
      <point x="222" y="234"/>
      <point x="298" y="159"/>
      <point x="401" y="159" type="curve" smooth="yes"/>
      <point x="433" y="159"/>
      <point x="468" y="166"/>
    </contour>
    <contour>
      <point x="730" y="337" type="curve" smooth="yes"/>
      <point x="730" y="526"/>
      <point x="574" y="683"/>
      <point x="385" y="683" type="curve" smooth="yes"/>
      <point x="195" y="683"/>
      <point x="39" y="526"/>
      <point x="39" y="337" type="curve" smooth="yes"/>
      <point x="39" y="147"/>
      <point x="195" y="-8"/>
      <point x="385" y="-8" type="curve" smooth="yes"/>
      <point x="574" y="-8"/>
      <point x="730" y="147"/>
    </contour>
    <contour>
      <point x="121" y="337" type="curve" smooth="yes"/>
      <point x="121" y="485"/>
      <point x="236" y="601"/>
      <point x="385" y="601" type="curve" smooth="yes"/>
      <point x="534" y="601"/>
      <point x="649" y="485"/>
      <point x="649" y="337" type="curve" smooth="yes"/>
      <point x="649" y="187"/>
      <point x="534" y="72"/>
      <point x="385" y="72" type="curve" smooth="yes"/>
      <point x="236" y="72"/>
      <point x="121" y="187"/>
    </contour>
  </outline>
</glyph>
<glyph name="guillemotleft" format="1">
  <advance width="364"/>
  <unicode hex="00AB"/>
  <note>
    guillemotleft
  </note>
  <outline>
    <contour>
      <point x="237" y="75" type="line"/>
      <point x="159" y="180" type="line"/>
      <point x="159" y="184" type="line"/>
      <point x="237" y="289" type="line"/>
      <point x="184" y="313" type="line"/>
      <point x="87" y="182" type="line"/>
      <point x="184" y="51" type="line"/>
    </contour>
    <contour>
      <point x="272" y="80" type="line"/>
      <point x="196" y="180" type="line"/>
      <point x="196" y="184" type="line"/>
      <point x="272" y="284" type="line"/>
      <point x="219" y="309" type="line"/>
      <point x="124" y="182" type="line"/>
      <point x="219" y="55" type="line"/>
    </contour>
  </outline>
</glyph>
<glyph name="logicalnot" format="1">
  <advance width="576"/>
  <unicode hex="00AC"/>
  <outline>
    <contour>
      <point x="535" y="148" type="line"/>
      <point x="535" y="415" type="line"/>
      <point x="35" y="415" type="line"/>
      <point x="35" y="322" type="line"/>
      <point x="438" y="322" type="line"/>
      <point x="438" y="148" type="line"/>
    </contour>
  </outline>
</glyph>
<glyph name="softhyphen" format="1">
  <advance width="246"/>
  <unicode hex="00AD"/>
  <note>
    softhyphen
  </note>
  <outline>
    <contour>
      <point x="210" y="142" type="line"/>
      <point x="210" y="210" type="line"/>
      <point x="36" y="210" type="line"/>
      <point x="36" y="142" type="line"/>
    </contour>
  </outline>
</glyph>
<glyph name="registered" format="1">
  <advance width="470"/>
  <unicode hex="00AE"/>
  <outline>
    <contour>
      <point x="215" y="457" type="line"/>
      <point x="215" y="682" type="line"/>
      <point x="166" y="682" type="line"/>
      <point x="166" y="457" type="line"/>
    </contour>
    <contour>
      <point x="235" y="539" type="line" smooth="yes"/>
      <point x="290" y="539"/>
      <point x="318" y="567"/>
      <point x="318" y="611" type="curve" smooth="yes"/>
      <point x="318" y="655"/>
      <point x="292" y="682"/>
      <point x="232" y="682" type="curve" smooth="yes"/>
      <point x="166" y="682" type="line"/>
      <point x="166" y="642" type="line"/>
      <point x="235" y="642" type="line" smooth="yes"/>
      <point x="256" y="642"/>
      <point x="268" y="634"/>
      <point x="268" y="611" type="curve" smooth="yes"/>
      <point x="268" y="593"/>
      <point x="259" y="579"/>
      <point x="239" y="579" type="curve" smooth="yes"/>
      <point x="166" y="579" type="line"/>
      <point x="166" y="539" type="line"/>
    </contour>
    <contour>
      <point x="338" y="457" type="line"/>
      <point x="267" y="570" type="line"/>
      <point x="212" y="570" type="line"/>
      <point x="279" y="457" type="line"/>
    </contour>
    <contour>
      <point x="460" y="562" type="curve" smooth="yes"/>
      <point x="460" y="693"/>
      <point x="365" y="787"/>
      <point x="235" y="787" type="curve" smooth="yes"/>
      <point x="105" y="787"/>
      <point x="10" y="693"/>
      <point x="10" y="562" type="curve" smooth="yes"/>
      <point x="10" y="432"/>
      <point x="105" y="339"/>
      <point x="235" y="339" type="curve" smooth="yes"/>
      <point x="365" y="339"/>
      <point x="460" y="432"/>
    </contour>
    <contour>
      <point x="65" y="562" type="curve" smooth="yes"/>
      <point x="65" y="664"/>
      <point x="132" y="735"/>
      <point x="236" y="735" type="curve" smooth="yes"/>
      <point x="339" y="735"/>
      <point x="407" y="664"/>
      <point x="407" y="562" type="curve" smooth="yes"/>
      <point x="407" y="460"/>
      <point x="339" y="391"/>
      <point x="236" y="391" type="curve" smooth="yes"/>
      <point x="132" y="391"/>
      <point x="65" y="460"/>
    </contour>
  </outline>
</glyph>
<glyph name="degree" format="1">
  <advance width="397"/>
  <unicode hex="00B0"/>
  <outline>
    <contour>
      <point x="367" y="514" type="curve" smooth="yes"/>
      <point x="367" y="609"/>
      <point x="294" y="681"/>
      <point x="199" y="681" type="curve" smooth="yes"/>
      <point x="105" y="681"/>
      <point x="30" y="607"/>
      <point x="30" y="513" type="curve" smooth="yes"/>
      <point x="30" y="418"/>
      <point x="103" y="346"/>
      <point x="198" y="346" type="curve" smooth="yes"/>
      <point x="292" y="346"/>
      <point x="367" y="420"/>
    </contour>
    <contour>
      <point x="112" y="513" type="curve" smooth="yes"/>
      <point x="112" y="561"/>
      <point x="150" y="601"/>
      <point x="198" y="601" type="curve" smooth="yes"/>
      <point x="246" y="601"/>
      <point x="284" y="561"/>
      <point x="284" y="513" type="curve" smooth="yes"/>
      <point x="284" y="465"/>
      <point x="247" y="426"/>
      <point x="199" y="426" type="curve" smooth="yes"/>
      <point x="151" y="426"/>
      <point x="112" y="465"/>
    </contour>
  </outline>
</glyph>
<glyph name="acute" format="1">
  <advance width="460"/>
  <unicode hex="00B4"/>
  <outline>
    <contour>
      <point x="219" y="632" type="line"/>
      <point x="337" y="798" type="line"/>
      <point x="217" y="798" type="line"/>
      <point x="124" y="632" type="line"/>
    </contour>
  </outline>
</glyph>
<glyph name="mu.math" format="1">
  <advance width="565"/>
  <unicode hex="00B5"/>
  <outline>
    <contour>
      <point x="404" y="189" type="curve"/>
      <point x="387" y="233" type="line"/>
      <point x="387" y="135"/>
      <point x="349" y="88"/>
      <point x="284" y="88" type="curve" smooth="yes"/>
      <point x="228" y="88"/>
      <point x="178" y="122"/>
      <point x="178" y="189" type="curve" smooth="yes"/>
      <point x="178" y="445" type="line"/>
      <point x="104" y="445" type="line"/>
      <point x="104" y="163" type="line" smooth="yes"/>
      <point x="104" y="60"/>
      <point x="175" y="-5"/>
      <point x="268" y="-5" type="curve" smooth="yes"/>
      <point x="363" y="-5"/>
      <point x="413" y="72"/>
    </contour>
    <contour>
      <point x="178" y="-180" type="line"/>
      <point x="178" y="507" type="line"/>
      <point x="66" y="507" type="line"/>
      <point x="66" y="-180" type="line"/>
    </contour>
    <contour>
      <point x="499" y="0" type="line"/>
      <point x="499" y="507" type="line"/>
      <point x="387" y="507" type="line"/>
      <point x="387" y="0" type="line"/>
    </contour>
  </outline>
</glyph>
<glyph name="paragraph" format="1">
  <advance width="568"/>
  <unicode hex="00B6"/>
  <outline>
    <contour>
      <point x="305" y="-148" type="line"/>
      <point x="305" y="674" type="line"/>
      <point x="225" y="674" type="line"/>
      <point x="79" y="674"/>
      <point x="18" y="586"/>
      <point x="18" y="501" type="curve" smooth="yes"/>
      <point x="18" y="411"/>
      <point x="83" y="329"/>
      <point x="214" y="329" type="curve"/>
      <point x="214" y="-148" type="line"/>
    </contour>
    <contour>
      <point x="499" y="-148" type="line"/>
      <point x="499" y="674" type="line"/>
      <point x="409" y="674" type="line"/>
      <point x="408" y="-148" type="line"/>
    </contour>
  </outline>
</glyph>
<glyph name="periodcentered" format="1">
  <advance width="255"/>
  <unicode hex="00B7"/>
  <note>
    periodcentered
  </note>
  <outline>
    <contour>
      <point x="171" y="196" type="curve" smooth="yes"/>
      <point x="171" y="220"/>
      <point x="153" y="237"/>
      <point x="128" y="237" type="curve" smooth="yes"/>
      <point x="102" y="237"/>
      <point x="85" y="220"/>
      <point x="85" y="196" type="curve" smooth="yes"/>
      <point x="85" y="171"/>
      <point x="102" y="154"/>
      <point x="128" y="154" type="curve" smooth="yes"/>
      <point x="153" y="154"/>
      <point x="171" y="171"/>
    </contour>
  </outline>
</glyph>
<glyph name="cedilla" format="1">
  <advance width="460"/>
  <unicode hex="00B8"/>
  <outline>
    <contour>
      <point x="312" y="-123" type="curve" smooth="yes"/>
      <point x="312" y="-99"/>
      <point x="306" y="-69"/>
      <point x="294" y="-51" type="curve"/>
      <point x="202" y="-51" type="line"/>
      <point x="215" y="-70"/>
      <point x="227" y="-91"/>
      <point x="227" y="-118" type="curve" smooth="yes"/>
      <point x="227" y="-158"/>
      <point x="199" y="-183"/>
      <point x="147" y="-186" type="curve"/>
      <point x="147" y="-260" type="line"/>
      <point x="260" y="-258"/>
      <point x="312" y="-196"/>
    </contour>
  </outline>
</glyph>
<glyph name="ordmasculine" format="1">
  <advance width="408"/>
  <unicode hex="00BA"/>
  <outline>
    <contour>
      <point x="406" y="608" type="curve" smooth="yes"/>
      <point x="406" y="731"/>
      <point x="339" y="829"/>
      <point x="204" y="829" type="curve" smooth="yes"/>
      <point x="79" y="829"/>
      <point x="2" y="731"/>
      <point x="2" y="604" type="curve" smooth="yes"/>
      <point x="2" y="482"/>
      <point x="72" y="386"/>
      <point x="204" y="386" type="curve" smooth="yes"/>
      <point x="335" y="386"/>
      <point x="406" y="484"/>
    </contour>
    <contour>
      <point x="101" y="607" type="curve" smooth="yes"/>
      <point x="101" y="684"/>
      <point x="133" y="751"/>
      <point x="203" y="751" type="curve" smooth="yes"/>
      <point x="281" y="751"/>
      <point x="307" y="683"/>
      <point x="307" y="605" type="curve" smooth="yes"/>
      <point x="307" y="528"/>
      <point x="276" y="463"/>
      <point x="205" y="463" type="curve" smooth="yes"/>
      <point x="136" y="463"/>
      <point x="101" y="528"/>
    </contour>
  </outline>
</glyph>
<glyph name="guillemotright" format="1">
  <advance width="357"/>
  <unicode hex="00BB"/>
  <note>
    guillemotright
  </note>
  <outline>
    <contour>
      <point x="316" y="182" type="line"/>
      <point x="219" y="313" type="line"/>
      <point x="166" y="289" type="line"/>
      <point x="244" y="184" type="line"/>
      <point x="244" y="180" type="line"/>
      <point x="166" y="75" type="line"/>
      <point x="219" y="51" type="line"/>
    </contour>
    <contour>
      <point x="187" y="182" type="line"/>
      <point x="91" y="309" type="line"/>
      <point x="39" y="284" type="line"/>
      <point x="114" y="184" type="line"/>
      <point x="114" y="180" type="line"/>
      <point x="39" y="80" type="line"/>
      <point x="91" y="55" type="line"/>
    </contour>
  </outline>
</glyph>
<glyph name="onequarter" format="1">
  <advance width="831"/>
  <unicode hex="00BC"/>
  <outline>
    <contour>
      <point x="224" y="0" type="line"/>
      <point x="663" y="711" type="line"/>
      <point x="574" y="711" type="line"/>
      <point x="134" y="0" type="line"/>
    </contour>
    <contour>
      <point x="232" y="280" type="line"/>
      <point x="232" y="711" type="line"/>
      <point x="164" y="711" type="line"/>
      <point x="38" y="640" type="line"/>
      <point x="38" y="558" type="line"/>
      <point x="149" y="619" type="line"/>
      <point x="149" y="280" type="line"/>
    </contour>
    <contour>
      <point x="804" y="92" type="line"/>
      <point x="804" y="160" type="line"/>
      <point x="470" y="160" type="line"/>
      <point x="470" y="92" type="line"/>
    </contour>
    <contour>
      <point x="554" y="160" type="line"/>
      <point x="699" y="430" type="line"/>
      <point x="619" y="430" type="line"/>
      <point x="470" y="160" type="line"/>
    </contour>
    <contour>
      <point x="747" y="0" type="line"/>
      <point x="747" y="430" type="line"/>
      <point x="665" y="430" type="line"/>
      <point x="665" y="0" type="line"/>
    </contour>
  </outline>
</glyph>
<glyph name="onehalf" format="1">
  <advance width="833"/>
  <unicode hex="00BD"/>
  <outline>
    <contour>
      <point x="224" y="0" type="line"/>
      <point x="663" y="711" type="line"/>
      <point x="574" y="711" type="line"/>
      <point x="134" y="0" type="line"/>
    </contour>
    <contour>
      <point x="232" y="280" type="line"/>
      <point x="232" y="711" type="line"/>
      <point x="164" y="711" type="line"/>
      <point x="38" y="640" type="line"/>
      <point x="38" y="558" type="line"/>
      <point x="149" y="619" type="line"/>
      <point x="149" y="280" type="line"/>
    </contour>
    <contour>
      <point x="805" y="0" type="line"/>
      <point x="805" y="72" type="line"/>
      <point x="629" y="72" type="line"/>
      <point x="720" y="136"/>
      <point x="791" y="217"/>
      <point x="791" y="302" type="curve" smooth="yes"/>
      <point x="791" y="389"/>
      <point x="725" y="435"/>
      <point x="643" y="435" type="curve" smooth="yes"/>
      <point x="600" y="435"/>
      <point x="559" y="421"/>
      <point x="530" y="402" type="curve"/>
      <point x="530" y="316" type="line"/>
      <point x="561" y="339"/>
      <point x="600" y="356"/>
      <point x="633" y="356" type="curve" smooth="yes"/>
      <point x="675" y="356"/>
      <point x="702" y="334"/>
      <point x="702" y="292" type="curve" smooth="yes"/>
      <point x="702" y="220"/>
      <point x="609" y="130"/>
      <point x="518" y="63" type="curve"/>
      <point x="518" y="0" type="line"/>
    </contour>
  </outline>
</glyph>
<glyph name="threequarters" format="1">
  <advance width="882"/>
  <unicode hex="00BE"/>
  <outline>
    <contour>
      <point x="278" y="0" type="line"/>
      <point x="718" y="711" type="line"/>
      <point x="628" y="711" type="line"/>
      <point x="188" y="0" type="line"/>
    </contour>
    <contour>
      <point x="317" y="396" type="curve" smooth="yes"/>
      <point x="317" y="456"/>
      <point x="275" y="493"/>
      <point x="227" y="497" type="curve"/>
      <point x="276" y="508"/>
      <point x="307" y="543"/>
      <point x="307" y="596" type="curve" smooth="yes"/>
      <point x="307" y="662"/>
      <point x="256" y="714"/>
      <point x="162" y="714" type="curve" smooth="yes"/>
      <point x="126" y="714"/>
      <point x="88" y="703"/>
      <point x="62" y="688" type="curve"/>
      <point x="62" y="606" type="line"/>
      <point x="90" y="626"/>
      <point x="127" y="639"/>
      <point x="156" y="639" type="curve" smooth="yes"/>
      <point x="194" y="639"/>
      <point x="219" y="623"/>
      <point x="219" y="587" type="curve" smooth="yes"/>
      <point x="219" y="550"/>
      <point x="183" y="532"/>
      <point x="138" y="532" type="curve" smooth="yes"/>
      <point x="119" y="532" type="line"/>
      <point x="119" y="460" type="line"/>
      <point x="138" y="460" type="line" smooth="yes"/>
      <point x="205" y="460"/>
      <point x="230" y="437"/>
      <point x="230" y="405" type="curve" smooth="yes"/>
      <point x="230" y="372"/>
      <point x="204" y="349"/>
      <point x="160" y="349" type="curve" smooth="yes"/>
      <point x="120" y="349"/>
      <point x="83" y="359"/>
      <point x="48" y="378" type="curve"/>
      <point x="48" y="301" type="line"/>
      <point x="80" y="284"/>
      <point x="132" y="275"/>
      <point x="170" y="275" type="curve" smooth="yes"/>
      <point x="263" y="275"/>
      <point x="317" y="325"/>
    </contour>
    <contour>
      <point x="858" y="92" type="line"/>
      <point x="858" y="160" type="line"/>
      <point x="524" y="160" type="line"/>
      <point x="524" y="92" type="line"/>
    </contour>
    <contour>
      <point x="609" y="160" type="line"/>
      <point x="753" y="430" type="line"/>
      <point x="673" y="430" type="line"/>
      <point x="524" y="160" type="line"/>
    </contour>
    <contour>
      <point x="801" y="0" type="line"/>
      <point x="801" y="430" type="line"/>
      <point x="720" y="430" type="line"/>
      <point x="720" y="0" type="line"/>
    </contour>
  </outline>
</glyph>
<glyph name="questiondown" format="1">
  <advance width="450"/>
  <unicode hex="00BF"/>
  <note>
    questiondown
  </note>
  <outline>
    <contour>
      <point x="377" y="-43" type="curve"/>
      <point x="377" y="-28" type="line" smooth="yes"/>
      <point x="377" y="-4"/>
      <point x="373" y="24"/>
      <point x="367" y="46" type="curve"/>
      <point x="306" y="46" type="line"/>
      <point x="306" y="3" type="line"/>
      <point x="280" y="-5"/>
      <point x="255" y="-8"/>
      <point x="223" y="-8" type="curve" smooth="yes"/>
      <point x="172" y="-8"/>
      <point x="148" y="4"/>
      <point x="148" y="46" type="curve" smooth="yes"/>
      <point x="148" y="79" type="line"/>
      <point x="260" y="159" type="line" smooth="yes"/>
      <point x="277" y="172"/>
      <point x="283" y="182"/>
      <point x="283" y="202" type="curve" smooth="yes"/>
      <point x="283" y="262" type="line"/>
      <point x="209" y="262" type="line"/>
      <point x="209" y="221" type="line" smooth="yes"/>
      <point x="209" y="204"/>
      <point x="207" y="198"/>
      <point x="195" y="189" type="curve" smooth="yes"/>
      <point x="119" y="136" type="line" smooth="yes"/>
      <point x="83" y="109"/>
      <point x="74" y="83"/>
      <point x="74" y="40" type="curve" smooth="yes"/>
      <point x="74" y="-38"/>
      <point x="122" y="-78"/>
      <point x="222" y="-78" type="curve" smooth="yes"/>
      <point x="286" y="-78"/>
      <point x="341" y="-61"/>
    </contour>
    <contour>
      <point x="284" y="302" type="line"/>
      <point x="284" y="377" type="line"/>
      <point x="207" y="377" type="line"/>
      <point x="207" y="302" type="line"/>
    </contour>
  </outline>
</glyph>
<glyph name="AE" format="1">
  <advance width="909"/>
  <unicode hex="00C6"/>
  <outline>
    <contour>
      <point x="139" y="0" type="line"/>
      <point x="293" y="285" type="line" smooth="yes"/>
      <point x="410" y="497"/>
      <point x="477" y="635"/>
      <point x="487" y="674" type="curve"/>
      <point x="370" y="674" type="line"/>
      <point x="16" y="0" type="line"/>
    </contour>
    <contour>
      <point x="511" y="158" type="line"/>
      <point x="511" y="254" type="line"/>
      <point x="202" y="254" type="line"/>
      <point x="202" y="158" type="line"/>
    </contour>
    <contour>
      <point x="855" y="0" type="line"/>
      <point x="855" y="97" type="line"/>
      <point x="496" y="97" type="line"/>
      <point x="496" y="0" type="line"/>
    </contour>
    <contour>
      <point x="576" y="0" type="line"/>
      <point x="576" y="674" type="line"/>
      <point x="461" y="674" type="line"/>
      <point x="461" y="0" type="line"/>
    </contour>
    <contour>
      <point x="820" y="289" type="line"/>
      <point x="820" y="385" type="line"/>
      <point x="496" y="385" type="line"/>
      <point x="496" y="289" type="line"/>
    </contour>
    <contour>
      <point x="850" y="577" type="line"/>
      <point x="850" y="674" type="line"/>
      <point x="496" y="674" type="line"/>
      <point x="496" y="577" type="line"/>
    </contour>
  </outline>
</glyph>
<glyph name="Eth" format="1">
  <advance width="739"/>
  <unicode hex="00D0"/>
  <outline>
    <contour>
      <point x="355" y="0" type="line"/>
      <point x="570" y="0"/>
      <point x="697" y="144"/>
      <point x="697" y="345" type="curve" smooth="yes"/>
      <point x="697" y="534"/>
      <point x="557" y="674"/>
      <point x="355" y="674" type="curve" smooth="yes"/>
      <point x="139" y="674" type="line"/>
      <point x="139" y="575" type="line"/>
      <point x="352" y="575" type="line" smooth="yes"/>
      <point x="493" y="575"/>
      <point x="578" y="475"/>
      <point x="578" y="345" type="curve" smooth="yes"/>
      <point x="578" y="203"/>
      <point x="505" y="98"/>
      <point x="354" y="98" type="curve" smooth="yes"/>
      <point x="139" y="98" type="line"/>
      <point x="139" y="0" type="line"/>
    </contour>
    <contour>
      <point x="258" y="0" type="line"/>
      <point x="258" y="674" type="line"/>
      <point x="139" y="674" type="line"/>
      <point x="139" y="0" type="line"/>
    </contour>
    <contour>
      <point x="415" y="287" type="line"/>
      <point x="415" y="382" type="line"/>
      <point x="63" y="382" type="line"/>
      <point x="63" y="287" type="line"/>
    </contour>
  </outline>
</glyph>
<glyph name="multiply" format="1">
  <advance width="510"/>
  <unicode hex="00D7"/>
  <outline>
    <contour>
      <point x="457" y="209" type="line"/>
      <point x="122" y="543" type="line"/>
      <point x="50" y="472" type="line"/>
      <point x="386" y="138" type="line"/>
    </contour>
    <contour>
      <point x="458" y="470" type="line"/>
      <point x="385" y="543" type="line"/>
      <point x="53" y="212" type="line"/>
      <point x="126" y="139" type="line"/>
    </contour>
  </outline>
</glyph>
<glyph name="Oslash" format="1">
  <advance width="694"/>
  <unicode hex="00D8"/>
  <outline>
    <contour>
      <point x="670" y="339" type="curve" smooth="yes"/>
      <point x="670" y="548"/>
      <point x="550" y="686"/>
      <point x="354" y="686" type="curve" smooth="yes"/>
      <point x="162" y="686"/>
      <point x="40" y="548"/>
      <point x="40" y="339" type="curve" smooth="yes"/>
      <point x="40" y="130"/>
      <point x="163" y="-7"/>
      <point x="355" y="-7" type="curve" smooth="yes"/>
      <point x="548" y="-7"/>
      <point x="670" y="131"/>
    </contour>
    <contour>
      <point x="160" y="339" type="curve" smooth="yes"/>
      <point x="160" y="490"/>
      <point x="234" y="583"/>
      <point x="354" y="583" type="curve" smooth="yes"/>
      <point x="477" y="583"/>
      <point x="549" y="493"/>
      <point x="549" y="339" type="curve" smooth="yes"/>
      <point x="549" y="189"/>
      <point x="477" y="96"/>
      <point x="355" y="96" type="curve" smooth="yes"/>
      <point x="237" y="96"/>
      <point x="160" y="186"/>
    </contour>
    <contour>
      <point x="156" y="-8" type="line"/>
      <point x="671" y="686" type="line"/>
      <point x="555" y="686" type="line"/>
      <point x="40" y="-8" type="line"/>
    </contour>
  </outline>
</glyph>
<glyph name="germandbls" format="1">
  <advance width="569"/>
  <unicode hex="00DF"/>
  <outline>
    <contour>
      <point x="544" y="148" type="curve" smooth="yes"/>
      <point x="544" y="286"/>
      <point x="407" y="310"/>
      <point x="407" y="362" type="curve" smooth="yes"/>
      <point x="407" y="407"/>
      <point x="473" y="432"/>
      <point x="473" y="528" type="curve" smooth="yes"/>
      <point x="473" y="614"/>
      <point x="398" y="690"/>
      <point x="276" y="690" type="curve" smooth="yes"/>
      <point x="147" y="690"/>
      <point x="68" y="618"/>
      <point x="68" y="479" type="curve"/>
      <point x="68" y="0" type="line"/>
      <point x="178" y="0" type="line"/>
      <point x="178" y="484" type="line"/>
      <point x="178" y="558"/>
      <point x="214" y="590"/>
      <point x="279" y="590" type="curve" smooth="yes"/>
      <point x="330" y="590"/>
      <point x="360" y="562"/>
      <point x="360" y="520" type="curve" smooth="yes"/>
      <point x="360" y="455"/>
      <point x="291" y="428"/>
      <point x="291" y="351" type="curve" smooth="yes"/>
      <point x="291" y="246"/>
      <point x="438" y="228"/>
      <point x="438" y="145" type="curve" smooth="yes"/>
      <point x="438" y="107"/>
      <point x="407" y="83"/>
      <point x="362" y="83" type="curve" smooth="yes"/>
      <point x="327" y="83"/>
      <point x="303" y="89"/>
      <point x="269" y="110" type="curve"/>
      <point x="269" y="10" type="line"/>
      <point x="295" y="-4"/>
      <point x="337" y="-8"/>
      <point x="370" y="-8" type="curve" smooth="yes"/>
      <point x="479" y="-8"/>
      <point x="544" y="56"/>
    </contour>
  </outline>
</glyph>
<glyph name="ae" format="1">
  <advance width="814"/>
  <unicode hex="00E6"/>
  <outline>
    <contour>
      <point x="394" y="94" type="curve"/>
      <point x="434" y="28"/>
      <point x="517" y="-5"/>
      <point x="594" y="-5" type="curve" smooth="yes"/>
      <point x="643" y="-5"/>
      <point x="703" y="6"/>
      <point x="740" y="27" type="curve"/>
      <point x="740" y="125" type="line"/>
      <point x="707" y="101"/>
      <point x="659" y="86"/>
      <point x="606" y="86" type="curve" smooth="yes"/>
      <point x="525" y="86"/>
      <point x="462" y="128"/>
      <point x="445" y="208" type="curve"/>
      <point x="767" y="208" type="line"/>
      <point x="770" y="227"/>
      <point x="774" y="258"/>
      <point x="774" y="275" type="curve" smooth="yes"/>
      <point x="774" y="433"/>
      <point x="693" y="512"/>
      <point x="562" y="512" type="curve" smooth="yes"/>
      <point x="492" y="512"/>
      <point x="431" y="484"/>
      <point x="396" y="433" type="curve"/>
      <point x="374" y="484"/>
      <point x="319" y="516"/>
      <point x="239" y="516" type="curve" smooth="yes"/>
      <point x="172" y="516"/>
      <point x="116" y="499"/>
      <point x="84" y="480" type="curve"/>
      <point x="84" y="377" type="line"/>
      <point x="122" y="402"/>
      <point x="178" y="421"/>
      <point x="232" y="421" type="curve" smooth="yes"/>
      <point x="309" y="421"/>
      <point x="334" y="385"/>
      <point x="334" y="328" type="curve" smooth="yes"/>
      <point x="334" y="298" type="line"/>
      <point x="257" y="298" type="line" smooth="yes"/>
      <point x="121" y="298"/>
      <point x="46" y="240"/>
      <point x="46" y="143" type="curve" smooth="yes"/>
      <point x="46" y="54"/>
      <point x="110" y="-4"/>
      <point x="216" y="-4" type="curve" smooth="yes"/>
      <point x="316" y="-4"/>
      <point x="373" y="43"/>
    </contour>
    <contour>
      <point x="163" y="148" type="curve" smooth="yes"/>
      <point x="163" y="194"/>
      <point x="201" y="220"/>
      <point x="273" y="220" type="curve" smooth="yes"/>
      <point x="334" y="220" type="line"/>
      <point x="334" y="174" type="line"/>
      <point x="334" y="117"/>
      <point x="295" y="82"/>
      <point x="242" y="82" type="curve" smooth="yes"/>
      <point x="189" y="82"/>
      <point x="163" y="107"/>
    </contour>
    <contour>
      <point x="565" y="423" type="curve" smooth="yes"/>
      <point x="629" y="423"/>
      <point x="664" y="379"/>
      <point x="667" y="309" type="curve"/>
      <point x="667" y="293" type="line"/>
      <point x="442" y="293" type="line"/>
      <point x="455" y="383"/>
      <point x="508" y="423"/>
    </contour>
  </outline>
</glyph>
<glyph name="iacute" format="1">
  <advance width="254"/>
  <unicode hex="00ED"/>
  <outline>
    <contour>
      <point x="183" y="0" type="line"/>
      <point x="183" y="507" type="line"/>
      <point x="71" y="507" type="line"/>
      <point x="71" y="0" type="line"/>
    </contour>
    <component base="acute" xOffset="-38" yOffset="-75"/>
  </outline>
</glyph>
<glyph name="eth" format="1">
  <advance width="537"/>
  <unicode hex="00F0"/>
  <outline>
    <contour>
      <point x="490" y="279" type="curve" smooth="yes"/>
      <point x="490" y="440"/>
      <point x="399" y="597"/>
      <point x="283" y="674" type="curve"/>
      <point x="130" y="674" type="line"/>
      <point x="263" y="595"/>
      <point x="381" y="466"/>
      <point x="381" y="279" type="curve" smooth="yes"/>
      <point x="381" y="133"/>
      <point x="322" y="92"/>
      <point x="259" y="92" type="curve" smooth="yes"/>
      <point x="195" y="92"/>
      <point x="152" y="133"/>
      <point x="152" y="197" type="curve" smooth="yes"/>
      <point x="152" y="268"/>
      <point x="194" y="307"/>
      <point x="256" y="307" type="curve" smooth="yes"/>
      <point x="329" y="307"/>
      <point x="379" y="258"/>
      <point x="412" y="199" type="curve"/>
      <point x="415" y="287" type="line"/>
      <point x="386" y="355"/>
      <point x="320" y="405"/>
      <point x="233" y="405" type="curve" smooth="yes"/>
      <point x="125" y="405"/>
      <point x="37" y="329"/>
      <point x="37" y="203" type="curve" smooth="yes"/>
      <point x="37" y="91"/>
      <point x="118" y="-10"/>
      <point x="260" y="-10" type="curve" smooth="yes"/>
      <point x="407" y="-10"/>
      <point x="490" y="100"/>
    </contour>
    <contour>
      <point x="467" y="607" type="line"/>
      <point x="467" y="678" type="line"/>
      <point x="159" y="524" type="line"/>
      <point x="159" y="453" type="line"/>
    </contour>
  </outline>
</glyph>
<glyph name="divide" format="1">
  <advance width="571"/>
  <unicode hex="00F7"/>
  <outline>
    <contour>
      <point x="520" y="290" type="line"/>
      <point x="520" y="390" type="line"/>
      <point x="51" y="390" type="line"/>
      <point x="51" y="290" type="line"/>
    </contour>
    <contour>
      <point x="347" y="163" type="curve" smooth="yes"/>
      <point x="347" y="197"/>
      <point x="317" y="227"/>
      <point x="283" y="227" type="curve" smooth="yes"/>
      <point x="248" y="227"/>
      <point x="219" y="197"/>
      <point x="219" y="163" type="curve" smooth="yes"/>
      <point x="219" y="128"/>
      <point x="248" y="99"/>
      <point x="283" y="99" type="curve" smooth="yes"/>
      <point x="317" y="99"/>
      <point x="347" y="128"/>
    </contour>
    <contour>
      <point x="347" y="517" type="curve" smooth="yes"/>
      <point x="347" y="552"/>
      <point x="317" y="581"/>
      <point x="283" y="581" type="curve" smooth="yes"/>
      <point x="248" y="581"/>
      <point x="219" y="552"/>
      <point x="219" y="517" type="curve" smooth="yes"/>
      <point x="219" y="483"/>
      <point x="248" y="453"/>
      <point x="283" y="453" type="curve" smooth="yes"/>
      <point x="317" y="453"/>
      <point x="347" y="483"/>
    </contour>
  </outline>
</glyph>
<glyph name="oslash" format="1">
  <advance width="562"/>
  <unicode hex="00F8"/>
  <outline>
    <contour>
      <point x="532" y="254" type="curve" smooth="yes"/>
      <point x="532" y="398"/>
      <point x="450" y="515"/>
      <point x="288" y="515" type="curve" smooth="yes"/>
      <point x="140" y="515"/>
      <point x="46" y="398"/>
      <point x="46" y="249" type="curve" smooth="yes"/>
      <point x="46" y="105"/>
      <point x="131" y="-8"/>
      <point x="288" y="-8" type="curve" smooth="yes"/>
      <point x="446" y="-8"/>
      <point x="532" y="107"/>
    </contour>
    <contour>
      <point x="151" y="252" type="curve" smooth="yes"/>
      <point x="151" y="350"/>
      <point x="196" y="433"/>
      <point x="288" y="433" type="curve" smooth="yes"/>
      <point x="391" y="433"/>
      <point x="428" y="348"/>
      <point x="428" y="251" type="curve" smooth="yes"/>
      <point x="428" y="153"/>
      <point x="384" y="72"/>
      <point x="289" y="72" type="curve" smooth="yes"/>
      <point x="199" y="72"/>
      <point x="151" y="155"/>
    </contour>
    <contour>
      <point x="147" y="-8" type="line"/>
      <point x="532" y="515" type="line"/>
      <point x="430" y="515" type="line"/>
      <point x="46" y="-8" type="line"/>
    </contour>
  </outline>
</glyph>
<glyph name="Aogonek" format="1">
  <advance width="663"/>
  <unicode hex="0104"/>
  <outline>
    <contour>
      <point x="149" y="0" type="line"/>
      <point x="240" y="285" type="line" smooth="yes"/>
      <point x="321" y="537"/>
      <point x="331" y="586"/>
      <point x="331" y="586" type="curve"/>
      <point x="331" y="586"/>
      <point x="341" y="537"/>
      <point x="421" y="286" type="curve" smooth="yes"/>
      <point x="511" y="0" type="line"/>
      <point x="637" y="0" type="line"/>
      <point x="409" y="674" type="line"/>
      <point x="256" y="674" type="line"/>
      <point x="26" y="0" type="line"/>
    </contour>
    <contour>
      <point x="653" y="-229" type="curve"/>
      <point x="653" y="-148" type="line"/>
      <point x="633" y="-162"/>
      <point x="606" y="-174"/>
      <point x="575" y="-174" type="curve" smooth="yes"/>
      <point x="542" y="-174"/>
      <point x="522" y="-158"/>
      <point x="522" y="-128" type="curve" smooth="yes"/>
      <point x="522" y="-80"/>
      <point x="577" y="-33"/>
      <point x="637" y="0" type="curve"/>
      <point x="587" y="51" type="line"/>
      <point x="523" y="26"/>
      <point x="430" y="-40"/>
      <point x="430" y="-137" type="curve" smooth="yes"/>
      <point x="430" y="-200"/>
      <point x="470" y="-251"/>
      <point x="559" y="-251" type="curve" smooth="yes"/>
      <point x="597" y="-251"/>
      <point x="628" y="-243"/>
    </contour>
    <contour>
      <point x="504" y="158" type="line"/>
      <point x="504" y="254" type="line"/>
      <point x="170" y="254" type="line"/>
      <point x="170" y="158" type="line"/>
    </contour>
  </outline>
</glyph>
<glyph name="dcaron" format="1">
  <advance width="702"/>
  <unicode hex="010F"/>
  <outline>
    <contour>
      <point x="453" y="257" type="curve" smooth="yes"/>
      <point x="453" y="419"/>
      <point x="372" y="514"/>
      <point x="258" y="514" type="curve" smooth="yes"/>
      <point x="133" y="514"/>
      <point x="39" y="414"/>
      <point x="39" y="252" type="curve" smooth="yes"/>
      <point x="39" y="117"/>
      <point x="117" y="-7"/>
      <point x="256" y="-7" type="curve" smooth="yes"/>
      <point x="380" y="-7"/>
      <point x="453" y="96"/>
    </contour>
    <contour>
      <point x="153" y="250" type="curve" smooth="yes"/>
      <point x="153" y="362"/>
      <point x="212" y="418"/>
      <point x="281" y="418" type="curve" smooth="yes"/>
      <point x="338" y="418"/>
      <point x="410" y="375"/>
      <point x="410" y="258" type="curve" smooth="yes"/>
      <point x="410" y="140"/>
      <point x="348" y="90"/>
      <point x="279" y="90" type="curve" smooth="yes"/>
      <point x="209" y="90"/>
      <point x="153" y="153"/>
    </contour>
    <contour>
      <point x="522" y="0" type="line"/>
      <point x="522" y="707" type="line"/>
      <point x="410" y="707" type="line"/>
      <point x="410" y="0" type="line"/>
    </contour>
    <contour>
      <point x="660" y="506" type="line"/>
      <point x="774" y="708" type="line"/>
      <point x="653" y="708" type="line"/>
      <point x="575" y="506" type="line"/>
    </contour>
  </outline>
</glyph>
<glyph name="Gcommaaccent" format="1">
  <advance width="688"/>
  <unicode hex="0122"/>
  <outline>
    <contour>
      <point x="624" y="57" type="curve"/>
      <point x="612" y="183" type="line"/>
      <point x="575" y="149"/>
      <point x="503" y="100"/>
      <point x="403" y="100" type="curve" smooth="yes"/>
      <point x="257" y="100"/>
      <point x="169" y="191"/>
      <point x="169" y="338" type="curve" smooth="yes"/>
      <point x="169" y="483"/>
      <point x="262" y="577"/>
      <point x="400" y="577" type="curve" smooth="yes"/>
      <point x="456" y="577"/>
      <point x="524" y="564"/>
      <point x="594" y="522" type="curve"/>
      <point x="594" y="642" type="line"/>
      <point x="532" y="675"/>
      <point x="461" y="686"/>
      <point x="397" y="686" type="curve" smooth="yes"/>
      <point x="195" y="686"/>
      <point x="44" y="548"/>
      <point x="44" y="338" type="curve" smooth="yes"/>
      <point x="44" y="122"/>
      <point x="190" y="-8"/>
      <point x="399" y="-8" type="curve" smooth="yes"/>
      <point x="500" y="-8"/>
      <point x="578" y="24"/>
    </contour>
    <contour>
      <point x="322" y="-252" type="line"/>
      <point x="436" y="-51" type="line"/>
      <point x="315" y="-51" type="line"/>
      <point x="237" y="-252" type="line"/>
    </contour>
    <contour>
      <point x="624" y="66" type="line"/>
      <point x="624" y="390" type="line"/>
      <point x="509" y="390" type="line"/>
      <point x="509" y="36" type="line"/>
    </contour>
    <contour>
      <point x="624" y="289" type="line"/>
      <point x="624" y="390" type="line"/>
      <point x="380" y="390" type="line"/>
      <point x="380" y="289" type="line"/>
    </contour>
  </outline>
</glyph>
<glyph name="imacron" format="1">
  <advance width="254"/>
  <unicode hex="012B"/>
  <outline>
    <contour>
      <point x="183" y="0" type="line"/>
      <point x="183" y="507" type="line"/>
      <point x="71" y="507" type="line"/>
      <point x="71" y="0" type="line"/>
    </contour>
    <component base="macron" xOffset="-102" yOffset="-71"/>
  </outline>
</glyph>
<glyph name="Kcommaaccent" format="1">
  <advance width="617"/>
  <unicode hex="0136"/>
  <outline>
    <contour>
      <point x="595" y="0" type="line"/>
      <point x="339" y="335" type="line"/>
      <point x="200" y="334" type="line"/>
      <point x="446" y="0" type="line"/>
    </contour>
    <contour>
      <point x="262" y="-252" type="line"/>
      <point x="376" y="-51" type="line"/>
      <point x="255" y="-51" type="line"/>
      <point x="177" y="-252" type="line"/>
    </contour>
    <contour>
      <point x="188" y="0" type="line"/>
      <point x="188" y="674" type="line"/>
      <point x="71" y="674" type="line"/>
      <point x="71" y="0" type="line"/>
    </contour>
    <contour>
      <point x="339" y="335" type="line"/>
      <point x="578" y="674" type="line"/>
      <point x="437" y="674" type="line"/>
      <point x="200" y="334" type="line"/>
    </contour>
  </outline>
</glyph>
<glyph name="kcommaaccent" format="1">
  <advance width="514"/>
  <unicode hex="0137"/>
  <outline>
    <contour>
      <point x="178" y="0" type="line"/>
      <point x="178" y="697" type="line"/>
      <point x="66" y="697" type="line"/>
      <point x="66" y="0" type="line"/>
    </contour>
    <contour>
      <point x="305" y="265" type="line"/>
      <point x="494" y="507" type="line"/>
      <point x="363" y="507" type="line"/>
      <point x="178" y="265" type="line"/>
    </contour>
    <contour>
      <point x="498" y="0" type="line"/>
      <point x="305" y="265" type="line"/>
      <point x="178" y="265" type="line"/>
      <point x="366" y="0" type="line"/>
    </contour>
    <contour>
      <point x="218" y="-252" type="line"/>
      <point x="331" y="-51" type="line"/>
      <point x="210" y="-51" type="line"/>
      <point x="132" y="-252" type="line"/>
    </contour>
  </outline>
</glyph>
<glyph name="Lcommaaccent" format="1">
  <advance width="482"/>
  <unicode hex="013B"/>
  <outline>
    <contour>
      <point x="188" y="0" type="line"/>
      <point x="188" y="674" type="line"/>
      <point x="71" y="674" type="line"/>
      <point x="71" y="0" type="line"/>
    </contour>
    <contour>
      <point x="224" y="-252" type="line"/>
      <point x="338" y="-51" type="line"/>
      <point x="217" y="-51" type="line"/>
      <point x="139" y="-252" type="line"/>
    </contour>
    <contour>
      <point x="456" y="0" type="line"/>
      <point x="456" y="104" type="line"/>
      <point x="109" y="104" type="line"/>
      <point x="109" y="0" type="line"/>
    </contour>
  </outline>
</glyph>
<glyph name="lcommaaccent" format="1">
  <advance width="254"/>
  <unicode hex="013C"/>
  <outline>
    <contour>
      <point x="183" y="0" type="line"/>
      <point x="183" y="707" type="line"/>
      <point x="71" y="707" type="line"/>
      <point x="71" y="0" type="line"/>
    </contour>
    <contour>
      <point x="73" y="-252" type="line"/>
      <point x="187" y="-51" type="line"/>
      <point x="66" y="-51" type="line"/>
      <point x="-12" y="-252" type="line"/>
    </contour>
  </outline>
</glyph>
<glyph name="Lcaron" format="1">
  <advance width="482"/>
  <unicode hex="013D"/>
  <outline>
    <contour>
      <point x="188" y="0" type="line"/>
      <point x="188" y="674" type="line"/>
      <point x="71" y="674" type="line"/>
      <point x="71" y="0" type="line"/>
    </contour>
    <contour>
      <point x="456" y="0" type="line"/>
      <point x="456" y="104" type="line"/>
      <point x="109" y="104" type="line"/>
      <point x="109" y="0" type="line"/>
    </contour>
    <contour>
      <point x="349" y="499" type="line"/>
      <point x="462" y="700" type="line"/>
      <point x="341" y="700" type="line"/>
      <point x="263" y="499" type="line"/>
    </contour>
  </outline>
</glyph>
<glyph name="lcaron" format="1">
  <advance width="267"/>
  <unicode hex="013E"/>
  <outline>
    <contour>
      <point x="183" y="0" type="line"/>
      <point x="183" y="707" type="line"/>
      <point x="71" y="707" type="line"/>
      <point x="71" y="0" type="line"/>
    </contour>
    <contour>
      <point x="331" y="507" type="line"/>
      <point x="445" y="708" type="line"/>
      <point x="324" y="708" type="line"/>
      <point x="246" y="507" type="line"/>
    </contour>
  </outline>
</glyph>
<glyph name="Lslash" format="1">
  <advance width="531"/>
  <unicode hex="0141"/>
  <outline>
    <contour>
      <point x="385" y="394" type="line"/>
      <point x="385" y="493" type="line"/>
      <point x="37" y="278" type="line"/>
      <point x="37" y="179" type="line"/>
    </contour>
    <contour>
      <point x="496" y="0" type="line"/>
      <point x="496" y="104" type="line"/>
      <point x="149" y="104" type="line"/>
      <point x="149" y="0" type="line"/>
    </contour>
    <contour>
      <point x="228" y="0" type="line"/>
      <point x="228" y="674" type="line"/>
      <point x="111" y="674" type="line"/>
      <point x="111" y="0" type="line"/>
    </contour>
  </outline>
</glyph>
<glyph name="lslash" format="1">
  <advance width="316"/>
  <unicode hex="0142"/>
  <outline>
    <contour>
      <point x="214" y="0" type="line"/>
      <point x="214" y="707" type="line"/>
      <point x="102" y="707" type="line"/>
      <point x="102" y="0" type="line"/>
    </contour>
    <contour>
      <point x="296" y="418" type="line"/>
      <point x="296" y="517" type="line"/>
      <point x="29" y="332" type="line"/>
      <point x="29" y="233" type="line"/>
    </contour>
  </outline>
</glyph>
<glyph name="Ncommaaccent" format="1">
  <advance width="685"/>
  <unicode hex="0145"/>
  <outline>
    <contour>
      <point x="188" y="0" type="line"/>
      <point x="188" y="281" type="line" smooth="yes"/>
      <point x="188" y="436"/>
      <point x="178" y="533"/>
      <point x="178" y="533" type="curve"/>
      <point x="178" y="533"/>
      <point x="221" y="437"/>
      <point x="314" y="281" type="curve" smooth="yes"/>
      <point x="479" y="0" type="line"/>
      <point x="614" y="0" type="line"/>
      <point x="614" y="674" type="line"/>
      <point x="497" y="674" type="line"/>
      <point x="497" y="392" type="line" smooth="yes"/>
      <point x="497" y="229"/>
      <point x="504" y="143"/>
      <point x="504" y="143" type="curve"/>
      <point x="504" y="143"/>
      <point x="466" y="228"/>
      <point x="369" y="393" type="curve" smooth="yes"/>
      <point x="206" y="674" type="line"/>
      <point x="71" y="674" type="line"/>
      <point x="71" y="0" type="line"/>
    </contour>
    <contour>
      <point x="299" y="-252" type="line"/>
      <point x="412" y="-51" type="line"/>
      <point x="291" y="-51" type="line"/>
      <point x="213" y="-252" type="line"/>
    </contour>
  </outline>
</glyph>
<glyph name="OE" format="1">
  <advance width="992"/>
  <unicode hex="0152"/>
  <outline>
    <contour>
      <point x="646" y="339" type="curve" smooth="yes"/>
      <point x="646" y="542"/>
      <point x="532" y="686"/>
      <point x="354" y="686" type="curve" smooth="yes"/>
      <point x="161" y="686"/>
      <point x="44" y="548"/>
      <point x="44" y="339" type="curve" smooth="yes"/>
      <point x="44" y="130"/>
      <point x="163" y="-7"/>
      <point x="355" y="-7" type="curve" smooth="yes"/>
      <point x="529" y="-7"/>
      <point x="646" y="137"/>
    </contour>
    <contour>
      <point x="169" y="339" type="curve" smooth="yes"/>
      <point x="169" y="487"/>
      <point x="236" y="578"/>
      <point x="354" y="578" type="curve" smooth="yes"/>
      <point x="474" y="578"/>
      <point x="540" y="487"/>
      <point x="540" y="339" type="curve" smooth="yes"/>
      <point x="540" y="192"/>
      <point x="474" y="101"/>
      <point x="355" y="101" type="curve" smooth="yes"/>
      <point x="239" y="101"/>
      <point x="169" y="192"/>
    </contour>
    <contour>
      <point x="938" y="0" type="line"/>
      <point x="938" y="97" type="line"/>
      <point x="578" y="97" type="line"/>
      <point x="578" y="0" type="line"/>
    </contour>
    <contour>
      <point x="652" y="0" type="line"/>
      <point x="652" y="674" type="line"/>
      <point x="540" y="674" type="line"/>
      <point x="540" y="0" type="line"/>
    </contour>
    <contour>
      <point x="902" y="289" type="line"/>
      <point x="902" y="385" type="line"/>
      <point x="578" y="385" type="line"/>
      <point x="578" y="289" type="line"/>
    </contour>
    <contour>
      <point x="933" y="577" type="line"/>
      <point x="933" y="674" type="line"/>
      <point x="578" y="674" type="line"/>
      <point x="578" y="577" type="line"/>
    </contour>
  </outline>
</glyph>
<glyph name="oe" format="1">
  <advance width="886"/>
  <unicode hex="0153"/>
  <outline>
    <contour>
      <point x="511" y="254" type="curve" smooth="yes"/>
      <point x="511" y="398"/>
      <point x="430" y="515"/>
      <point x="278" y="515" type="curve" smooth="yes"/>
      <point x="129" y="515"/>
      <point x="39" y="398"/>
      <point x="39" y="249" type="curve" smooth="yes"/>
      <point x="39" y="105"/>
      <point x="120" y="-8"/>
      <point x="278" y="-8" type="curve" smooth="yes"/>
      <point x="426" y="-8"/>
      <point x="511" y="107"/>
    </contour>
    <contour>
      <point x="156" y="252" type="curve" smooth="yes"/>
      <point x="156" y="344"/>
      <point x="193" y="422"/>
      <point x="277" y="422" type="curve" smooth="yes"/>
      <point x="371" y="422"/>
      <point x="403" y="342"/>
      <point x="403" y="251" type="curve" smooth="yes"/>
      <point x="403" y="160"/>
      <point x="365" y="83"/>
      <point x="278" y="83" type="curve" smooth="yes"/>
      <point x="196" y="83"/>
      <point x="156" y="161"/>
    </contour>
    <contour>
      <point x="812" y="27" type="curve"/>
      <point x="812" y="125" type="line"/>
      <point x="778" y="101"/>
      <point x="730" y="86"/>
      <point x="678" y="86" type="curve" smooth="yes"/>
      <point x="582" y="86"/>
      <point x="511" y="144"/>
      <point x="511" y="253" type="curve" smooth="yes"/>
      <point x="511" y="371"/>
      <point x="572" y="423"/>
      <point x="637" y="423" type="curve" smooth="yes"/>
      <point x="699" y="423"/>
      <point x="735" y="382"/>
      <point x="738" y="315" type="curve" smooth="yes"/>
      <point x="739" y="293" type="line"/>
      <point x="474" y="293" type="line"/>
      <point x="474" y="208" type="line"/>
      <point x="839" y="208" type="line"/>
      <point x="842" y="227"/>
      <point x="845" y="258"/>
      <point x="845" y="275" type="curve" smooth="yes"/>
      <point x="845" y="433"/>
      <point x="765" y="512"/>
      <point x="634" y="512" type="curve" smooth="yes"/>
      <point x="514" y="512"/>
      <point x="403" y="421"/>
      <point x="403" y="253" type="curve" smooth="yes"/>
      <point x="403" y="101"/>
      <point x="510" y="-5"/>
      <point x="662" y="-5" type="curve" smooth="yes"/>
      <point x="710" y="-5"/>
      <point x="775" y="5"/>
    </contour>
  </outline>
</glyph>
<glyph name="tcedilla" format="1">
  <advance width="377"/>
  <unicode hex="0163"/>
  <outline>
    <contour>
      <point x="341" y="12" type="curve"/>
      <point x="341" y="110" type="line"/>
      <point x="322" y="96"/>
      <point x="295" y="88"/>
      <point x="271" y="88" type="curve" smooth="yes"/>
      <point x="230" y="88"/>
      <point x="205" y="111"/>
      <point x="205" y="156" type="curve" smooth="yes"/>
      <point x="205" y="630" type="line"/>
      <point x="93" y="630" type="line"/>
      <point x="93" y="158" type="line"/>
      <point x="93" y="54"/>
      <point x="144" y="-5"/>
      <point x="254" y="-5" type="curve" smooth="yes"/>
      <point x="279" y="-5"/>
      <point x="318" y="1"/>
    </contour>
    <contour>
      <point x="334" y="422" type="line"/>
      <point x="334" y="507" type="line"/>
      <point x="16" y="507" type="line"/>
      <point x="16" y="422" type="line"/>
    </contour>
    <component base="cedilla" xOffset="-42"/>
  </outline>
</glyph>
<glyph name="tcaron" format="1">
  <advance width="377"/>
  <unicode hex="0165"/>
  <outline>
    <contour>
      <point x="341" y="12" type="curve"/>
      <point x="341" y="110" type="line"/>
      <point x="322" y="96"/>
      <point x="295" y="88"/>
      <point x="271" y="88" type="curve" smooth="yes"/>
      <point x="230" y="88"/>
      <point x="205" y="111"/>
      <point x="205" y="156" type="curve" smooth="yes"/>
      <point x="205" y="630" type="line"/>
      <point x="93" y="630" type="line"/>
      <point x="93" y="158" type="line"/>
      <point x="93" y="54"/>
      <point x="144" y="-5"/>
      <point x="254" y="-5" type="curve" smooth="yes"/>
      <point x="279" y="-5"/>
      <point x="318" y="1"/>
    </contour>
    <contour>
      <point x="334" y="422" type="line"/>
      <point x="334" y="507" type="line"/>
      <point x="16" y="507" type="line"/>
      <point x="16" y="422" type="line"/>
    </contour>
    <contour>
      <point x="346" y="578" type="line"/>
      <point x="459" y="779" type="line"/>
      <point x="338" y="779" type="line"/>
      <point x="260" y="578" type="line"/>
    </contour>
  </outline>
</glyph>
<glyph name="scommaaccent" format="1">
  <advance width="424"/>
  <unicode hex="0219"/>
  <outline>
    <contour>
      <point x="392" y="144" type="curve" smooth="yes"/>
      <point x="392" y="221"/>
      <point x="333" y="258"/>
      <point x="273" y="286" type="curve" smooth="yes"/>
      <point x="220" y="311"/>
      <point x="169" y="327"/>
      <point x="169" y="369" type="curve" smooth="yes"/>
      <point x="169" y="399"/>
      <point x="194" y="421"/>
      <point x="239" y="421" type="curve" smooth="yes"/>
      <point x="287" y="421"/>
      <point x="335" y="409"/>
      <point x="364" y="391" type="curve"/>
      <point x="364" y="491" type="line"/>
      <point x="335" y="504"/>
      <point x="288" y="513"/>
      <point x="236" y="513" type="curve" smooth="yes"/>
      <point x="137" y="513"/>
      <point x="55" y="460"/>
      <point x="55" y="365" type="curve" smooth="yes"/>
      <point x="55" y="284"/>
      <point x="112" y="246"/>
      <point x="168" y="221" type="curve" smooth="yes"/>
      <point x="228" y="196"/>
      <point x="277" y="178"/>
      <point x="277" y="136" type="curve" smooth="yes"/>
      <point x="277" y="105"/>
      <point x="251" y="85"/>
      <point x="202" y="85" type="curve" smooth="yes"/>
      <point x="149" y="85"/>
      <point x="94" y="105"/>
      <point x="57" y="129" type="curve"/>
      <point x="57" y="26" type="line"/>
      <point x="89" y="9"/>
      <point x="146" y="-5"/>
      <point x="209" y="-5" type="curve" smooth="yes"/>
      <point x="318" y="-5"/>
      <point x="392" y="49"/>
    </contour>
    <contour>
      <point x="168" y="-252" type="line"/>
      <point x="282" y="-51" type="line"/>
      <point x="161" y="-51" type="line"/>
      <point x="83" y="-252" type="line"/>
    </contour>
  </outline>
</glyph>
<glyph name="Tcommaaccent" format="1">
  <advance width="512"/>
  <unicode hex="021A"/>
  <outline>
    <contour>
      <point x="315" y="0" type="line"/>
      <point x="315" y="661" type="line"/>
      <point x="197" y="661" type="line"/>
      <point x="197" y="0" type="line"/>
    </contour>
    <contour>
      <point x="201" y="-252" type="line"/>
      <point x="315" y="-51" type="line"/>
      <point x="194" y="-51" type="line"/>
      <point x="116" y="-252" type="line"/>
    </contour>
    <contour>
      <point x="488" y="577" type="line"/>
      <point x="488" y="674" type="line"/>
      <point x="24" y="674" type="line"/>
      <point x="24" y="577" type="line"/>
    </contour>
  </outline>
</glyph>
<glyph name="circumflex" format="1">
  <advance width="460"/>
  <unicode hex="02C6"/>
  <outline>
    <contour>
      <point x="148" y="632" type="line"/>
      <point x="230" y="732" type="line"/>
      <point x="312" y="632" type="line"/>
      <point x="421" y="632" type="line"/>
      <point x="280" y="798" type="line"/>
      <point x="180" y="798" type="line"/>
      <point x="39" y="632" type="line"/>
    </contour>
  </outline>
</glyph>
<glyph name="breve" format="1">
  <advance width="460"/>
  <unicode hex="02D8"/>
  <outline>
    <contour>
      <point x="411" y="798" type="curve"/>
      <point x="323" y="798" type="line"/>
      <point x="323" y="741"/>
      <point x="292" y="703"/>
      <point x="230" y="703" type="curve" smooth="yes"/>
      <point x="168" y="703"/>
      <point x="137" y="741"/>
      <point x="137" y="798" type="curve"/>
      <point x="49" y="798" type="line"/>
      <point x="49" y="686"/>
      <point x="118" y="628"/>
      <point x="230" y="628" type="curve"/>
      <point x="342" y="628"/>
      <point x="411" y="686"/>
    </contour>
  </outline>
</glyph>
<glyph name="dotaccent" format="1">
  <advance width="460"/>
  <unicode hex="02D9"/>
  <outline>
    <contour>
      <point x="296" y="717" type="curve" smooth="yes"/>
      <point x="296" y="754"/>
      <point x="268" y="783"/>
      <point x="230" y="783" type="curve" smooth="yes"/>
      <point x="192" y="783"/>
      <point x="163" y="754"/>
      <point x="163" y="717" type="curve" smooth="yes"/>
      <point x="163" y="680"/>
      <point x="192" y="651"/>
      <point x="230" y="651" type="curve" smooth="yes"/>
      <point x="268" y="651"/>
      <point x="296" y="680"/>
    </contour>
  </outline>
</glyph>
<glyph name="ring" format="1">
  <advance width="460"/>
  <unicode hex="02DA"/>
  <outline>
    <contour>
      <point x="351" y="715" type="curve" smooth="yes"/>
      <point x="351" y="782"/>
      <point x="297" y="836"/>
      <point x="230" y="836" type="curve" smooth="yes"/>
      <point x="163" y="836"/>
      <point x="109" y="782"/>
      <point x="109" y="715" type="curve" smooth="yes"/>
      <point x="109" y="649"/>
      <point x="163" y="594"/>
      <point x="230" y="594" type="curve" smooth="yes"/>
      <point x="297" y="594"/>
      <point x="351" y="649"/>
    </contour>
    <contour>
      <point x="177" y="717" type="curve" smooth="yes"/>
      <point x="177" y="746"/>
      <point x="199" y="772"/>
      <point x="230" y="772" type="curve" smooth="yes"/>
      <point x="261" y="772"/>
      <point x="283" y="746"/>
      <point x="283" y="717" type="curve" smooth="yes"/>
      <point x="283" y="688"/>
      <point x="261" y="662"/>
      <point x="230" y="662" type="curve" smooth="yes"/>
      <point x="199" y="662"/>
      <point x="177" y="688"/>
    </contour>
  </outline>
</glyph>
<glyph name="ogonek" format="1">
  <advance width="460"/>
  <unicode hex="02DB"/>
  <outline>
    <contour>
      <point x="342" y="-216" type="curve"/>
      <point x="342" y="-136" type="line"/>
      <point x="322" y="-150"/>
      <point x="294" y="-162"/>
      <point x="264" y="-162" type="curve" smooth="yes"/>
      <point x="231" y="-162"/>
      <point x="210" y="-146"/>
      <point x="210" y="-115" type="curve" smooth="yes"/>
      <point x="210" y="-67"/>
      <point x="266" y="-20"/>
      <point x="325" y="12" type="curve"/>
      <point x="286" y="63" type="line"/>
      <point x="222" y="39"/>
      <point x="118" y="-28"/>
      <point x="118" y="-125" type="curve" smooth="yes"/>
      <point x="118" y="-187"/>
      <point x="158" y="-238"/>
      <point x="248" y="-238" type="curve" smooth="yes"/>
      <point x="285" y="-238"/>
      <point x="316" y="-230"/>
    </contour>
  </outline>
</glyph>
<glyph name="tilde" format="1">
  <advance width="460"/>
  <unicode hex="02DC"/>
  <outline>
    <contour>
      <point x="176" y="679" type="curve" smooth="yes"/>
      <point x="212" y="679"/>
      <point x="246" y="640"/>
      <point x="300" y="640" type="curve" smooth="yes"/>
      <point x="352" y="640"/>
      <point x="394" y="668"/>
      <point x="418" y="716" type="curve"/>
      <point x="356" y="764" type="line"/>
      <point x="345" y="740"/>
      <point x="325" y="721"/>
      <point x="294" y="721" type="curve" smooth="yes"/>
      <point x="252" y="721"/>
      <point x="221" y="761"/>
      <point x="160" y="761" type="curve" smooth="yes"/>
      <point x="111" y="761"/>
      <point x="70" y="724"/>
      <point x="51" y="684" type="curve"/>
      <point x="105" y="634" type="line"/>
      <point x="127" y="665"/>
      <point x="143" y="679"/>
    </contour>
  </outline>
</glyph>
<glyph name="hungarumlaut" format="1">
  <advance width="460"/>
  <unicode hex="02DD"/>
  <outline>
    <contour>
      <point x="292" y="632" type="line"/>
      <point x="424" y="798" type="line"/>
      <point x="305" y="798" type="line"/>
      <point x="207" y="632" type="line"/>
    </contour>
    <contour>
      <point x="120" y="632" type="line"/>
      <point x="239" y="798" type="line"/>
      <point x="127" y="798" type="line"/>
      <point x="36" y="632" type="line"/>
    </contour>
  </outline>
</glyph>
<glyph name="pi" format="1">
  <advance width="594"/>
  <unicode hex="03C0"/>
  <outline>
    <contour>
      <point x="222" y="190" type="curve" smooth="yes"/>
      <point x="222" y="466" type="line"/>
      <point x="110" y="466" type="line"/>
      <point x="110" y="181" type="line"/>
      <point x="110" y="109"/>
      <point x="90" y="94"/>
      <point x="40" y="94" type="curve"/>
      <point x="40" y="0" type="line"/>
      <point x="158" y="0"/>
      <point x="222" y="43"/>
    </contour>
    <contour>
      <point x="492" y="0" type="line"/>
      <point x="492" y="466" type="line"/>
      <point x="380" y="466" type="line"/>
      <point x="380" y="0" type="line"/>
    </contour>
    <contour>
      <point x="580" y="422" type="line"/>
      <point x="580" y="507" type="line"/>
      <point x="22" y="507" type="line"/>
      <point x="22" y="422" type="line"/>
    </contour>
  </outline>
</glyph>
<glyph name="danda" format="1">
  <advance width="276"/>
  <unicode hex="0964"/>
  <outline>
    <contour>
      <point x="101" y="-10" type="line"/>
      <point x="175" y="-10" type="line"/>
      <point x="175" y="459" type="line"/>
      <point x="101" y="459" type="line"/>
    </contour>
  </outline>
</glyph>
<glyph name="grAdakbindi" format="1">
  <unicode hex="0A01"/>
  <outline>
    <contour>
      <point x="41" y="580" type="curve"/>
      <point x="10" y="596" type="line"/>
      <point x="-28" y="552"/>
      <point x="-60" y="537"/>
      <point x="-114" y="538" type="curve"/>
      <point x="-141" y="552"/>
      <point x="-160" y="571"/>
      <point x="-179" y="596" type="curve"/>
      <point x="-209" y="580" type="line"/>
      <point x="-195" y="524"/>
      <point x="-148" y="483"/>
      <point x="-84" y="483" type="curve" smooth="yes"/>
      <point x="-20" y="483"/>
      <point x="27" y="524"/>
    </contour>
    <contour>
      <point x="-44" y="631" type="curve" smooth="yes"/>
      <point x="-44" y="654"/>
      <point x="-62" y="673"/>
      <point x="-85" y="673" type="curve" smooth="yes"/>
      <point x="-108" y="673"/>
      <point x="-127" y="654"/>
      <point x="-127" y="631" type="curve" smooth="yes"/>
      <point x="-127" y="607"/>
      <point x="-109" y="589"/>
      <point x="-85" y="589" type="curve" smooth="yes"/>
      <point x="-62" y="589"/>
      <point x="-44" y="607"/>
    </contour>
    <contour>
      <point x="-84" y="444" type="move" name="_top"/>
    </contour>
  </outline>
</glyph>
<glyph name="grBindi" format="1">
  <unicode hex="0A02"/>
  <outline>
    <contour>
      <point x="-42" y="533" type="curve" smooth="yes"/>
      <point x="-42" y="555"/>
      <point x="-62" y="574"/>
      <point x="-84" y="574" type="curve" smooth="yes"/>
      <point x="-105" y="574"/>
      <point x="-126" y="555"/>
      <point x="-126" y="533" type="curve" smooth="yes"/>
      <point x="-126" y="510"/>
      <point x="-107" y="491"/>
      <point x="-84" y="491" type="curve" smooth="yes"/>
      <point x="-62" y="491"/>
      <point x="-42" y="510"/>
    </contour>
    <contour>
      <point x="-84" y="444" type="move" name="_top"/>
    </contour>
  </outline>
</glyph>
<glyph name="grVisarga" format="1">
  <advance width="339"/>
  <unicode hex="0A03"/>
  <outline>
    <contour>
      <point x="260" y="347" type="curve" smooth="yes"/>
      <point x="260" y="401"/>
      <point x="225" y="440"/>
      <point x="164" y="440" type="curve" smooth="yes"/>
      <point x="105" y="440"/>
      <point x="79" y="408"/>
      <point x="79" y="352" type="curve" smooth="yes"/>
      <point x="79" y="298"/>
      <point x="109" y="259"/>
      <point x="176" y="259" type="curve" smooth="yes"/>
      <point x="235" y="259"/>
      <point x="260" y="290"/>
    </contour>
    <contour>
      <point x="260" y="123" type="curve" smooth="yes"/>
      <point x="260" y="177"/>
      <point x="225" y="216"/>
      <point x="164" y="216" type="curve" smooth="yes"/>
      <point x="105" y="216"/>
      <point x="79" y="185"/>
      <point x="79" y="128" type="curve" smooth="yes"/>
      <point x="79" y="74"/>
      <point x="109" y="35"/>
      <point x="176" y="35" type="curve" smooth="yes"/>
      <point x="235" y="35"/>
      <point x="260" y="67"/>
    </contour>
    <contour>
      <point x="142" y="79" type="curve"/>
      <point x="137" y="91"/>
      <point x="134" y="109"/>
      <point x="134" y="127" type="curve" smooth="yes"/>
      <point x="134" y="162"/>
      <point x="144" y="177"/>
      <point x="169" y="177" type="curve" smooth="yes"/>
      <point x="180" y="177"/>
      <point x="188" y="175"/>
      <point x="197" y="172" type="curve"/>
      <point x="202" y="162"/>
      <point x="206" y="144"/>
      <point x="206" y="125" type="curve" smooth="yes"/>
      <point x="206" y="88"/>
      <point x="195" y="75"/>
      <point x="170" y="75" type="curve" smooth="yes"/>
      <point x="159" y="75"/>
      <point x="149" y="76"/>
    </contour>
    <contour>
      <point x="142" y="302" type="curve"/>
      <point x="137" y="314"/>
      <point x="134" y="333"/>
      <point x="134" y="350" type="curve" smooth="yes"/>
      <point x="134" y="386"/>
      <point x="144" y="401"/>
      <point x="169" y="401" type="curve" smooth="yes"/>
      <point x="180" y="401"/>
      <point x="188" y="399"/>
      <point x="197" y="395" type="curve"/>
      <point x="202" y="385"/>
      <point x="206" y="367"/>
      <point x="206" y="348" type="curve" smooth="yes"/>
      <point x="206" y="311"/>
      <point x="195" y="298"/>
      <point x="170" y="298" type="curve" smooth="yes"/>
      <point x="159" y="298"/>
      <point x="149" y="299"/>
    </contour>
  </outline>
</glyph>
<glyph name="grA" format="1">
  <advance width="525"/>
  <unicode hex="0A05"/>
  <outline>
    <contour>
      <point x="326" y="267" type="curve" smooth="yes"/>
      <point x="326" y="327"/>
      <point x="310" y="377"/>
      <point x="283" y="380" type="curve" smooth="yes"/>
      <point x="256" y="383"/>
      <point x="196" y="360"/>
      <point x="128" y="297" type="curve"/>
      <point x="143" y="259" type="line"/>
      <point x="179" y="285"/>
      <point x="214" y="302"/>
      <point x="252" y="310" type="curve"/>
      <point x="260" y="288"/>
      <point x="265" y="260"/>
      <point x="266" y="231" type="curve"/>
      <point x="222" y="171"/>
      <point x="196" y="116"/>
      <point x="195" y="92" type="curve" smooth="yes"/>
      <point x="195" y="72"/>
      <point x="230" y="54"/>
      <point x="259" y="51" type="curve"/>
      <point x="298" y="112"/>
      <point x="326" y="191"/>
    </contour>
    <contour>
      <point x="164" y="309" type="curve" smooth="yes"/>
      <point x="164" y="383"/>
      <point x="117" y="444"/>
      <point x="34" y="444" type="curve" smooth="yes"/>
      <point x="-29" y="444" type="line"/>
      <point x="-29" y="386" type="line"/>
      <point x="69" y="386" type="line"/>
      <point x="84" y="357"/>
      <point x="90" y="324"/>
      <point x="90" y="282" type="curve"/>
      <point x="54" y="239"/>
      <point x="38" y="209"/>
      <point x="37" y="192" type="curve" smooth="yes"/>
      <point x="37" y="175"/>
      <point x="66" y="153"/>
      <point x="99" y="147" type="curve"/>
      <point x="135" y="189"/>
      <point x="164" y="251"/>
    </contour>
    <contour>
      <point x="427" y="277" type="curve"/>
      <point x="427" y="350" type="line"/>
      <point x="382" y="324"/>
      <point x="342" y="292"/>
      <point x="303" y="248" type="curve"/>
      <point x="314" y="215" type="line"/>
      <point x="356" y="248"/>
      <point x="387" y="264"/>
    </contour>
    <contour>
      <point x="476" y="0" type="line"/>
      <point x="476" y="386" type="line"/>
      <point x="554" y="386" type="line"/>
      <point x="554" y="444" type="line"/>
      <point x="402" y="444" type="line"/>
      <point x="402" y="0" type="line"/>
    </contour>
    <contour>
      <point x="441" y="444" type="move" name="top"/>
    </contour>
  </outline>
</glyph>
<glyph name="grAI" format="1">
  <advance width="529"/>
  <unicode hex="0A10"/>
  <outline>
    <component base="grA"/>
    <component base="grmAI" xOffset="527" yOffset="-4"/>
    <contour>
      <point x="570" y="444" type="move" name="top"/>
    </contour>
  </outline>
</glyph>
<glyph name="grOO" format="1">
  <advance width="480"/>
  <unicode hex="0A13"/>
  <outline>
    <contour>
      <point x="419" y="133" type="curve" smooth="yes"/>
      <point x="419" y="188"/>
      <point x="387" y="238"/>
      <point x="340" y="270" type="curve"/>
      <point x="305" y="242" type="line"/>
      <point x="329" y="218"/>
      <point x="343" y="185"/>
      <point x="343" y="152" type="curve" smooth="yes"/>
      <point x="343" y="92"/>
      <point x="298" y="53"/>
      <point x="199" y="52" type="curve"/>
      <point x="145" y="106"/>
      <point x="114" y="201"/>
      <point x="114" y="309" type="curve" smooth="yes"/>
      <point x="114" y="468"/>
      <point x="164" y="566"/>
      <point x="293" y="566" type="curve" smooth="yes"/>
      <point x="340" y="566"/>
      <point x="383" y="553"/>
      <point x="442" y="527" type="curve"/>
      <point x="467" y="569" type="line"/>
      <point x="404" y="601"/>
      <point x="352" y="619"/>
      <point x="287" y="619" type="curve" smooth="yes"/>
      <point x="125" y="619"/>
      <point x="37" y="500"/>
      <point x="37" y="316" type="curve" smooth="yes"/>
      <point x="37" y="147"/>
      <point x="127" y="-4"/>
      <point x="261" y="-4" type="curve" smooth="yes"/>
      <point x="356" y="-4"/>
      <point x="419" y="55"/>
    </contour>
    <contour>
      <point x="246" y="218" type="line" smooth="yes"/>
      <point x="388" y="219"/>
      <point x="449" y="300"/>
      <point x="452" y="395" type="curve"/>
      <point x="379" y="395" type="line"/>
      <point x="375" y="330"/>
      <point x="344" y="275"/>
      <point x="246" y="275" type="curve" smooth="yes"/>
      <point x="93" y="275" type="line"/>
      <point x="93" y="218" type="line"/>
    </contour>
    <contour>
      <point x="509" y="386" type="line"/>
      <point x="509" y="444" type="line"/>
      <point x="-29" y="444" type="line"/>
      <point x="-29" y="386" type="line"/>
    </contour>
  </outline>
</glyph>
<glyph name="grKA" format="1">
  <advance width="468"/>
  <unicode hex="0A15"/>
  <outline>
    <contour>
      <point x="439" y="6" type="line"/>
      <point x="384" y="208"/>
      <point x="304" y="302"/>
      <point x="175" y="302" type="curve" smooth="yes"/>
      <point x="88" y="302"/>
      <point x="30" y="251"/>
      <point x="30" y="172" type="curve" smooth="yes"/>
      <point x="30" y="92"/>
      <point x="100" y="39"/>
      <point x="186" y="39" type="curve" smooth="yes"/>
      <point x="302" y="39"/>
      <point x="383" y="125"/>
      <point x="383" y="289" type="curve" smooth="yes"/>
      <point x="383" y="325"/>
      <point x="379" y="360"/>
      <point x="372" y="401" type="curve"/>
      <point x="296" y="401" type="line"/>
      <point x="303" y="359"/>
      <point x="306" y="320"/>
      <point x="306" y="284" type="curve" smooth="yes"/>
      <point x="306" y="157"/>
      <point x="254" y="91"/>
      <point x="171" y="91" type="curve" smooth="yes"/>
      <point x="146" y="91"/>
      <point x="120" y="99"/>
      <point x="105" y="115" type="curve"/>
      <point x="102" y="123"/>
      <point x="101" y="133"/>
      <point x="101" y="146" type="curve" smooth="yes"/>
      <point x="101" y="211"/>
      <point x="136" y="244"/>
      <point x="192" y="244" type="curve" smooth="yes"/>
      <point x="232" y="244"/>
      <point x="265" y="226"/>
      <point x="298" y="190" type="curve"/>
      <point x="403" y="-7" type="line"/>
    </contour>
    <contour>
      <point x="497" y="386" type="line"/>
      <point x="497" y="444" type="line"/>
      <point x="-29" y="444" type="line"/>
      <point x="-29" y="386" type="line"/>
    </contour>
    <contour>
      <point x="335" y="444" type="move" name="top"/>
    </contour>
    <contour>
      <point x="229" y="0" type="move" name="bottom"/>
    </contour>
  </outline>
</glyph>
<glyph name="grGA" format="1">
  <advance width="541"/>
  <unicode hex="0A17"/>
  <outline>
    <contour>
      <point x="315" y="126" type="curve" smooth="yes"/>
      <point x="315" y="386" type="line"/>
      <point x="418" y="386" type="line"/>
      <point x="418" y="0" type="line"/>
      <point x="492" y="0" type="line"/>
      <point x="492" y="386" type="line"/>
      <point x="570" y="386" type="line"/>
      <point x="570" y="444" type="line"/>
      <point x="-29" y="444" type="line"/>
      <point x="-29" y="386" type="line"/>
      <point x="241" y="386" type="line"/>
      <point x="241" y="280" type="line"/>
      <point x="145" y="280" type="line" smooth="yes"/>
      <point x="73" y="280"/>
      <point x="28" y="246"/>
      <point x="28" y="178" type="curve" smooth="yes"/>
      <point x="28" y="80"/>
      <point x="130" y="-4"/>
      <point x="215" y="-4" type="curve" smooth="yes"/>
      <point x="273" y="-4"/>
      <point x="315" y="34"/>
    </contour>
    <contour>
      <point x="104" y="102" type="curve"/>
      <point x="103" y="123"/>
      <point x="101" y="138"/>
      <point x="101" y="156" type="curve" smooth="yes"/>
      <point x="101" y="196"/>
      <point x="115" y="223"/>
      <point x="175" y="223" type="curve" smooth="yes"/>
      <point x="241" y="223" type="line"/>
      <point x="241" y="125" type="line" smooth="yes"/>
      <point x="241" y="78"/>
      <point x="227" y="52"/>
      <point x="191" y="52" type="curve" smooth="yes"/>
      <point x="154" y="52"/>
      <point x="123" y="78"/>
    </contour>
  </outline>
</glyph>
<glyph name="grGHA" format="1">
  <advance width="570"/>
  <unicode hex="0A18"/>
  <outline>
    <contour>
      <point x="521" y="0" type="line"/>
      <point x="521" y="386" type="line"/>
      <point x="599" y="386" type="line"/>
      <point x="599" y="444" type="line"/>
      <point x="448" y="444" type="line"/>
      <point x="448" y="194" type="line"/>
      <point x="418" y="166"/>
      <point x="382" y="149"/>
      <point x="347" y="149" type="curve" smooth="yes"/>
      <point x="326" y="149"/>
      <point x="311" y="157"/>
      <point x="300" y="187" type="curve"/>
      <point x="275" y="162" type="line"/>
      <point x="297" y="104"/>
      <point x="329" y="83"/>
      <point x="365" y="83" type="curve" smooth="yes"/>
      <point x="390" y="83"/>
      <point x="424" y="96"/>
      <point x="447" y="111" type="curve"/>
      <point x="450" y="110" type="line"/>
      <point x="448" y="46" type="line"/>
      <point x="448" y="0" type="line"/>
    </contour>
    <contour>
      <point x="342" y="321" type="curve" smooth="yes"/>
      <point x="342" y="362"/>
      <point x="336" y="397"/>
      <point x="327" y="432" type="curve"/>
      <point x="307" y="441"/>
      <point x="285" y="441"/>
      <point x="266" y="432" type="curve"/>
      <point x="259" y="390"/>
      <point x="256" y="345"/>
      <point x="256" y="316" type="curve" smooth="yes"/>
      <point x="256" y="280"/>
      <point x="258" y="239"/>
      <point x="262" y="206" type="curve"/>
      <point x="229" y="159"/>
      <point x="191" y="138"/>
      <point x="152" y="138" type="curve" smooth="yes"/>
      <point x="130" y="138"/>
      <point x="108" y="148"/>
      <point x="100" y="165" type="curve"/>
      <point x="143" y="221"/>
      <point x="162" y="271"/>
      <point x="162" y="323" type="curve" smooth="yes"/>
      <point x="162" y="388"/>
      <point x="102" y="444"/>
      <point x="21" y="444" type="curve" smooth="yes"/>
      <point x="-29" y="444" type="line"/>
      <point x="-29" y="386" type="line" smooth="yes"/>
      <point x="28" y="386" type="line" smooth="yes"/>
      <point x="48" y="386"/>
      <point x="66" y="385"/>
      <point x="83" y="381" type="curve"/>
      <point x="90" y="366"/>
      <point x="94" y="349"/>
      <point x="94" y="330" type="curve" smooth="yes"/>
      <point x="94" y="295"/>
      <point x="79" y="267"/>
      <point x="42" y="211" type="curve" smooth="yes"/>
      <point x="27" y="188"/>
      <point x="26" y="183"/>
      <point x="26" y="175" type="curve" smooth="yes"/>
      <point x="26" y="134"/>
      <point x="87" y="83"/>
      <point x="163" y="83" type="curve" smooth="yes"/>
      <point x="261" y="83"/>
      <point x="342" y="168"/>
    </contour>
  </outline>
</glyph>
<glyph name="grNGA" format="1">
  <advance width="430"/>
  <unicode hex="0A19"/>
  <outline>
    <contour>
      <point x="394" y="177" type="curve" smooth="yes"/>
      <point x="394" y="243"/>
      <point x="347" y="292"/>
      <point x="275" y="292" type="curve" smooth="yes"/>
      <point x="158" y="292" type="line"/>
      <point x="158" y="395" type="line"/>
      <point x="84" y="395" type="line"/>
      <point x="84" y="239" type="line"/>
      <point x="302" y="239" type="line"/>
      <point x="314" y="223"/>
      <point x="320" y="201"/>
      <point x="320" y="177" type="curve" smooth="yes"/>
      <point x="320" y="109"/>
      <point x="265" y="48"/>
      <point x="173" y="48" type="curve" smooth="yes"/>
      <point x="153" y="48"/>
      <point x="136" y="51"/>
      <point x="118" y="58" type="curve"/>
      <point x="114" y="68"/>
      <point x="113" y="77"/>
      <point x="113" y="87" type="curve" smooth="yes"/>
      <point x="113" y="114"/>
      <point x="134" y="131"/>
      <point x="164" y="131" type="curve" smooth="yes"/>
      <point x="180" y="131"/>
      <point x="193" y="128"/>
      <point x="211" y="121" type="curve"/>
      <point x="373" y="-7" type="line"/>
      <point x="383" y="-5"/>
      <point x="392" y="4"/>
      <point x="400" y="18" type="curve"/>
      <point x="264" y="134" type="line" smooth="yes"/>
      <point x="224" y="168"/>
      <point x="187" y="183"/>
      <point x="144" y="183" type="curve" smooth="yes"/>
      <point x="78" y="183"/>
      <point x="38" y="144"/>
      <point x="38" y="92" type="curve" smooth="yes"/>
      <point x="38" y="39"/>
      <point x="84" y="-4"/>
      <point x="177" y="-4" type="curve" smooth="yes"/>
      <point x="288" y="-4"/>
      <point x="394" y="76"/>
    </contour>
    <contour>
      <point x="459" y="386" type="line"/>
      <point x="459" y="444" type="line"/>
      <point x="-29" y="444" type="line"/>
      <point x="-29" y="386" type="line"/>
    </contour>
    <contour>
      <point x="310" y="444" type="move" name="top"/>
    </contour>
    <contour>
      <point x="228" y="0" type="move" name="bottom"/>
    </contour>
  </outline>
</glyph>
<glyph name="grCA" format="1">
  <advance width="421"/>
  <unicode hex="0A1A"/>
  <outline>
    <contour>
      <point x="372" y="124" type="curve" smooth="yes"/>
      <point x="372" y="386" type="line"/>
      <point x="450" y="386" type="line"/>
      <point x="450" y="444" type="line"/>
      <point x="-29" y="444" type="line"/>
      <point x="-29" y="386" type="line"/>
      <point x="298" y="386" type="line"/>
      <point x="298" y="270" type="line"/>
      <point x="128" y="270" type="line"/>
      <point x="60" y="319" type="line"/>
      <point x="39" y="319"/>
      <point x="22" y="303"/>
      <point x="14" y="279" type="curve"/>
      <point x="19" y="252"/>
      <point x="40" y="224"/>
      <point x="79" y="209" type="curve"/>
      <point x="87" y="68"/>
      <point x="163" y="-4"/>
      <point x="259" y="-4" type="curve" smooth="yes"/>
      <point x="328" y="-4"/>
      <point x="372" y="39"/>
    </contour>
    <contour>
      <point x="147" y="174" type="curve" smooth="yes"/>
      <point x="143" y="213" type="line"/>
      <point x="298" y="213" type="line"/>
      <point x="298" y="121" type="line" smooth="yes"/>
      <point x="298" y="76"/>
      <point x="284" y="54"/>
      <point x="247" y="52" type="curve" smooth="yes"/>
      <point x="198" y="55"/>
      <point x="157" y="98"/>
    </contour>
    <contour>
      <point x="335" y="444" type="move" name="top"/>
    </contour>
    <contour>
      <point x="249" y="0" type="move" name="bottom"/>
    </contour>
  </outline>
</glyph>
<glyph name="grCHA" format="1">
  <advance width="451"/>
  <unicode hex="0A1B"/>
  <outline>
    <contour>
      <point x="425" y="100" type="curve" smooth="yes"/>
      <point x="425" y="163"/>
      <point x="377" y="199"/>
      <point x="265" y="199" type="curve" smooth="yes"/>
      <point x="163" y="199" type="line"/>
      <point x="155" y="208"/>
      <point x="150" y="219"/>
      <point x="150" y="233" type="curve" smooth="yes"/>
      <point x="150" y="254"/>
      <point x="163" y="270"/>
      <point x="194" y="270" type="curve" smooth="yes"/>
      <point x="378" y="270" type="line"/>
      <point x="378" y="410" type="line"/>
      <point x="303" y="410" type="line"/>
      <point x="303" y="320" type="line"/>
      <point x="172" y="320" type="line" smooth="yes"/>
      <point x="107" y="320"/>
      <point x="72" y="284"/>
      <point x="72" y="238" type="curve" smooth="yes"/>
      <point x="72" y="188"/>
      <point x="111" y="148"/>
      <point x="176" y="148" type="curve" smooth="yes"/>
      <point x="263" y="148" type="line" smooth="yes"/>
      <point x="300" y="148"/>
      <point x="324" y="144"/>
      <point x="342" y="138" type="curve"/>
      <point x="348" y="127"/>
      <point x="351" y="116"/>
      <point x="351" y="102" type="curve" smooth="yes"/>
      <point x="351" y="70"/>
      <point x="326" y="47"/>
      <point x="231" y="47" type="curve" smooth="yes"/>
      <point x="174" y="47"/>
      <point x="139" y="52"/>
      <point x="113" y="60" type="curve"/>
      <point x="107" y="71"/>
      <point x="104" y="83"/>
      <point x="104" y="99" type="curve" smooth="yes"/>
      <point x="104" y="125"/>
      <point x="116" y="145"/>
      <point x="141" y="159" type="curve"/>
      <point x="106" y="183" type="line"/>
      <point x="64" y="172"/>
      <point x="30" y="144"/>
      <point x="30" y="96" type="curve" smooth="yes"/>
      <point x="30" y="27"/>
      <point x="104" y="-4"/>
      <point x="231" y="-4" type="curve" smooth="yes"/>
      <point x="374" y="-4"/>
      <point x="425" y="43"/>
    </contour>
    <contour>
      <point x="259" y="28" type="line"/>
      <point x="259" y="168" type="line"/>
      <point x="200" y="168" type="line"/>
      <point x="200" y="28" type="line"/>
    </contour>
    <contour>
      <point x="480" y="386" type="line"/>
      <point x="480" y="444" type="line"/>
      <point x="-29" y="444" type="line"/>
      <point x="-29" y="386" type="line"/>
    </contour>
    <contour>
      <point x="341" y="444" type="move" name="top"/>
    </contour>
    <contour>
      <point x="230" y="0" type="move" name="bottom"/>
    </contour>
  </outline>
</glyph>
<glyph name="grJA" format="1">
  <advance width="408"/>
  <unicode hex="0A1C"/>
  <outline>
    <contour>
      <point x="150" y="0" type="line"/>
      <point x="150" y="213" type="line"/>
      <point x="285" y="213" type="line"/>
      <point x="285" y="0" type="line"/>
      <point x="358" y="0" type="line"/>
      <point x="358" y="386" type="line"/>
      <point x="437" y="386" type="line"/>
      <point x="437" y="444" type="line"/>
      <point x="-29" y="444" type="line"/>
      <point x="-29" y="386" type="line"/>
      <point x="285" y="386" type="line"/>
      <point x="285" y="270" type="line"/>
      <point x="135" y="270" type="line"/>
      <point x="66" y="319" type="line"/>
      <point x="45" y="319"/>
      <point x="28" y="303"/>
      <point x="21" y="279" type="curve"/>
      <point x="26" y="253"/>
      <point x="45" y="228"/>
      <point x="75" y="211" type="curve"/>
      <point x="75" y="0" type="line"/>
    </contour>
  </outline>
</glyph>
<glyph name="grJHA" format="1">
  <advance width="405"/>
  <unicode hex="0A1D"/>
  <outline>
    <contour>
      <point x="374" y="161" type="curve" smooth="yes"/>
      <point x="374" y="219"/>
      <point x="331" y="260"/>
      <point x="258" y="278" type="curve"/>
      <point x="195" y="251" type="line"/>
      <point x="157" y="280" type="line"/>
      <point x="115" y="277"/>
      <point x="80" y="266"/>
      <point x="38" y="246" type="curve"/>
      <point x="55" y="203" type="line"/>
      <point x="96" y="218"/>
      <point x="140" y="225"/>
      <point x="185" y="225" type="curve" smooth="yes"/>
      <point x="229" y="225"/>
      <point x="264" y="217"/>
      <point x="292" y="204" type="curve"/>
      <point x="298" y="190"/>
      <point x="301" y="178"/>
      <point x="300" y="165" type="curve" smooth="yes"/>
      <point x="298" y="118"/>
      <point x="263" y="96"/>
      <point x="184" y="89" type="curve"/>
      <point x="107" y="142" type="line"/>
      <point x="76" y="144"/>
      <point x="52" y="130"/>
      <point x="52" y="106" type="curve" smooth="yes"/>
      <point x="52" y="96"/>
      <point x="56" y="83"/>
      <point x="67" y="77" type="curve"/>
      <point x="102" y="63"/>
      <point x="156" y="50"/>
      <point x="198" y="50" type="curve" smooth="yes"/>
      <point x="291" y="50"/>
      <point x="374" y="85"/>
    </contour>
    <contour>
      <point x="289" y="15" type="curve"/>
      <point x="209" y="68" type="line"/>
      <point x="134" y="63" type="line"/>
      <point x="255" y="-5" type="line"/>
      <point x="271" y="-4"/>
      <point x="284" y="5"/>
    </contour>
    <contour>
      <point x="394" y="429" type="curve"/>
      <point x="317" y="429" type="line"/>
      <point x="306" y="339"/>
      <point x="241" y="283"/>
      <point x="192" y="268" type="curve"/>
      <point x="147" y="291"/>
      <point x="96" y="343"/>
      <point x="86" y="429" type="curve"/>
      <point x="21" y="429" type="line"/>
      <point x="39" y="312"/>
      <point x="130" y="235"/>
      <point x="205" y="235" type="curve" smooth="yes"/>
      <point x="289" y="235"/>
      <point x="376" y="302"/>
    </contour>
    <contour>
      <point x="434" y="386" type="line"/>
      <point x="434" y="444" type="line"/>
      <point x="-29" y="444" type="line"/>
      <point x="-29" y="386" type="line"/>
    </contour>
    <contour>
      <point x="356" y="444" type="move" name="top"/>
    </contour>
    <contour>
      <point x="216" y="0" type="move" name="bottom"/>
    </contour>
  </outline>
</glyph>
<glyph name="grNYA" format="1">
  <advance width="410"/>
  <unicode hex="0A1E"/>
  <outline>
    <contour>
      <point x="390" y="16" type="curve"/>
      <point x="372" y="68" type="line"/>
      <point x="341" y="58"/>
      <point x="317" y="55"/>
      <point x="295" y="55" type="curve" smooth="yes"/>
      <point x="248" y="55"/>
      <point x="219" y="70"/>
      <point x="219" y="102" type="curve" smooth="yes"/>
      <point x="219" y="107"/>
      <point x="219" y="113"/>
      <point x="220" y="119" type="curve"/>
      <point x="269" y="120"/>
      <point x="319" y="130"/>
      <point x="356" y="144" type="curve"/>
      <point x="365" y="170"/>
      <point x="351" y="200"/>
      <point x="325" y="205" type="curve"/>
      <point x="196" y="160" type="line"/>
      <point x="141" y="161"/>
      <point x="118" y="187"/>
      <point x="118" y="218" type="curve" smooth="yes"/>
      <point x="118" y="245"/>
      <point x="135" y="261"/>
      <point x="170" y="261" type="curve" smooth="yes"/>
      <point x="351" y="261" type="line"/>
      <point x="351" y="386" type="line"/>
      <point x="439" y="386" type="line"/>
      <point x="439" y="444" type="line"/>
      <point x="-29" y="444" type="line"/>
      <point x="-29" y="386" type="line"/>
      <point x="39" y="386" type="line"/>
      <point x="45" y="339"/>
      <point x="71" y="308"/>
      <point x="112" y="292" type="curve"/>
      <point x="112" y="288" type="line"/>
      <point x="69" y="278"/>
      <point x="44" y="252"/>
      <point x="44" y="212" type="curve" smooth="yes"/>
      <point x="44" y="157"/>
      <point x="90" y="127"/>
      <point x="174" y="120" type="curve"/>
      <point x="170" y="108"/>
      <point x="169" y="94"/>
      <point x="169" y="84" type="curve" smooth="yes"/>
      <point x="169" y="37"/>
      <point x="200" y="-4"/>
      <point x="291" y="-4" type="curve" smooth="yes"/>
      <point x="329" y="-4"/>
      <point x="361" y="4"/>
    </contour>
    <contour>
      <point x="114" y="386" type="curve"/>
      <point x="277" y="386" type="line"/>
      <point x="277" y="302" type="line"/>
      <point x="180" y="302" type="line" smooth="yes"/>
      <point x="147" y="308"/>
      <point x="117" y="336"/>
    </contour>
    <contour>
      <point x="314" y="444" type="move" name="top"/>
    </contour>
    <contour>
      <point x="222" y="0" type="move" name="bottom"/>
    </contour>
  </outline>
</glyph>
<glyph name="grTTA" format="1">
  <advance width="394"/>
  <unicode hex="0A1F"/>
  <outline>
    <contour>
      <point x="370" y="72" type="curve"/>
      <point x="309" y="106" type="line"/>
      <point x="284" y="83"/>
      <point x="257" y="63"/>
      <point x="227" y="52" type="curve"/>
      <point x="163" y="59"/>
      <point x="98" y="113"/>
      <point x="98" y="173" type="curve" smooth="yes"/>
      <point x="98" y="214"/>
      <point x="124" y="233"/>
      <point x="172" y="233" type="curve" smooth="yes"/>
      <point x="339" y="233" type="line"/>
      <point x="339" y="386" type="line"/>
      <point x="423" y="386" type="line"/>
      <point x="423" y="444" type="line"/>
      <point x="-29" y="444" type="line"/>
      <point x="-29" y="386" type="line"/>
      <point x="264" y="386" type="line"/>
      <point x="264" y="291" type="line"/>
      <point x="144" y="291" type="line" smooth="yes"/>
      <point x="71" y="291"/>
      <point x="24" y="252"/>
      <point x="24" y="189" type="curve" smooth="yes"/>
      <point x="24" y="85"/>
      <point x="149" y="-4"/>
      <point x="242" y="-4" type="curve" smooth="yes"/>
      <point x="282" y="-4"/>
      <point x="336" y="25"/>
    </contour>
    <contour>
      <point x="301" y="444" type="move" name="top"/>
    </contour>
    <contour>
      <point x="222" y="0" type="move" name="bottom"/>
    </contour>
  </outline>
</glyph>
<glyph name="grTTHA" format="1">
  <advance width="475"/>
  <unicode hex="0A20"/>
  <outline>
    <contour>
      <point x="437" y="148" type="curve" smooth="yes"/>
      <point x="437" y="240"/>
      <point x="359" y="299"/>
      <point x="238" y="299" type="curve" smooth="yes"/>
      <point x="116" y="299"/>
      <point x="38" y="240"/>
      <point x="38" y="148" type="curve" smooth="yes"/>
      <point x="38" y="55"/>
      <point x="116" y="-4"/>
      <point x="238" y="-4" type="curve" smooth="yes"/>
      <point x="359" y="-4"/>
      <point x="437" y="55"/>
    </contour>
    <contour>
      <point x="137" y="70" type="curve"/>
      <point x="122" y="92"/>
      <point x="114" y="115"/>
      <point x="114" y="148" type="curve" smooth="yes"/>
      <point x="114" y="212"/>
      <point x="150" y="245"/>
      <point x="237" y="245" type="curve" smooth="yes"/>
      <point x="275" y="245"/>
      <point x="304" y="241"/>
      <point x="338" y="229" type="curve"/>
      <point x="352" y="207"/>
      <point x="361" y="182"/>
      <point x="361" y="148" type="curve" smooth="yes"/>
      <point x="361" y="87"/>
      <point x="325" y="54"/>
      <point x="238" y="54" type="curve" smooth="yes"/>
      <point x="200" y="54"/>
      <point x="170" y="58"/>
    </contour>
    <contour>
      <point x="504" y="386" type="line"/>
      <point x="504" y="444" type="line"/>
      <point x="-29" y="444" type="line"/>
      <point x="-29" y="386" type="line"/>
    </contour>
    <contour>
      <point x="200" y="395" type="line"/>
      <point x="200" y="281" type="line"/>
      <point x="276" y="281" type="line"/>
      <point x="276" y="395" type="line"/>
    </contour>
    <contour>
      <point x="348" y="444" type="move" name="top"/>
    </contour>
    <contour>
      <point x="238" y="0" type="move" name="bottom"/>
    </contour>
  </outline>
</glyph>
<glyph name="grDDHA" format="1">
  <advance width="457"/>
  <unicode hex="0A22"/>
  <outline>
    <contour>
      <point x="435" y="89" type="curve" smooth="yes"/>
      <point x="435" y="142"/>
      <point x="391" y="184"/>
      <point x="308" y="184" type="curve" smooth="yes"/>
      <point x="248" y="184"/>
      <point x="201" y="162"/>
      <point x="149" y="124" type="curve"/>
      <point x="174" y="80" type="line"/>
      <point x="218" y="113"/>
      <point x="256" y="133"/>
      <point x="299" y="133" type="curve" smooth="yes"/>
      <point x="320" y="133"/>
      <point x="334" y="131"/>
      <point x="351" y="125" type="curve"/>
      <point x="357" y="113"/>
      <point x="360" y="101"/>
      <point x="360" y="88" type="curve" smooth="yes"/>
      <point x="360" y="62"/>
      <point x="340" y="43"/>
      <point x="296" y="43" type="curve" smooth="yes"/>
      <point x="191" y="43"/>
      <point x="135" y="130"/>
      <point x="122" y="245" type="curve"/>
      <point x="372" y="245" type="line"/>
      <point x="372" y="395" type="line"/>
      <point x="298" y="395" type="line"/>
      <point x="298" y="299" type="line"/>
      <point x="110" y="299" type="line"/>
      <point x="51" y="342" type="line"/>
      <point x="30" y="341"/>
      <point x="13" y="327"/>
      <point x="6" y="304" type="curve"/>
      <point x="9" y="278"/>
      <point x="29" y="253"/>
      <point x="59" y="239" type="curve"/>
      <point x="72" y="98"/>
      <point x="165" y="-4"/>
      <point x="305" y="-4" type="curve" smooth="yes"/>
      <point x="393" y="-4"/>
      <point x="435" y="40"/>
    </contour>
    <contour>
      <point x="471" y="386" type="line"/>
      <point x="471" y="444" type="line"/>
      <point x="-32" y="444" type="line"/>
      <point x="-32" y="386" type="line"/>
    </contour>
    <contour>
      <point x="336" y="444" type="move" name="top"/>
    </contour>
    <contour>
      <point x="248" y="0" type="move" name="bottom"/>
    </contour>
  </outline>
</glyph>
<glyph name="grNNA" format="1">
  <advance width="445"/>
  <unicode hex="0A23"/>
  <outline>
    <contour>
      <point x="417" y="82" type="curve"/>
      <point x="353" y="119" type="line"/>
      <point x="322" y="89"/>
      <point x="284" y="65"/>
      <point x="244" y="52" type="curve"/>
      <point x="176" y="55"/>
      <point x="98" y="110"/>
      <point x="98" y="172" type="curve" smooth="yes"/>
      <point x="98" y="211"/>
      <point x="122" y="233"/>
      <point x="173" y="233" type="curve" smooth="yes"/>
      <point x="268" y="233" type="line"/>
      <point x="268" y="343" type="line"/>
      <point x="271" y="344" type="line"/>
      <point x="371" y="267" type="line"/>
      <point x="394" y="268"/>
      <point x="418" y="284"/>
      <point x="428" y="306" type="curve"/>
      <point x="311" y="384" type="line"/>
      <point x="312" y="386" type="line"/>
      <point x="474" y="386" type="line"/>
      <point x="474" y="444" type="line"/>
      <point x="-29" y="444" type="line"/>
      <point x="-29" y="386" type="line"/>
      <point x="200" y="386" type="line"/>
      <point x="200" y="291" type="line"/>
      <point x="145" y="291" type="line" smooth="yes"/>
      <point x="69" y="291"/>
      <point x="24" y="248"/>
      <point x="24" y="188" type="curve" smooth="yes"/>
      <point x="24" y="79"/>
      <point x="161" y="-4"/>
      <point x="258" y="-4" type="curve" smooth="yes"/>
      <point x="312" y="-4"/>
      <point x="375" y="32"/>
    </contour>
    <contour>
      <point x="283" y="444" type="move" name="top"/>
    </contour>
    <contour>
      <point x="236" y="0" type="move" name="bottom"/>
    </contour>
  </outline>
</glyph>
<glyph name="grTA" format="1">
  <advance width="453"/>
  <unicode hex="0A24"/>
  <outline>
    <contour>
      <point x="418" y="138" type="curve" smooth="yes"/>
      <point x="418" y="220"/>
      <point x="334" y="279"/>
      <point x="204" y="279" type="curve" smooth="yes"/>
      <point x="96" y="279"/>
      <point x="85" y="256"/>
      <point x="85" y="232" type="curve" smooth="yes"/>
      <point x="85" y="225"/>
      <point x="86" y="219"/>
      <point x="88" y="213" type="curve"/>
      <point x="113" y="203"/>
      <point x="156" y="198"/>
      <point x="193" y="198" type="curve" smooth="yes"/>
      <point x="234" y="198"/>
      <point x="269" y="205"/>
      <point x="303" y="217" type="curve"/>
      <point x="329" y="202"/>
      <point x="343" y="177"/>
      <point x="343" y="144" type="curve" smooth="yes"/>
      <point x="343" y="97"/>
      <point x="303" y="53"/>
      <point x="186" y="53" type="curve"/>
      <point x="140" y="67"/>
      <point x="95" y="87"/>
      <point x="52" y="112" type="curve"/>
      <point x="25" y="71" type="line"/>
      <point x="78" y="24"/>
      <point x="151" y="-4"/>
      <point x="221" y="-4" type="curve" smooth="yes"/>
      <point x="325" y="-4"/>
      <point x="418" y="50"/>
    </contour>
    <contour>
      <point x="379" y="400" type="curve"/>
      <point x="303" y="400" type="line"/>
      <point x="302" y="355"/>
      <point x="292" y="306"/>
      <point x="274" y="261" type="curve"/>
      <point x="327" y="245" type="line"/>
      <point x="359" y="281"/>
      <point x="377" y="347"/>
    </contour>
    <contour>
      <point x="482" y="386" type="line"/>
      <point x="482" y="444" type="line"/>
      <point x="-29" y="444" type="line"/>
      <point x="-29" y="386" type="line"/>
    </contour>
    <contour>
      <point x="341" y="444" type="move" name="top"/>
    </contour>
    <contour>
      <point x="232" y="0" type="move" name="bottom"/>
    </contour>
  </outline>
</glyph>
<glyph name="grTHA" format="1">
  <advance width="432"/>
  <unicode hex="0A25"/>
  <outline>
    <contour>
      <point x="320" y="241" type="line"/>
      <point x="320" y="298" type="line"/>
      <point x="130" y="298" type="line"/>
      <point x="130" y="241" type="line"/>
    </contour>
    <component base="grDHA"/>
  </outline>
</glyph>
<glyph name="grDA" format="1">
  <advance width="416"/>
  <unicode hex="0A26"/>
  <outline>
    <contour>
      <point x="396" y="74" type="curve"/>
      <point x="358" y="103" type="line"/>
      <point x="314" y="74"/>
      <point x="281" y="56"/>
      <point x="250" y="49" type="curve"/>
      <point x="200" y="61"/>
      <point x="161" y="97"/>
      <point x="149" y="166" type="curve" smooth="yes"/>
      <point x="140" y="213" type="line"/>
      <point x="354" y="213" type="line"/>
      <point x="354" y="395" type="line"/>
      <point x="280" y="395" type="line"/>
      <point x="280" y="270" type="line"/>
      <point x="125" y="270" type="line"/>
      <point x="57" y="319" type="line"/>
      <point x="36" y="319"/>
      <point x="19" y="303"/>
      <point x="11" y="279" type="curve"/>
      <point x="16" y="252"/>
      <point x="37" y="224"/>
      <point x="74" y="209" type="curve"/>
      <point x="90" y="59"/>
      <point x="179" y="-4"/>
      <point x="259" y="-4" type="curve" smooth="yes"/>
      <point x="308" y="-4"/>
      <point x="354" y="22"/>
    </contour>
    <contour>
      <point x="445" y="386" type="line"/>
      <point x="445" y="444" type="line"/>
      <point x="-29" y="444" type="line"/>
      <point x="-29" y="386" type="line"/>
    </contour>
    <contour>
      <point x="318" y="444" type="move" name="top"/>
    </contour>
    <contour>
      <point x="232" y="0" type="move" name="bottom"/>
    </contour>
  </outline>
</glyph>
<glyph name="grDHA" format="1">
  <advance width="422"/>
  <unicode hex="0A27"/>
  <outline>
    <contour>
      <point x="373" y="0" type="line"/>
      <point x="373" y="398" type="line"/>
      <point x="299" y="398" type="line"/>
      <point x="299" y="182" type="line"/>
      <point x="244" y="149"/>
      <point x="202" y="138"/>
      <point x="163" y="138" type="curve" smooth="yes"/>
      <point x="139" y="138"/>
      <point x="112" y="144"/>
      <point x="100" y="164" type="curve"/>
      <point x="140" y="214"/>
      <point x="162" y="255"/>
      <point x="162" y="307" type="curve" smooth="yes"/>
      <point x="162" y="346"/>
      <point x="146" y="380"/>
      <point x="118" y="411" type="curve"/>
      <point x="76" y="397" type="line"/>
      <point x="91" y="369"/>
      <point x="94" y="349"/>
      <point x="94" y="328" type="curve" smooth="yes"/>
      <point x="94" y="293"/>
      <point x="79" y="267"/>
      <point x="43" y="210" type="curve" smooth="yes"/>
      <point x="28" y="186"/>
      <point x="27" y="182"/>
      <point x="27" y="173" type="curve" smooth="yes"/>
      <point x="27" y="136"/>
      <point x="92" y="83"/>
      <point x="174" y="83" type="curve" smooth="yes"/>
      <point x="222" y="83"/>
      <point x="257" y="92"/>
      <point x="300" y="112" type="curve"/>
      <point x="303" y="110" type="line"/>
      <point x="299" y="46" type="line"/>
      <point x="299" y="0" type="line"/>
    </contour>
    <contour>
      <point x="451" y="386" type="line"/>
      <point x="451" y="444" type="line"/>
      <point x="-29" y="444" type="line"/>
      <point x="-29" y="386" type="line"/>
    </contour>
  </outline>
</glyph>
<glyph name="grNA" format="1">
  <advance width="471"/>
  <unicode hex="0A28"/>
  <outline>
    <contour>
      <point x="175" y="20" type="curve"/>
      <point x="114" y="69"/>
      <point x="100" y="100"/>
      <point x="100" y="142" type="curve" smooth="yes"/>
      <point x="100" y="208"/>
      <point x="147" y="244"/>
      <point x="235" y="244" type="curve" smooth="yes"/>
      <point x="277" y="244"/>
      <point x="312" y="235"/>
      <point x="345" y="217" type="curve"/>
      <point x="355" y="195"/>
      <point x="360" y="172"/>
      <point x="360" y="151" type="curve" smooth="yes"/>
      <point x="360" y="100"/>
      <point x="333" y="59"/>
      <point x="282" y="27" type="curve"/>
      <point x="292" y="11"/>
      <point x="313" y="0"/>
      <point x="336" y="-7" type="curve"/>
      <point x="398" y="17"/>
      <point x="436" y="73"/>
      <point x="436" y="142" type="curve" smooth="yes"/>
      <point x="436" y="240"/>
      <point x="354" y="298"/>
      <point x="235" y="298" type="curve" smooth="yes"/>
      <point x="116" y="298"/>
      <point x="35" y="238"/>
      <point x="35" y="142" type="curve" smooth="yes"/>
      <point x="35" y="87"/>
      <point x="59" y="42"/>
      <point x="135" y="-7" type="curve"/>
      <point x="149" y="-3"/>
      <point x="162" y="5"/>
    </contour>
    <contour>
      <point x="277" y="278" type="line"/>
      <point x="277" y="404" type="line"/>
      <point x="201" y="404" type="line"/>
      <point x="201" y="278" type="line"/>
    </contour>
    <contour>
      <point x="500" y="386" type="line"/>
      <point x="500" y="444" type="line"/>
      <point x="-29" y="444" type="line"/>
      <point x="-29" y="386" type="line"/>
    </contour>
    <contour>
      <point x="334" y="444" type="move" name="top"/>
    </contour>
    <contour>
      <point x="235" y="0" type="move" name="bottom"/>
    </contour>
  </outline>
</glyph>
<glyph name="grPA" format="1">
  <advance width="422"/>
  <unicode hex="0A2A"/>
  <outline>
    <contour>
      <point x="373" y="0" type="line"/>
      <point x="373" y="386" type="line"/>
      <point x="451" y="386" type="line"/>
      <point x="451" y="444" type="line"/>
      <point x="299" y="444" type="line"/>
      <point x="299" y="182" type="line"/>
      <point x="244" y="149"/>
      <point x="202" y="138"/>
      <point x="163" y="138" type="curve" smooth="yes"/>
      <point x="139" y="138"/>
      <point x="114" y="144"/>
      <point x="100" y="163" type="curve"/>
      <point x="140" y="217"/>
      <point x="162" y="255"/>
      <point x="162" y="310" type="curve" smooth="yes"/>
      <point x="162" y="374"/>
      <point x="102" y="444"/>
      <point x="21" y="444" type="curve" smooth="yes"/>
      <point x="-29" y="444" type="line"/>
      <point x="-29" y="386" type="line" smooth="yes"/>
      <point x="37" y="386" type="line" smooth="yes"/>
      <point x="54" y="386"/>
      <point x="69" y="385"/>
      <point x="83" y="381" type="curve"/>
      <point x="90" y="366"/>
      <point x="94" y="349"/>
      <point x="94" y="330" type="curve" smooth="yes"/>
      <point x="94" y="294"/>
      <point x="78" y="265"/>
      <point x="43" y="210" type="curve" smooth="yes"/>
      <point x="28" y="186"/>
      <point x="27" y="182"/>
      <point x="27" y="173" type="curve" smooth="yes"/>
      <point x="27" y="135"/>
      <point x="92" y="83"/>
      <point x="174" y="83" type="curve" smooth="yes"/>
      <point x="222" y="83"/>
      <point x="257" y="92"/>
      <point x="300" y="112" type="curve"/>
      <point x="303" y="110" type="line"/>
      <point x="299" y="46" type="line"/>
      <point x="299" y="0" type="line"/>
    </contour>
  </outline>
</glyph>
<glyph name="grPHA" format="1">
  <advance width="427"/>
  <unicode hex="0A2B"/>
  <outline>
    <contour>
      <point x="399" y="91" type="curve" smooth="yes"/>
      <point x="399" y="148"/>
      <point x="350" y="196"/>
      <point x="267" y="196" type="curve" smooth="yes"/>
      <point x="211" y="196"/>
      <point x="164" y="174"/>
      <point x="111" y="130" type="curve"/>
      <point x="136" y="87" type="line"/>
      <point x="180" y="123"/>
      <point x="220" y="142"/>
      <point x="263" y="142" type="curve" smooth="yes"/>
      <point x="282" y="142"/>
      <point x="300" y="140"/>
      <point x="316" y="134" type="curve"/>
      <point x="322" y="123"/>
      <point x="326" y="110"/>
      <point x="326" y="95" type="curve" smooth="yes"/>
      <point x="326" y="66"/>
      <point x="304" y="46"/>
      <point x="263" y="46" type="curve" smooth="yes"/>
      <point x="162" y="46"/>
      <point x="103" y="113"/>
      <point x="103" y="189" type="curve" smooth="yes"/>
      <point x="103" y="237"/>
      <point x="132" y="260"/>
      <point x="195" y="260" type="curve" smooth="yes"/>
      <point x="337" y="260" type="line"/>
      <point x="337" y="408" type="line"/>
      <point x="263" y="408" type="line"/>
      <point x="263" y="311" type="line"/>
      <point x="162" y="311" type="line" smooth="yes"/>
      <point x="71" y="311"/>
      <point x="26" y="266"/>
      <point x="26" y="202" type="curve" smooth="yes"/>
      <point x="26" y="103"/>
      <point x="134" y="-4"/>
      <point x="272" y="-4" type="curve" smooth="yes"/>
      <point x="358" y="-4"/>
      <point x="399" y="40"/>
    </contour>
    <contour>
      <point x="456" y="386" type="line"/>
      <point x="456" y="444" type="line"/>
      <point x="-29" y="444" type="line"/>
      <point x="-29" y="386" type="line"/>
    </contour>
    <contour>
      <point x="299" y="444" type="move" name="top"/>
    </contour>
    <contour>
      <point x="228" y="0" type="move" name="bottom"/>
    </contour>
  </outline>
</glyph>
